ISO-10303-21;
HEADER;
/* Generated by software containing ST-Developer
 * from STEP Tools, Inc. (www.steptools.com) 
 */

FILE_DESCRIPTION(
/* description */ ('KiCad electronic assembly'),
/* implementation_level */ '2;1');

FILE_NAME(
/* name */ 'base.step',
/* time_stamp */ '2026-08-04T09:34:59+02:00',
/* author */ (''),
/* organization */ (''),
/* preprocessor_version */ 'ST-DEVELOPER v20.1',
/* originating_system */ 'Autodesk Translation Framework v15.8.0.0',
/* authorisation */ '');

FILE_SCHEMA (('AUTOMOTIVE_DESIGN { 1 0 10303 214 3 1 1 }'));
ENDSEC;

DATA;
#10=MECHANICAL_DESIGN_GEOMETRIC_PRESENTATION_REPRESENTATION('',(#13),#1196);
#11=SHAPE_REPRESENTATION_RELATIONSHIP('SRR','None',#1202,#12);
#12=ADVANCED_BREP_SHAPE_REPRESENTATION('',(#14),#1195);
#13=STYLED_ITEM('',(#1211),#14);
#14=MANIFOLD_SOLID_BREP('Base',#708);
#15=FACE_BOUND('',#227,.T.);
#16=FACE_BOUND('',#229,.T.);
#17=FACE_BOUND('',#233,.T.);
#18=FACE_BOUND('',#235,.T.);
#19=FACE_BOUND('',#237,.T.);
#20=FACE_BOUND('',#241,.T.);
#21=FACE_BOUND('',#244,.T.);
#22=FACE_BOUND('',#246,.T.);
#23=FACE_BOUND('',#250,.T.);
#24=FACE_BOUND('',#257,.T.);
#25=FACE_BOUND('',#258,.T.);
#26=FACE_BOUND('',#261,.T.);
#27=LINE('',#1002,#90);
#28=LINE('',#1008,#91);
#29=LINE('',#1012,#92);
#30=LINE('',#1016,#93);
#31=LINE('',#1024,#94);
#32=LINE('',#1032,#95);
#33=LINE('',#1034,#96);
#34=LINE('',#1036,#97);
#35=LINE('',#1037,#98);
#36=LINE('',#1040,#99);
#37=LINE('',#1042,#100);
#38=LINE('',#1043,#101);
#39=LINE('',#1046,#102);
#40=LINE('',#1048,#103);
#41=LINE('',#1049,#104);
#42=LINE('',#1051,#105);
#43=LINE('',#1052,#106);
#44=LINE('',#1057,#107);
#45=LINE('',#1064,#108);
#46=LINE('',#1076,#109);
#47=LINE('',#1080,#110);
#48=LINE('',#1086,#111);
#49=LINE('',#1087,#112);
#50=LINE('',#1090,#113);
#51=LINE('',#1092,#114);
#52=LINE('',#1094,#115);
#53=LINE('',#1096,#116);
#54=LINE('',#1098,#117);
#55=LINE('',#1100,#118);
#56=LINE('',#1101,#119);
#57=LINE('',#1105,#120);
#58=LINE('',#1108,#121);
#59=LINE('',#1112,#122);
#60=LINE('',#1114,#123);
#61=LINE('',#1115,#124);
#62=LINE('',#1117,#125);
#63=LINE('',#1118,#126);
#64=LINE('',#1121,#127);
#65=LINE('',#1123,#128);
#66=LINE('',#1125,#129);
#67=LINE('',#1127,#130);
#68=LINE('',#1129,#131);
#69=LINE('',#1130,#132);
#70=LINE('',#1134,#133);
#71=LINE('',#1139,#134);
#72=LINE('',#1141,#135);
#73=LINE('',#1143,#136);
#74=LINE('',#1144,#137);
#75=LINE('',#1145,#138);
#76=LINE('',#1153,#139);
#77=LINE('',#1155,#140);
#78=LINE('',#1157,#141);
#79=LINE('',#1158,#142);
#80=LINE('',#1160,#143);
#81=LINE('',#1163,#144);
#82=LINE('',#1170,#145);
#83=LINE('',#1172,#146);
#84=LINE('',#1174,#147);
#85=LINE('',#1175,#148);
#86=LINE('',#1186,#149);
#87=LINE('',#1187,#150);
#88=LINE('',#1189,#151);
#89=LINE('',#1191,#152);
#90=VECTOR('',#793,2.16559569025442);
#91=VECTOR('',#800,10.);
#92=VECTOR('',#803,10.);
#93=VECTOR('',#806,2.15232427689489);
#94=VECTOR('',#817,2.14823644762024);
#95=VECTOR('',#828,10.);
#96=VECTOR('',#829,10.);
#97=VECTOR('',#830,10.);
#98=VECTOR('',#831,10.);
#99=VECTOR('',#834,10.);
#100=VECTOR('',#835,10.);
#101=VECTOR('',#836,10.);
#102=VECTOR('',#839,10.);
#103=VECTOR('',#840,10.);
#104=VECTOR('',#841,10.);
#105=VECTOR('',#844,10.);
#106=VECTOR('',#845,10.);
#107=VECTOR('',#850,2.10000000000001);
#108=VECTOR('',#859,2.10000000000001);
#109=VECTOR('',#876,2.5);
#110=VECTOR('',#881,2.5);
#111=VECTOR('',#886,10.);
#112=VECTOR('',#887,10.);
#113=VECTOR('',#890,10.);
#114=VECTOR('',#891,10.);
#115=VECTOR('',#892,10.);
#116=VECTOR('',#893,10.);
#117=VECTOR('',#894,10.);
#118=VECTOR('',#895,10.);
#119=VECTOR('',#896,10.);
#120=VECTOR('',#899,10.);
#121=VECTOR('',#902,10.);
#122=VECTOR('',#907,10.);
#123=VECTOR('',#908,10.);
#124=VECTOR('',#909,10.);
#125=VECTOR('',#910,10.);
#126=VECTOR('',#911,10.);
#127=VECTOR('',#914,10.);
#128=VECTOR('',#915,10.);
#129=VECTOR('',#916,10.);
#130=VECTOR('',#917,10.);
#131=VECTOR('',#918,10.);
#132=VECTOR('',#919,10.);
#133=VECTOR('',#924,10.);
#134=VECTOR('',#929,10.);
#135=VECTOR('',#930,10.);
#136=VECTOR('',#931,10.);
#137=VECTOR('',#932,10.);
#138=VECTOR('',#933,10.);
#139=VECTOR('',#942,10.);
#140=VECTOR('',#943,10.);
#141=VECTOR('',#944,10.);
#142=VECTOR('',#945,10.);
#143=VECTOR('',#948,2.15);
#144=VECTOR('',#951,2.15);
#145=VECTOR('',#960,10.);
#146=VECTOR('',#961,10.);
#147=VECTOR('',#962,10.);
#148=VECTOR('',#963,10.);
#149=VECTOR('',#984,10.);
#150=VECTOR('',#985,10.);
#151=VECTOR('',#988,10.);
#152=VECTOR('',#991,10.);
#153=CYLINDRICAL_SURFACE('',#712,2.16559569025442);
#154=CYLINDRICAL_SURFACE('',#716,2.15232427689489);
#155=CYLINDRICAL_SURFACE('',#722,2.14823644762024);
#156=CYLINDRICAL_SURFACE('',#732,2.10000000000001);
#157=CYLINDRICAL_SURFACE('',#736,2.10000000000001);
#158=CYLINDRICAL_SURFACE('',#744,3.);
#159=CYLINDRICAL_SURFACE('',#746,3.);
#160=CYLINDRICAL_SURFACE('',#764,2.15);
#161=CYLINDRICAL_SURFACE('',#765,2.15);
#162=CYLINDRICAL_SURFACE('',#768,2.15);
#163=CYLINDRICAL_SURFACE('',#770,6.55685589321948);
#164=CYLINDRICAL_SURFACE('',#772,6.557);
#165=CYLINDRICAL_SURFACE('',#774,6.557);
#166=CYLINDRICAL_SURFACE('',#778,6.557);
#167=FACE_OUTER_BOUND('',#210,.T.);
#168=FACE_OUTER_BOUND('',#211,.T.);
#169=FACE_OUTER_BOUND('',#212,.T.);
#170=FACE_OUTER_BOUND('',#213,.T.);
#171=FACE_OUTER_BOUND('',#214,.T.);
#172=FACE_OUTER_BOUND('',#215,.T.);
#173=FACE_OUTER_BOUND('',#216,.T.);
#174=FACE_OUTER_BOUND('',#217,.T.);
#175=FACE_OUTER_BOUND('',#218,.T.);
#176=FACE_OUTER_BOUND('',#219,.T.);
#177=FACE_OUTER_BOUND('',#220,.T.);
#178=FACE_OUTER_BOUND('',#221,.T.);
#179=FACE_OUTER_BOUND('',#222,.T.);
#180=FACE_OUTER_BOUND('',#223,.T.);
#181=FACE_OUTER_BOUND('',#224,.T.);
#182=FACE_OUTER_BOUND('',#225,.T.);
#183=FACE_OUTER_BOUND('',#226,.T.);
#184=FACE_OUTER_BOUND('',#228,.T.);
#185=FACE_OUTER_BOUND('',#230,.T.);
#186=FACE_OUTER_BOUND('',#231,.T.);
#187=FACE_OUTER_BOUND('',#232,.T.);
#188=FACE_OUTER_BOUND('',#234,.T.);
#189=FACE_OUTER_BOUND('',#236,.T.);
#190=FACE_OUTER_BOUND('',#238,.T.);
#191=FACE_OUTER_BOUND('',#239,.T.);
#192=FACE_OUTER_BOUND('',#240,.T.);
#193=FACE_OUTER_BOUND('',#242,.T.);
#194=FACE_OUTER_BOUND('',#243,.T.);
#195=FACE_OUTER_BOUND('',#245,.T.);
#196=FACE_OUTER_BOUND('',#247,.T.);
#197=FACE_OUTER_BOUND('',#248,.T.);
#198=FACE_OUTER_BOUND('',#249,.T.);
#199=FACE_OUTER_BOUND('',#251,.T.);
#200=FACE_OUTER_BOUND('',#252,.T.);
#201=FACE_OUTER_BOUND('',#253,.T.);
#202=FACE_OUTER_BOUND('',#254,.T.);
#203=FACE_OUTER_BOUND('',#255,.T.);
#204=FACE_OUTER_BOUND('',#256,.T.);
#205=FACE_OUTER_BOUND('',#259,.T.);
#206=FACE_OUTER_BOUND('',#260,.T.);
#207=FACE_OUTER_BOUND('',#262,.T.);
#208=FACE_OUTER_BOUND('',#263,.T.);
#209=FACE_OUTER_BOUND('',#264,.T.);
#210=EDGE_LOOP('',(#450));
#211=EDGE_LOOP('',(#451,#452,#453,#454));
#212=EDGE_LOOP('',(#455));
#213=EDGE_LOOP('',(#456,#457,#458,#459,#460,#461,#462,#463));
#214=EDGE_LOOP('',(#464));
#215=EDGE_LOOP('',(#465,#466,#467,#468));
#216=EDGE_LOOP('',(#469));
#217=EDGE_LOOP('',(#470,#471,#472));
#218=EDGE_LOOP('',(#473,#474,#475,#476));
#219=EDGE_LOOP('',(#477,#478,#479,#480));
#220=EDGE_LOOP('',(#481,#482,#483,#484));
#221=EDGE_LOOP('',(#485,#486,#487,#488));
#222=EDGE_LOOP('',(#489,#490,#491,#492));
#223=EDGE_LOOP('',(#493));
#224=EDGE_LOOP('',(#494,#495,#496,#497));
#225=EDGE_LOOP('',(#498));
#226=EDGE_LOOP('',(#499));
#227=EDGE_LOOP('',(#500));
#228=EDGE_LOOP('',(#501));
#229=EDGE_LOOP('',(#502));
#230=EDGE_LOOP('',(#503,#504,#505,#506));
#231=EDGE_LOOP('',(#507,#508,#509,#510));
#232=EDGE_LOOP('',(#511,#512,#513));
#233=EDGE_LOOP('',(#514));
#234=EDGE_LOOP('',(#515,#516,#517,#518,#519,#520,#521,#522));
#235=EDGE_LOOP('',(#523,#524,#525,#526));
#236=EDGE_LOOP('',(#527,#528,#529));
#237=EDGE_LOOP('',(#530,#531));
#238=EDGE_LOOP('',(#532,#533,#534,#535,#536,#537,#538,#539));
#239=EDGE_LOOP('',(#540,#541,#542,#543,#544,#545,#546,#547));
#240=EDGE_LOOP('',(#548,#549,#550));
#241=EDGE_LOOP('',(#551));
#242=EDGE_LOOP('',(#552,#553,#554,#555,#556,#557,#558,#559));
#243=EDGE_LOOP('',(#560,#561,#562));
#244=EDGE_LOOP('',(#563));
#245=EDGE_LOOP('',(#564,#565,#566,#567));
#246=EDGE_LOOP('',(#568,#569,#570,#571));
#247=EDGE_LOOP('',(#572,#573,#574,#575));
#248=EDGE_LOOP('',(#576,#577,#578,#579));
#249=EDGE_LOOP('',(#580));
#250=EDGE_LOOP('',(#581));
#251=EDGE_LOOP('',(#582,#583,#584,#585));
#252=EDGE_LOOP('',(#586,#587,#588,#589));
#253=EDGE_LOOP('',(#590,#591,#592,#593));
#254=EDGE_LOOP('',(#594,#595,#596,#597));
#255=EDGE_LOOP('',(#598,#599,#600,#601));
#256=EDGE_LOOP('',(#602,#603,#604,#605,#606,#607,#608,#609));
#257=EDGE_LOOP('',(#610));
#258=EDGE_LOOP('',(#611));
#259=EDGE_LOOP('',(#612,#613,#614,#615));
#260=EDGE_LOOP('',(#616,#617,#618,#619));
#261=EDGE_LOOP('',(#620,#621,#622,#623));
#262=EDGE_LOOP('',(#624,#625,#626,#627));
#263=EDGE_LOOP('',(#628,#629,#630,#631));
#264=EDGE_LOOP('',(#632,#633,#634,#635));
#265=CIRCLE('',#711,2.15);
#266=CIRCLE('',#713,2.16559569025442);
#267=CIRCLE('',#714,2.16559569025442);
#268=CIRCLE('',#717,2.15232427689489);
#269=CIRCLE('',#718,2.15232427689489);
#270=CIRCLE('',#719,2.15232427689489);
#271=CIRCLE('',#720,2.15232427689489);
#272=CIRCLE('',#723,2.14823644762024);
#273=CIRCLE('',#724,2.14823644762024);
#274=CIRCLE('',#727,2.15);
#275=CIRCLE('',#733,2.10000000000001);
#276=CIRCLE('',#734,2.10000000000001);
#277=CIRCLE('',#737,2.10000000000001);
#278=CIRCLE('',#738,2.10000000000001);
#279=CIRCLE('',#741,3.);
#280=CIRCLE('',#743,3.);
#281=CIRCLE('',#745,3.);
#282=CIRCLE('',#747,3.);
#283=CIRCLE('',#749,6.557);
#284=CIRCLE('',#752,6.557);
#285=CIRCLE('',#753,2.15);
#286=CIRCLE('',#757,6.557);
#287=CIRCLE('',#758,2.15);
#288=CIRCLE('',#761,6.55685589321948);
#289=CIRCLE('',#762,2.15);
#290=CIRCLE('',#766,2.15);
#291=CIRCLE('',#771,6.55685589321948);
#292=CIRCLE('',#773,6.557);
#293=CIRCLE('',#775,6.557);
#294=CIRCLE('',#777,6.557);
#295=VERTEX_POINT('',#996);
#296=VERTEX_POINT('',#999);
#297=VERTEX_POINT('',#1001);
#298=VERTEX_POINT('',#1006);
#299=VERTEX_POINT('',#1007);
#300=VERTEX_POINT('',#1009);
#301=VERTEX_POINT('',#1011);
#302=VERTEX_POINT('',#1013);
#303=VERTEX_POINT('',#1015);
#304=VERTEX_POINT('',#1021);
#305=VERTEX_POINT('',#1023);
#306=VERTEX_POINT('',#1030);
#307=VERTEX_POINT('',#1031);
#308=VERTEX_POINT('',#1033);
#309=VERTEX_POINT('',#1035);
#310=VERTEX_POINT('',#1039);
#311=VERTEX_POINT('',#1041);
#312=VERTEX_POINT('',#1045);
#313=VERTEX_POINT('',#1047);
#314=VERTEX_POINT('',#1054);
#315=VERTEX_POINT('',#1056);
#316=VERTEX_POINT('',#1061);
#317=VERTEX_POINT('',#1063);
#318=VERTEX_POINT('',#1068);
#319=VERTEX_POINT('',#1071);
#320=VERTEX_POINT('',#1074);
#321=VERTEX_POINT('',#1078);
#322=VERTEX_POINT('',#1082);
#323=VERTEX_POINT('',#1083);
#324=VERTEX_POINT('',#1085);
#325=VERTEX_POINT('',#1089);
#326=VERTEX_POINT('',#1091);
#327=VERTEX_POINT('',#1093);
#328=VERTEX_POINT('',#1095);
#329=VERTEX_POINT('',#1097);
#330=VERTEX_POINT('',#1099);
#331=VERTEX_POINT('',#1103);
#332=VERTEX_POINT('',#1104);
#333=VERTEX_POINT('',#1106);
#334=VERTEX_POINT('',#1111);
#335=VERTEX_POINT('',#1113);
#336=VERTEX_POINT('',#1116);
#337=VERTEX_POINT('',#1120);
#338=VERTEX_POINT('',#1122);
#339=VERTEX_POINT('',#1124);
#340=VERTEX_POINT('',#1126);
#341=VERTEX_POINT('',#1128);
#342=VERTEX_POINT('',#1132);
#343=VERTEX_POINT('',#1135);
#344=VERTEX_POINT('',#1138);
#345=VERTEX_POINT('',#1140);
#346=VERTEX_POINT('',#1142);
#347=VERTEX_POINT('',#1148);
#348=VERTEX_POINT('',#1151);
#349=VERTEX_POINT('',#1152);
#350=VERTEX_POINT('',#1154);
#351=VERTEX_POINT('',#1156);
#352=VERTEX_POINT('',#1162);
#353=VERTEX_POINT('',#1168);
#354=VERTEX_POINT('',#1169);
#355=VERTEX_POINT('',#1171);
#356=VERTEX_POINT('',#1173);
#357=EDGE_CURVE('',#295,#295,#265,.T.);
#358=EDGE_CURVE('',#296,#296,#266,.T.);
#359=EDGE_CURVE('',#296,#297,#27,.T.);
#360=EDGE_CURVE('',#297,#297,#267,.T.);
#361=EDGE_CURVE('',#298,#299,#28,.T.);
#362=EDGE_CURVE('',#300,#298,#268,.T.);
#363=EDGE_CURVE('',#301,#300,#29,.T.);
#364=EDGE_CURVE('',#302,#301,#269,.T.);
#365=EDGE_CURVE('',#302,#303,#30,.T.);
#366=EDGE_CURVE('',#303,#303,#270,.T.);
#367=EDGE_CURVE('',#299,#302,#271,.T.);
#368=EDGE_CURVE('',#304,#304,#272,.T.);
#369=EDGE_CURVE('',#304,#305,#31,.T.);
#370=EDGE_CURVE('',#305,#305,#273,.T.);
#371=EDGE_CURVE('',#299,#301,#274,.T.);
#372=EDGE_CURVE('',#306,#307,#32,.T.);
#373=EDGE_CURVE('',#308,#306,#33,.T.);
#374=EDGE_CURVE('',#309,#308,#34,.T.);
#375=EDGE_CURVE('',#309,#307,#35,.T.);
#376=EDGE_CURVE('',#307,#310,#36,.T.);
#377=EDGE_CURVE('',#311,#309,#37,.T.);
#378=EDGE_CURVE('',#311,#310,#38,.T.);
#379=EDGE_CURVE('',#310,#312,#39,.T.);
#380=EDGE_CURVE('',#313,#311,#40,.T.);
#381=EDGE_CURVE('',#313,#312,#41,.T.);
#382=EDGE_CURVE('',#312,#306,#42,.T.);
#383=EDGE_CURVE('',#308,#313,#43,.T.);
#384=EDGE_CURVE('',#314,#314,#275,.T.);
#385=EDGE_CURVE('',#314,#315,#44,.T.);
#386=EDGE_CURVE('',#315,#315,#276,.T.);
#387=EDGE_CURVE('',#316,#316,#277,.T.);
#388=EDGE_CURVE('',#316,#317,#45,.T.);
#389=EDGE_CURVE('',#317,#317,#278,.T.);
#390=EDGE_CURVE('',#318,#318,#279,.T.);
#391=EDGE_CURVE('',#319,#319,#280,.T.);
#392=EDGE_CURVE('',#320,#320,#281,.T.);
#393=EDGE_CURVE('',#320,#318,#46,.T.);
#394=EDGE_CURVE('',#321,#321,#282,.T.);
#395=EDGE_CURVE('',#321,#319,#47,.T.);
#396=EDGE_CURVE('',#322,#323,#283,.T.);
#397=EDGE_CURVE('',#324,#323,#48,.T.);
#398=EDGE_CURVE('',#322,#324,#49,.T.);
#399=EDGE_CURVE('',#325,#322,#50,.T.);
#400=EDGE_CURVE('',#326,#324,#51,.T.);
#401=EDGE_CURVE('',#327,#326,#52,.T.);
#402=EDGE_CURVE('',#327,#328,#53,.T.);
#403=EDGE_CURVE('',#328,#329,#54,.T.);
#404=EDGE_CURVE('',#329,#330,#55,.T.);
#405=EDGE_CURVE('',#330,#325,#56,.T.);
#406=EDGE_CURVE('',#331,#332,#57,.T.);
#407=EDGE_CURVE('',#331,#333,#284,.T.);
#408=EDGE_CURVE('',#332,#333,#58,.T.);
#409=EDGE_CURVE('',#298,#300,#285,.T.);
#410=EDGE_CURVE('',#323,#334,#59,.T.);
#411=EDGE_CURVE('',#334,#335,#60,.T.);
#412=EDGE_CURVE('',#335,#331,#61,.T.);
#413=EDGE_CURVE('',#332,#336,#62,.T.);
#414=EDGE_CURVE('',#326,#336,#63,.T.);
#415=EDGE_CURVE('',#333,#337,#64,.T.);
#416=EDGE_CURVE('',#337,#338,#65,.T.);
#417=EDGE_CURVE('',#338,#339,#66,.T.);
#418=EDGE_CURVE('',#339,#340,#67,.T.);
#419=EDGE_CURVE('',#341,#340,#68,.T.);
#420=EDGE_CURVE('',#336,#341,#69,.T.);
#421=EDGE_CURVE('',#339,#342,#286,.T.);
#422=EDGE_CURVE('',#340,#342,#70,.T.);
#423=EDGE_CURVE('',#343,#343,#287,.T.);
#424=EDGE_CURVE('',#342,#344,#71,.T.);
#425=EDGE_CURVE('',#344,#345,#72,.T.);
#426=EDGE_CURVE('',#345,#346,#73,.T.);
#427=EDGE_CURVE('',#346,#328,#74,.T.);
#428=EDGE_CURVE('',#341,#327,#75,.T.);
#429=EDGE_CURVE('',#346,#329,#288,.T.);
#430=EDGE_CURVE('',#347,#347,#289,.T.);
#431=EDGE_CURVE('',#348,#349,#76,.T.);
#432=EDGE_CURVE('',#349,#350,#77,.T.);
#433=EDGE_CURVE('',#350,#351,#78,.T.);
#434=EDGE_CURVE('',#351,#348,#79,.T.);
#435=EDGE_CURVE('',#347,#295,#80,.T.);
#436=EDGE_CURVE('',#343,#352,#81,.T.);
#437=EDGE_CURVE('',#352,#352,#290,.T.);
#438=EDGE_CURVE('',#353,#354,#82,.T.);
#439=EDGE_CURVE('',#354,#355,#83,.T.);
#440=EDGE_CURVE('',#355,#356,#84,.T.);
#441=EDGE_CURVE('',#356,#353,#85,.T.);
#442=EDGE_CURVE('',#330,#345,#291,.T.);
#443=EDGE_CURVE('',#344,#338,#292,.T.);
#444=EDGE_CURVE('',#337,#335,#293,.T.);
#445=EDGE_CURVE('',#334,#325,#294,.T.);
#446=EDGE_CURVE('',#350,#356,#86,.T.);
#447=EDGE_CURVE('',#353,#349,#87,.T.);
#448=EDGE_CURVE('',#351,#355,#88,.T.);
#449=EDGE_CURVE('',#348,#354,#89,.T.);
#450=ORIENTED_EDGE('',*,*,#357,.F.);
#451=ORIENTED_EDGE('',*,*,#358,.F.);
#452=ORIENTED_EDGE('',*,*,#359,.T.);
#453=ORIENTED_EDGE('',*,*,#360,.T.);
#454=ORIENTED_EDGE('',*,*,#359,.F.);
#455=ORIENTED_EDGE('',*,*,#360,.F.);
#456=ORIENTED_EDGE('',*,*,#361,.F.);
#457=ORIENTED_EDGE('',*,*,#362,.F.);
#458=ORIENTED_EDGE('',*,*,#363,.F.);
#459=ORIENTED_EDGE('',*,*,#364,.F.);
#460=ORIENTED_EDGE('',*,*,#365,.T.);
#461=ORIENTED_EDGE('',*,*,#366,.T.);
#462=ORIENTED_EDGE('',*,*,#365,.F.);
#463=ORIENTED_EDGE('',*,*,#367,.F.);
#464=ORIENTED_EDGE('',*,*,#366,.F.);
#465=ORIENTED_EDGE('',*,*,#368,.F.);
#466=ORIENTED_EDGE('',*,*,#369,.T.);
#467=ORIENTED_EDGE('',*,*,#370,.T.);
#468=ORIENTED_EDGE('',*,*,#369,.F.);
#469=ORIENTED_EDGE('',*,*,#370,.F.);
#470=ORIENTED_EDGE('',*,*,#367,.T.);
#471=ORIENTED_EDGE('',*,*,#364,.T.);
#472=ORIENTED_EDGE('',*,*,#371,.F.);
#473=ORIENTED_EDGE('',*,*,#372,.F.);
#474=ORIENTED_EDGE('',*,*,#373,.F.);
#475=ORIENTED_EDGE('',*,*,#374,.F.);
#476=ORIENTED_EDGE('',*,*,#375,.T.);
#477=ORIENTED_EDGE('',*,*,#376,.F.);
#478=ORIENTED_EDGE('',*,*,#375,.F.);
#479=ORIENTED_EDGE('',*,*,#377,.F.);
#480=ORIENTED_EDGE('',*,*,#378,.T.);
#481=ORIENTED_EDGE('',*,*,#379,.F.);
#482=ORIENTED_EDGE('',*,*,#378,.F.);
#483=ORIENTED_EDGE('',*,*,#380,.F.);
#484=ORIENTED_EDGE('',*,*,#381,.T.);
#485=ORIENTED_EDGE('',*,*,#382,.F.);
#486=ORIENTED_EDGE('',*,*,#381,.F.);
#487=ORIENTED_EDGE('',*,*,#383,.F.);
#488=ORIENTED_EDGE('',*,*,#373,.T.);
#489=ORIENTED_EDGE('',*,*,#384,.F.);
#490=ORIENTED_EDGE('',*,*,#385,.T.);
#491=ORIENTED_EDGE('',*,*,#386,.T.);
#492=ORIENTED_EDGE('',*,*,#385,.F.);
#493=ORIENTED_EDGE('',*,*,#386,.F.);
#494=ORIENTED_EDGE('',*,*,#387,.F.);
#495=ORIENTED_EDGE('',*,*,#388,.T.);
#496=ORIENTED_EDGE('',*,*,#389,.T.);
#497=ORIENTED_EDGE('',*,*,#388,.F.);
#498=ORIENTED_EDGE('',*,*,#389,.F.);
#499=ORIENTED_EDGE('',*,*,#390,.T.);
#500=ORIENTED_EDGE('',*,*,#384,.T.);
#501=ORIENTED_EDGE('',*,*,#391,.T.);
#502=ORIENTED_EDGE('',*,*,#387,.T.);
#503=ORIENTED_EDGE('',*,*,#392,.F.);
#504=ORIENTED_EDGE('',*,*,#393,.T.);
#505=ORIENTED_EDGE('',*,*,#390,.F.);
#506=ORIENTED_EDGE('',*,*,#393,.F.);
#507=ORIENTED_EDGE('',*,*,#394,.F.);
#508=ORIENTED_EDGE('',*,*,#395,.T.);
#509=ORIENTED_EDGE('',*,*,#391,.F.);
#510=ORIENTED_EDGE('',*,*,#395,.F.);
#511=ORIENTED_EDGE('',*,*,#396,.T.);
#512=ORIENTED_EDGE('',*,*,#397,.F.);
#513=ORIENTED_EDGE('',*,*,#398,.F.);
#514=ORIENTED_EDGE('',*,*,#358,.T.);
#515=ORIENTED_EDGE('',*,*,#399,.T.);
#516=ORIENTED_EDGE('',*,*,#398,.T.);
#517=ORIENTED_EDGE('',*,*,#400,.F.);
#518=ORIENTED_EDGE('',*,*,#401,.F.);
#519=ORIENTED_EDGE('',*,*,#402,.T.);
#520=ORIENTED_EDGE('',*,*,#403,.T.);
#521=ORIENTED_EDGE('',*,*,#404,.T.);
#522=ORIENTED_EDGE('',*,*,#405,.T.);
#523=ORIENTED_EDGE('',*,*,#380,.T.);
#524=ORIENTED_EDGE('',*,*,#377,.T.);
#525=ORIENTED_EDGE('',*,*,#374,.T.);
#526=ORIENTED_EDGE('',*,*,#383,.T.);
#527=ORIENTED_EDGE('',*,*,#406,.F.);
#528=ORIENTED_EDGE('',*,*,#407,.T.);
#529=ORIENTED_EDGE('',*,*,#408,.F.);
#530=ORIENTED_EDGE('',*,*,#362,.T.);
#531=ORIENTED_EDGE('',*,*,#409,.T.);
#532=ORIENTED_EDGE('',*,*,#410,.T.);
#533=ORIENTED_EDGE('',*,*,#411,.T.);
#534=ORIENTED_EDGE('',*,*,#412,.T.);
#535=ORIENTED_EDGE('',*,*,#406,.T.);
#536=ORIENTED_EDGE('',*,*,#413,.T.);
#537=ORIENTED_EDGE('',*,*,#414,.F.);
#538=ORIENTED_EDGE('',*,*,#400,.T.);
#539=ORIENTED_EDGE('',*,*,#397,.T.);
#540=ORIENTED_EDGE('',*,*,#408,.T.);
#541=ORIENTED_EDGE('',*,*,#415,.T.);
#542=ORIENTED_EDGE('',*,*,#416,.T.);
#543=ORIENTED_EDGE('',*,*,#417,.T.);
#544=ORIENTED_EDGE('',*,*,#418,.T.);
#545=ORIENTED_EDGE('',*,*,#419,.F.);
#546=ORIENTED_EDGE('',*,*,#420,.F.);
#547=ORIENTED_EDGE('',*,*,#413,.F.);
#548=ORIENTED_EDGE('',*,*,#418,.F.);
#549=ORIENTED_EDGE('',*,*,#421,.T.);
#550=ORIENTED_EDGE('',*,*,#422,.F.);
#551=ORIENTED_EDGE('',*,*,#423,.T.);
#552=ORIENTED_EDGE('',*,*,#422,.T.);
#553=ORIENTED_EDGE('',*,*,#424,.T.);
#554=ORIENTED_EDGE('',*,*,#425,.T.);
#555=ORIENTED_EDGE('',*,*,#426,.T.);
#556=ORIENTED_EDGE('',*,*,#427,.T.);
#557=ORIENTED_EDGE('',*,*,#402,.F.);
#558=ORIENTED_EDGE('',*,*,#428,.F.);
#559=ORIENTED_EDGE('',*,*,#419,.T.);
#560=ORIENTED_EDGE('',*,*,#427,.F.);
#561=ORIENTED_EDGE('',*,*,#429,.T.);
#562=ORIENTED_EDGE('',*,*,#403,.F.);
#563=ORIENTED_EDGE('',*,*,#430,.T.);
#564=ORIENTED_EDGE('',*,*,#431,.T.);
#565=ORIENTED_EDGE('',*,*,#432,.T.);
#566=ORIENTED_EDGE('',*,*,#433,.T.);
#567=ORIENTED_EDGE('',*,*,#434,.T.);
#568=ORIENTED_EDGE('',*,*,#414,.T.);
#569=ORIENTED_EDGE('',*,*,#420,.T.);
#570=ORIENTED_EDGE('',*,*,#428,.T.);
#571=ORIENTED_EDGE('',*,*,#401,.T.);
#572=ORIENTED_EDGE('',*,*,#430,.F.);
#573=ORIENTED_EDGE('',*,*,#435,.T.);
#574=ORIENTED_EDGE('',*,*,#357,.T.);
#575=ORIENTED_EDGE('',*,*,#435,.F.);
#576=ORIENTED_EDGE('',*,*,#423,.F.);
#577=ORIENTED_EDGE('',*,*,#436,.T.);
#578=ORIENTED_EDGE('',*,*,#437,.T.);
#579=ORIENTED_EDGE('',*,*,#436,.F.);
#580=ORIENTED_EDGE('',*,*,#437,.F.);
#581=ORIENTED_EDGE('',*,*,#368,.T.);
#582=ORIENTED_EDGE('',*,*,#361,.T.);
#583=ORIENTED_EDGE('',*,*,#371,.T.);
#584=ORIENTED_EDGE('',*,*,#363,.T.);
#585=ORIENTED_EDGE('',*,*,#409,.F.);
#586=ORIENTED_EDGE('',*,*,#438,.T.);
#587=ORIENTED_EDGE('',*,*,#439,.T.);
#588=ORIENTED_EDGE('',*,*,#440,.T.);
#589=ORIENTED_EDGE('',*,*,#441,.T.);
#590=ORIENTED_EDGE('',*,*,#442,.F.);
#591=ORIENTED_EDGE('',*,*,#404,.F.);
#592=ORIENTED_EDGE('',*,*,#429,.F.);
#593=ORIENTED_EDGE('',*,*,#426,.F.);
#594=ORIENTED_EDGE('',*,*,#443,.F.);
#595=ORIENTED_EDGE('',*,*,#424,.F.);
#596=ORIENTED_EDGE('',*,*,#421,.F.);
#597=ORIENTED_EDGE('',*,*,#417,.F.);
#598=ORIENTED_EDGE('',*,*,#444,.F.);
#599=ORIENTED_EDGE('',*,*,#415,.F.);
#600=ORIENTED_EDGE('',*,*,#407,.F.);
#601=ORIENTED_EDGE('',*,*,#412,.F.);
#602=ORIENTED_EDGE('',*,*,#443,.T.);
#603=ORIENTED_EDGE('',*,*,#416,.F.);
#604=ORIENTED_EDGE('',*,*,#444,.T.);
#605=ORIENTED_EDGE('',*,*,#411,.F.);
#606=ORIENTED_EDGE('',*,*,#445,.T.);
#607=ORIENTED_EDGE('',*,*,#405,.F.);
#608=ORIENTED_EDGE('',*,*,#442,.T.);
#609=ORIENTED_EDGE('',*,*,#425,.F.);
#610=ORIENTED_EDGE('',*,*,#392,.T.);
#611=ORIENTED_EDGE('',*,*,#394,.T.);
#612=ORIENTED_EDGE('',*,*,#445,.F.);
#613=ORIENTED_EDGE('',*,*,#410,.F.);
#614=ORIENTED_EDGE('',*,*,#396,.F.);
#615=ORIENTED_EDGE('',*,*,#399,.F.);
#616=ORIENTED_EDGE('',*,*,#446,.F.);
#617=ORIENTED_EDGE('',*,*,#432,.F.);
#618=ORIENTED_EDGE('',*,*,#447,.F.);
#619=ORIENTED_EDGE('',*,*,#441,.F.);
#620=ORIENTED_EDGE('',*,*,#379,.T.);
#621=ORIENTED_EDGE('',*,*,#382,.T.);
#622=ORIENTED_EDGE('',*,*,#372,.T.);
#623=ORIENTED_EDGE('',*,*,#376,.T.);
#624=ORIENTED_EDGE('',*,*,#448,.F.);
#625=ORIENTED_EDGE('',*,*,#433,.F.);
#626=ORIENTED_EDGE('',*,*,#446,.T.);
#627=ORIENTED_EDGE('',*,*,#440,.F.);
#628=ORIENTED_EDGE('',*,*,#449,.F.);
#629=ORIENTED_EDGE('',*,*,#434,.F.);
#630=ORIENTED_EDGE('',*,*,#448,.T.);
#631=ORIENTED_EDGE('',*,*,#439,.F.);
#632=ORIENTED_EDGE('',*,*,#447,.T.);
#633=ORIENTED_EDGE('',*,*,#431,.F.);
#634=ORIENTED_EDGE('',*,*,#449,.T.);
#635=ORIENTED_EDGE('',*,*,#438,.F.);
#636=PLANE('',#710);
#637=PLANE('',#715);
#638=PLANE('',#721);
#639=PLANE('',#725);
#640=PLANE('',#726);
#641=PLANE('',#728);
#642=PLANE('',#729);
#643=PLANE('',#730);
#644=PLANE('',#731);
#645=PLANE('',#735);
#646=PLANE('',#739);
#647=PLANE('',#740);
#648=PLANE('',#742);
#649=PLANE('',#748);
#650=PLANE('',#750);
#651=PLANE('',#751);
#652=PLANE('',#754);
#653=PLANE('',#755);
#654=PLANE('',#756);
#655=PLANE('',#759);
#656=PLANE('',#760);
#657=PLANE('',#763);
#658=PLANE('',#767);
#659=PLANE('',#769);
#660=PLANE('',#776);
#661=PLANE('',#779);
#662=PLANE('',#780);
#663=PLANE('',#781);
#664=PLANE('',#782);
#665=ADVANCED_FACE('',(#167),#636,.T.);
#666=ADVANCED_FACE('',(#168),#153,.F.);
#667=ADVANCED_FACE('',(#169),#637,.T.);
#668=ADVANCED_FACE('',(#170),#154,.F.);
#669=ADVANCED_FACE('',(#171),#638,.T.);
#670=ADVANCED_FACE('',(#172),#155,.F.);
#671=ADVANCED_FACE('',(#173),#639,.T.);
#672=ADVANCED_FACE('',(#174),#640,.T.);
#673=ADVANCED_FACE('',(#175),#641,.F.);
#674=ADVANCED_FACE('',(#176),#642,.F.);
#675=ADVANCED_FACE('',(#177),#643,.F.);
#676=ADVANCED_FACE('',(#178),#644,.F.);
#677=ADVANCED_FACE('',(#179),#156,.F.);
#678=ADVANCED_FACE('',(#180),#645,.T.);
#679=ADVANCED_FACE('',(#181),#157,.F.);
#680=ADVANCED_FACE('',(#182),#646,.T.);
#681=ADVANCED_FACE('',(#183,#15),#647,.F.);
#682=ADVANCED_FACE('',(#184,#16),#648,.F.);
#683=ADVANCED_FACE('',(#185),#158,.T.);
#684=ADVANCED_FACE('',(#186),#159,.T.);
#685=ADVANCED_FACE('',(#187,#17),#649,.T.);
#686=ADVANCED_FACE('',(#188,#18),#650,.T.);
#687=ADVANCED_FACE('',(#189,#19),#651,.T.);
#688=ADVANCED_FACE('',(#190),#652,.T.);
#689=ADVANCED_FACE('',(#191),#653,.T.);
#690=ADVANCED_FACE('',(#192,#20),#654,.T.);
#691=ADVANCED_FACE('',(#193),#655,.T.);
#692=ADVANCED_FACE('',(#194,#21),#656,.T.);
#693=ADVANCED_FACE('',(#195,#22),#657,.T.);
#694=ADVANCED_FACE('',(#196),#160,.F.);
#695=ADVANCED_FACE('',(#197),#161,.F.);
#696=ADVANCED_FACE('',(#198,#23),#658,.T.);
#697=ADVANCED_FACE('',(#199),#162,.F.);
#698=ADVANCED_FACE('',(#200),#659,.T.);
#699=ADVANCED_FACE('',(#201),#163,.T.);
#700=ADVANCED_FACE('',(#202),#164,.T.);
#701=ADVANCED_FACE('',(#203),#165,.T.);
#702=ADVANCED_FACE('',(#204,#24,#25),#660,.T.);
#703=ADVANCED_FACE('',(#205),#166,.T.);
#704=ADVANCED_FACE('',(#206,#26),#661,.T.);
#705=ADVANCED_FACE('',(#207),#662,.T.);
#706=ADVANCED_FACE('',(#208),#663,.T.);
#707=ADVANCED_FACE('',(#209),#664,.T.);
#708=CLOSED_SHELL('',(#665,#666,#667,#668,#669,#670,#671,#672,#673,#674,
#675,#676,#677,#678,#679,#680,#681,#682,#683,#684,#685,#686,#687,#688,#689,
#690,#691,#692,#693,#694,#695,#696,#697,#698,#699,#700,#701,#702,#703,#704,
#705,#706,#707));
#709=AXIS2_PLACEMENT_3D('',#994,#783,#784);
#710=AXIS2_PLACEMENT_3D('',#995,#785,#786);
#711=AXIS2_PLACEMENT_3D('',#997,#787,#788);
#712=AXIS2_PLACEMENT_3D('',#998,#789,#790);
#713=AXIS2_PLACEMENT_3D('',#1000,#791,#792);
#714=AXIS2_PLACEMENT_3D('',#1003,#794,#795);
#715=AXIS2_PLACEMENT_3D('',#1004,#796,#797);
#716=AXIS2_PLACEMENT_3D('',#1005,#798,#799);
#717=AXIS2_PLACEMENT_3D('',#1010,#801,#802);
#718=AXIS2_PLACEMENT_3D('',#1014,#804,#805);
#719=AXIS2_PLACEMENT_3D('',#1017,#807,#808);
#720=AXIS2_PLACEMENT_3D('',#1018,#809,#810);
#721=AXIS2_PLACEMENT_3D('',#1019,#811,#812);
#722=AXIS2_PLACEMENT_3D('',#1020,#813,#814);
#723=AXIS2_PLACEMENT_3D('',#1022,#815,#816);
#724=AXIS2_PLACEMENT_3D('',#1025,#818,#819);
#725=AXIS2_PLACEMENT_3D('',#1026,#820,#821);
#726=AXIS2_PLACEMENT_3D('',#1027,#822,#823);
#727=AXIS2_PLACEMENT_3D('',#1028,#824,#825);
#728=AXIS2_PLACEMENT_3D('',#1029,#826,#827);
#729=AXIS2_PLACEMENT_3D('',#1038,#832,#833);
#730=AXIS2_PLACEMENT_3D('',#1044,#837,#838);
#731=AXIS2_PLACEMENT_3D('',#1050,#842,#843);
#732=AXIS2_PLACEMENT_3D('',#1053,#846,#847);
#733=AXIS2_PLACEMENT_3D('',#1055,#848,#849);
#734=AXIS2_PLACEMENT_3D('',#1058,#851,#852);
#735=AXIS2_PLACEMENT_3D('',#1059,#853,#854);
#736=AXIS2_PLACEMENT_3D('',#1060,#855,#856);
#737=AXIS2_PLACEMENT_3D('',#1062,#857,#858);
#738=AXIS2_PLACEMENT_3D('',#1065,#860,#861);
#739=AXIS2_PLACEMENT_3D('',#1066,#862,#863);
#740=AXIS2_PLACEMENT_3D('',#1067,#864,#865);
#741=AXIS2_PLACEMENT_3D('',#1069,#866,#867);
#742=AXIS2_PLACEMENT_3D('',#1070,#868,#869);
#743=AXIS2_PLACEMENT_3D('',#1072,#870,#871);
#744=AXIS2_PLACEMENT_3D('',#1073,#872,#873);
#745=AXIS2_PLACEMENT_3D('',#1075,#874,#875);
#746=AXIS2_PLACEMENT_3D('',#1077,#877,#878);
#747=AXIS2_PLACEMENT_3D('',#1079,#879,#880);
#748=AXIS2_PLACEMENT_3D('',#1081,#882,#883);
#749=AXIS2_PLACEMENT_3D('',#1084,#884,#885);
#750=AXIS2_PLACEMENT_3D('',#1088,#888,#889);
#751=AXIS2_PLACEMENT_3D('',#1102,#897,#898);
#752=AXIS2_PLACEMENT_3D('',#1107,#900,#901);
#753=AXIS2_PLACEMENT_3D('',#1109,#903,#904);
#754=AXIS2_PLACEMENT_3D('',#1110,#905,#906);
#755=AXIS2_PLACEMENT_3D('',#1119,#912,#913);
#756=AXIS2_PLACEMENT_3D('',#1131,#920,#921);
#757=AXIS2_PLACEMENT_3D('',#1133,#922,#923);
#758=AXIS2_PLACEMENT_3D('',#1136,#925,#926);
#759=AXIS2_PLACEMENT_3D('',#1137,#927,#928);
#760=AXIS2_PLACEMENT_3D('',#1146,#934,#935);
#761=AXIS2_PLACEMENT_3D('',#1147,#936,#937);
#762=AXIS2_PLACEMENT_3D('',#1149,#938,#939);
#763=AXIS2_PLACEMENT_3D('',#1150,#940,#941);
#764=AXIS2_PLACEMENT_3D('',#1159,#946,#947);
#765=AXIS2_PLACEMENT_3D('',#1161,#949,#950);
#766=AXIS2_PLACEMENT_3D('',#1164,#952,#953);
#767=AXIS2_PLACEMENT_3D('',#1165,#954,#955);
#768=AXIS2_PLACEMENT_3D('',#1166,#956,#957);
#769=AXIS2_PLACEMENT_3D('',#1167,#958,#959);
#770=AXIS2_PLACEMENT_3D('',#1176,#964,#965);
#771=AXIS2_PLACEMENT_3D('',#1177,#966,#967);
#772=AXIS2_PLACEMENT_3D('',#1178,#968,#969);
#773=AXIS2_PLACEMENT_3D('',#1179,#970,#971);
#774=AXIS2_PLACEMENT_3D('',#1180,#972,#973);
#775=AXIS2_PLACEMENT_3D('',#1181,#974,#975);
#776=AXIS2_PLACEMENT_3D('',#1182,#976,#977);
#777=AXIS2_PLACEMENT_3D('',#1183,#978,#979);
#778=AXIS2_PLACEMENT_3D('',#1184,#980,#981);
#779=AXIS2_PLACEMENT_3D('',#1185,#982,#983);
#780=AXIS2_PLACEMENT_3D('',#1188,#986,#987);
#781=AXIS2_PLACEMENT_3D('',#1190,#989,#990);
#782=AXIS2_PLACEMENT_3D('',#1192,#992,#993);
#783=DIRECTION('axis',(0.,0.,1.));
#784=DIRECTION('refdir',(1.,0.,0.));
#785=DIRECTION('center_axis',(0.,0.,1.));
#786=DIRECTION('ref_axis',(-1.,0.,0.));
#787=DIRECTION('center_axis',(0.,0.,-1.));
#788=DIRECTION('ref_axis',(-1.,0.,0.));
#789=DIRECTION('center_axis',(0.,0.,-1.));
#790=DIRECTION('ref_axis',(-1.,0.,0.));
#791=DIRECTION('center_axis',(0.,0.,-1.));
#792=DIRECTION('ref_axis',(-1.,0.,0.));
#793=DIRECTION('',(0.,0.,-1.));
#794=DIRECTION('center_axis',(0.,0.,-1.));
#795=DIRECTION('ref_axis',(-1.,0.,0.));
#796=DIRECTION('center_axis',(0.,0.,1.));
#797=DIRECTION('ref_axis',(-1.,0.,0.));
#798=DIRECTION('center_axis',(0.,0.,-1.));
#799=DIRECTION('ref_axis',(-1.,0.,0.));
#800=DIRECTION('',(0.,0.,-1.));
#801=DIRECTION('center_axis',(0.,0.,-1.));
#802=DIRECTION('ref_axis',(-1.,0.,0.));
#803=DIRECTION('',(0.,0.,1.));
#804=DIRECTION('center_axis',(0.,0.,-1.));
#805=DIRECTION('ref_axis',(-1.,0.,0.));
#806=DIRECTION('',(0.,0.,-1.));
#807=DIRECTION('center_axis',(0.,0.,-1.));
#808=DIRECTION('ref_axis',(-1.,0.,0.));
#809=DIRECTION('center_axis',(0.,0.,-1.));
#810=DIRECTION('ref_axis',(-1.,0.,0.));
#811=DIRECTION('center_axis',(0.,0.,1.));
#812=DIRECTION('ref_axis',(-1.,0.,0.));
#813=DIRECTION('center_axis',(0.,0.,-1.));
#814=DIRECTION('ref_axis',(-1.,0.,0.));
#815=DIRECTION('center_axis',(0.,0.,-1.));
#816=DIRECTION('ref_axis',(-1.,0.,0.));
#817=DIRECTION('',(0.,0.,-1.));
#818=DIRECTION('center_axis',(0.,0.,-1.));
#819=DIRECTION('ref_axis',(-1.,0.,0.));
#820=DIRECTION('center_axis',(0.,0.,1.));
#821=DIRECTION('ref_axis',(-1.,0.,0.));
#822=DIRECTION('center_axis',(0.,0.,1.));
#823=DIRECTION('ref_axis',(-1.,0.,0.));
#824=DIRECTION('center_axis',(0.,0.,-1.));
#825=DIRECTION('ref_axis',(-1.,0.,0.));
#826=DIRECTION('center_axis',(0.,0.,1.));
#827=DIRECTION('ref_axis',(1.,0.,0.));
#828=DIRECTION('',(-1.,0.,0.));
#829=DIRECTION('',(0.,1.,0.));
#830=DIRECTION('',(1.,0.,0.));
#831=DIRECTION('',(0.,1.,0.));
#832=DIRECTION('center_axis',(-1.,0.,0.));
#833=DIRECTION('ref_axis',(0.,0.,1.));
#834=DIRECTION('',(0.,0.,-1.));
#835=DIRECTION('',(0.,0.,1.));
#836=DIRECTION('',(0.,1.,0.));
#837=DIRECTION('center_axis',(0.,0.,-1.));
#838=DIRECTION('ref_axis',(-1.,0.,0.));
#839=DIRECTION('',(1.,0.,0.));
#840=DIRECTION('',(-1.,0.,0.));
#841=DIRECTION('',(0.,1.,0.));
#842=DIRECTION('center_axis',(1.,0.,0.));
#843=DIRECTION('ref_axis',(0.,0.,-1.));
#844=DIRECTION('',(0.,0.,1.));
#845=DIRECTION('',(0.,0.,-1.));
#846=DIRECTION('center_axis',(0.,0.,-1.));
#847=DIRECTION('ref_axis',(-1.,0.,0.));
#848=DIRECTION('center_axis',(0.,0.,-1.));
#849=DIRECTION('ref_axis',(-1.,0.,0.));
#850=DIRECTION('',(0.,0.,-1.));
#851=DIRECTION('center_axis',(0.,0.,-1.));
#852=DIRECTION('ref_axis',(-1.,0.,0.));
#853=DIRECTION('center_axis',(0.,0.,1.));
#854=DIRECTION('ref_axis',(-1.,0.,0.));
#855=DIRECTION('center_axis',(0.,0.,-1.));
#856=DIRECTION('ref_axis',(-1.,0.,0.));
#857=DIRECTION('center_axis',(0.,0.,-1.));
#858=DIRECTION('ref_axis',(-1.,0.,0.));
#859=DIRECTION('',(0.,0.,-1.));
#860=DIRECTION('center_axis',(0.,0.,-1.));
#861=DIRECTION('ref_axis',(-1.,0.,0.));
#862=DIRECTION('center_axis',(0.,0.,1.));
#863=DIRECTION('ref_axis',(-1.,0.,0.));
#864=DIRECTION('center_axis',(0.,0.,-1.));
#865=DIRECTION('ref_axis',(1.,0.,0.));
#866=DIRECTION('center_axis',(0.,0.,1.));
#867=DIRECTION('ref_axis',(1.,0.,0.));
#868=DIRECTION('center_axis',(0.,0.,-1.));
#869=DIRECTION('ref_axis',(1.,0.,0.));
#870=DIRECTION('center_axis',(0.,0.,1.));
#871=DIRECTION('ref_axis',(1.,0.,0.));
#872=DIRECTION('center_axis',(0.,0.,-1.));
#873=DIRECTION('ref_axis',(1.,0.,0.));
#874=DIRECTION('center_axis',(0.,0.,-1.));
#875=DIRECTION('ref_axis',(1.,0.,0.));
#876=DIRECTION('',(0.,0.,1.));
#877=DIRECTION('center_axis',(0.,0.,-1.));
#878=DIRECTION('ref_axis',(1.,0.,0.));
#879=DIRECTION('center_axis',(0.,0.,-1.));
#880=DIRECTION('ref_axis',(1.,0.,0.));
#881=DIRECTION('',(0.,0.,1.));
#882=DIRECTION('center_axis',(0.,0.,1.));
#883=DIRECTION('ref_axis',(-1.,0.,0.));
#884=DIRECTION('center_axis',(0.,0.,1.));
#885=DIRECTION('ref_axis',(-1.,0.,0.));
#886=DIRECTION('',(0.,-1.,0.));
#887=DIRECTION('',(1.,0.,0.));
#888=DIRECTION('center_axis',(0.,-1.,0.));
#889=DIRECTION('ref_axis',(1.,0.,0.));
#890=DIRECTION('',(0.,0.,1.));
#891=DIRECTION('',(0.,0.,-1.));
#892=DIRECTION('',(1.,0.,0.));
#893=DIRECTION('',(0.,0.,-1.));
#894=DIRECTION('',(1.,0.,0.));
#895=DIRECTION('',(0.,0.,-1.));
#896=DIRECTION('',(1.,0.,0.));
#897=DIRECTION('center_axis',(0.,0.,1.));
#898=DIRECTION('ref_axis',(-1.,0.,0.));
#899=DIRECTION('',(0.,-1.,0.));
#900=DIRECTION('center_axis',(0.,0.,1.));
#901=DIRECTION('ref_axis',(-1.,0.,0.));
#902=DIRECTION('',(-1.,0.,0.));
#903=DIRECTION('center_axis',(0.,0.,-1.));
#904=DIRECTION('ref_axis',(-1.,0.,0.));
#905=DIRECTION('center_axis',(-1.,0.,0.));
#906=DIRECTION('ref_axis',(0.,-1.,0.));
#907=DIRECTION('',(0.,0.,-1.));
#908=DIRECTION('',(0.,-1.,0.));
#909=DIRECTION('',(0.,0.,1.));
#910=DIRECTION('',(0.,0.,1.));
#911=DIRECTION('',(0.,-1.,0.));
#912=DIRECTION('center_axis',(0.,1.,0.));
#913=DIRECTION('ref_axis',(-1.,0.,0.));
#914=DIRECTION('',(0.,0.,-1.));
#915=DIRECTION('',(-1.,0.,0.));
#916=DIRECTION('',(0.,0.,1.));
#917=DIRECTION('',(-1.,0.,0.));
#918=DIRECTION('',(0.,0.,-1.));
#919=DIRECTION('',(-1.,0.,0.));
#920=DIRECTION('center_axis',(0.,0.,1.));
#921=DIRECTION('ref_axis',(-1.,0.,0.));
#922=DIRECTION('center_axis',(0.,0.,1.));
#923=DIRECTION('ref_axis',(-1.,0.,0.));
#924=DIRECTION('',(0.,1.,0.));
#925=DIRECTION('center_axis',(0.,0.,-1.));
#926=DIRECTION('ref_axis',(-1.,0.,0.));
#927=DIRECTION('center_axis',(1.,0.,0.));
#928=DIRECTION('ref_axis',(0.,1.,0.));
#929=DIRECTION('',(0.,0.,-1.));
#930=DIRECTION('',(0.,1.,0.));
#931=DIRECTION('',(0.,0.,1.));
#932=DIRECTION('',(0.,1.,0.));
#933=DIRECTION('',(0.,1.,0.));
#934=DIRECTION('center_axis',(0.,0.,1.));
#935=DIRECTION('ref_axis',(-1.,0.,0.));
#936=DIRECTION('center_axis',(0.,0.,1.));
#937=DIRECTION('ref_axis',(-1.,0.,0.));
#938=DIRECTION('center_axis',(0.,0.,-1.));
#939=DIRECTION('ref_axis',(-1.,0.,0.));
#940=DIRECTION('center_axis',(0.,0.,1.));
#941=DIRECTION('ref_axis',(1.,0.,0.));
#942=DIRECTION('',(0.,1.,0.));
#943=DIRECTION('',(-1.,0.,0.));
#944=DIRECTION('',(0.,-1.,0.));
#945=DIRECTION('',(1.,0.,0.));
#946=DIRECTION('center_axis',(0.,0.,-1.));
#947=DIRECTION('ref_axis',(-1.,0.,0.));
#948=DIRECTION('',(0.,0.,-1.));
#949=DIRECTION('center_axis',(0.,0.,-1.));
#950=DIRECTION('ref_axis',(-1.,0.,0.));
#951=DIRECTION('',(0.,0.,-1.));
#952=DIRECTION('center_axis',(0.,0.,-1.));
#953=DIRECTION('ref_axis',(-1.,0.,0.));
#954=DIRECTION('center_axis',(0.,0.,1.));
#955=DIRECTION('ref_axis',(-1.,0.,0.));
#956=DIRECTION('center_axis',(0.,0.,-1.));
#957=DIRECTION('ref_axis',(0.999999926222878,-0.000384127894259049,0.));
#958=DIRECTION('center_axis',(0.,0.,-1.));
#959=DIRECTION('ref_axis',(-1.,0.,0.));
#960=DIRECTION('',(0.,-1.,0.));
#961=DIRECTION('',(-1.,0.,0.));
#962=DIRECTION('',(0.,1.,0.));
#963=DIRECTION('',(1.,0.,0.));
#964=DIRECTION('center_axis',(0.,0.,1.));
#965=DIRECTION('ref_axis',(-1.,0.,0.));
#966=DIRECTION('center_axis',(0.,0.,-1.));
#967=DIRECTION('ref_axis',(-1.,0.,0.));
#968=DIRECTION('center_axis',(0.,0.,1.));
#969=DIRECTION('ref_axis',(-1.,0.,0.));
#970=DIRECTION('center_axis',(0.,0.,-1.));
#971=DIRECTION('ref_axis',(-1.,0.,0.));
#972=DIRECTION('center_axis',(0.,0.,1.));
#973=DIRECTION('ref_axis',(-1.,0.,0.));
#974=DIRECTION('center_axis',(0.,0.,-1.));
#975=DIRECTION('ref_axis',(-1.,0.,0.));
#976=DIRECTION('center_axis',(0.,0.,1.));
#977=DIRECTION('ref_axis',(0.,1.,0.));
#978=DIRECTION('center_axis',(0.,0.,-1.));
#979=DIRECTION('ref_axis',(-1.,0.,0.));
#980=DIRECTION('center_axis',(0.,0.,1.));
#981=DIRECTION('ref_axis',(-1.,0.,0.));
#982=DIRECTION('center_axis',(0.,1.,0.));
#983=DIRECTION('ref_axis',(-1.,0.,0.));
#984=DIRECTION('',(0.,0.,-1.));
#985=DIRECTION('',(0.,0.,1.));
#986=DIRECTION('center_axis',(-1.,0.,0.));
#987=DIRECTION('ref_axis',(0.,-1.,0.));
#988=DIRECTION('',(0.,0.,-1.));
#989=DIRECTION('center_axis',(0.,-1.,0.));
#990=DIRECTION('ref_axis',(1.,0.,0.));
#991=DIRECTION('',(0.,0.,-1.));
#992=DIRECTION('center_axis',(1.,0.,0.));
#993=DIRECTION('ref_axis',(0.,1.,0.));
#994=CARTESIAN_POINT('',(0.,0.,0.));
#995=CARTESIAN_POINT('Origin',(95.5000014230609,-57.590516347258,-1.5));
#996=CARTESIAN_POINT('',(97.6500014230609,-57.590516347258,-1.5));
#997=CARTESIAN_POINT('Origin',(95.5000014230609,-57.590516347258,-1.5));
#998=CARTESIAN_POINT('Origin',(191.050009074388,-57.597293467402,11.));
#999=CARTESIAN_POINT('',(193.215604764642,-57.597293467402,11.));
#1000=CARTESIAN_POINT('Origin',(191.050009074388,-57.597293467402,11.));
#1001=CARTESIAN_POINT('',(193.215604764642,-57.597293467402,-1.5));
#1002=CARTESIAN_POINT('',(193.215604764642,-57.597293467402,11.));
#1003=CARTESIAN_POINT('Origin',(191.050009074388,-57.597293467402,-1.5));
#1004=CARTESIAN_POINT('Origin',(191.050009074388,-57.597293467402,-1.5));
#1005=CARTESIAN_POINT('Origin',(191.0499957297,-122.999997250736,11.));
#1006=CARTESIAN_POINT('',(191.475922555068,-120.890237517415,11.));
#1007=CARTESIAN_POINT('',(191.475922555068,-120.890237517415,2.80000000000001));
#1008=CARTESIAN_POINT('',(191.475922555068,-120.890237517415,11.));
#1009=CARTESIAN_POINT('',(191.474301594365,-125.110083582174,11.));
#1010=CARTESIAN_POINT('Origin',(191.0499957297,-122.999997250736,11.));
#1011=CARTESIAN_POINT('',(191.474301594365,-125.110083582174,2.80000000000001));
#1012=CARTESIAN_POINT('',(191.474301594365,-125.110083582174,11.));
#1013=CARTESIAN_POINT('',(193.202320006595,-122.999997250736,2.8));
#1014=CARTESIAN_POINT('Origin',(191.0499957297,-122.999997250736,2.8));
#1015=CARTESIAN_POINT('',(193.202320006595,-122.999997250736,-1.5));
#1016=CARTESIAN_POINT('',(193.202320006595,-122.999997250736,11.));
#1017=CARTESIAN_POINT('Origin',(191.0499957297,-122.999997250736,-1.5));
#1018=CARTESIAN_POINT('Origin',(191.0499957297,-122.999997250736,2.8));
#1019=CARTESIAN_POINT('Origin',(191.0499957297,-122.999997250736,-1.5));
#1020=CARTESIAN_POINT('Origin',(95.5000014230609,-123.000001832843,11.));
#1021=CARTESIAN_POINT('',(97.6482378706811,-123.000001832843,2.8));
#1022=CARTESIAN_POINT('Origin',(95.5000014230609,-123.000001832843,2.8));
#1023=CARTESIAN_POINT('',(97.6482378706811,-123.000001832843,-1.5));
#1024=CARTESIAN_POINT('',(97.6482378706811,-123.000001832843,11.));
#1025=CARTESIAN_POINT('Origin',(95.5000014230609,-123.000001832843,-1.5));
#1026=CARTESIAN_POINT('Origin',(95.5000014230609,-123.000001832843,-1.5));
#1027=CARTESIAN_POINT('Origin',(191.061924326393,-123.000001832843,2.8));
#1028=CARTESIAN_POINT('Origin',(191.061924326393,-123.000001832843,2.8));
#1029=CARTESIAN_POINT('Origin',(108.000001609325,-55.,10.5000001564622));
#1030=CARTESIAN_POINT('',(122.000001817942,-53.,10.5000001564622));
#1031=CARTESIAN_POINT('',(108.000001609325,-53.,10.5000001564622));
#1032=CARTESIAN_POINT('',(151.750000804663,-53.,10.5000001564622));
#1033=CARTESIAN_POINT('',(122.000001817942,-55.,10.5000001564622));
#1034=CARTESIAN_POINT('',(122.000001817942,-55.,10.5000001564622));
#1035=CARTESIAN_POINT('',(108.000001609325,-55.,10.5000001564622));
#1036=CARTESIAN_POINT('',(100.500000804663,-55.,10.5000001564622));
#1037=CARTESIAN_POINT('',(108.000001609325,-55.,10.5000001564622));
#1038=CARTESIAN_POINT('Origin',(108.000001609325,-55.,5.00000007450581));
#1039=CARTESIAN_POINT('',(108.000001609325,-53.,5.00000007450581));
#1040=CARTESIAN_POINT('',(108.000001609325,-53.,2.5000000372529));
#1041=CARTESIAN_POINT('',(108.000001609325,-55.,5.00000007450581));
#1042=CARTESIAN_POINT('',(108.000001609325,-55.,2.5000000372529));
#1043=CARTESIAN_POINT('',(108.000001609325,-55.,5.00000007450581));
#1044=CARTESIAN_POINT('Origin',(122.000001817942,-55.,5.00000007450581));
#1045=CARTESIAN_POINT('',(122.000001817942,-53.,5.00000007450581));
#1046=CARTESIAN_POINT('',(158.750000908971,-53.,5.00000007450581));
#1047=CARTESIAN_POINT('',(122.000001817942,-55.,5.00000007450581));
#1048=CARTESIAN_POINT('',(107.500000908971,-55.,5.00000007450581));
#1049=CARTESIAN_POINT('',(122.000001817942,-55.,5.00000007450581));
#1050=CARTESIAN_POINT('Origin',(122.000001817942,-55.,10.5000001564622));
#1051=CARTESIAN_POINT('',(122.000001817942,-53.,5.2500000782311));
#1052=CARTESIAN_POINT('',(122.000001817942,-55.,5.2500000782311));
#1053=CARTESIAN_POINT('Origin',(179.,-88.,4.));
#1054=CARTESIAN_POINT('',(181.1,-88.,4.));
#1055=CARTESIAN_POINT('Origin',(179.,-88.,4.));
#1056=CARTESIAN_POINT('',(181.1,-88.,-1.5));
#1057=CARTESIAN_POINT('',(181.1,-88.,4.));
#1058=CARTESIAN_POINT('Origin',(179.,-88.,-1.5));
#1059=CARTESIAN_POINT('Origin',(179.,-88.,-1.5));
#1060=CARTESIAN_POINT('Origin',(101.000001505017,-89.0000013262033,4.));
#1061=CARTESIAN_POINT('',(103.100001505017,-89.0000013262033,4.));
#1062=CARTESIAN_POINT('Origin',(101.000001505017,-89.0000013262033,4.));
#1063=CARTESIAN_POINT('',(103.100001505017,-89.0000013262033,-1.5));
#1064=CARTESIAN_POINT('',(103.100001505017,-89.0000013262033,4.));
#1065=CARTESIAN_POINT('Origin',(101.000001505017,-89.0000013262033,-1.5));
#1066=CARTESIAN_POINT('Origin',(101.000001505017,-89.0000013262033,-1.5));
#1067=CARTESIAN_POINT('Origin',(179.,-88.,4.));
#1068=CARTESIAN_POINT('',(176.,-88.,4.));
#1069=CARTESIAN_POINT('Origin',(179.,-88.,4.));
#1070=CARTESIAN_POINT('Origin',(101.,-89.,4.));
#1071=CARTESIAN_POINT('',(98.,-89.,4.));
#1072=CARTESIAN_POINT('Origin',(101.,-89.,4.));
#1073=CARTESIAN_POINT('Origin',(179.,-88.,0.));
#1074=CARTESIAN_POINT('',(176.,-88.,-2.));
#1075=CARTESIAN_POINT('Origin',(179.,-88.,-2.));
#1076=CARTESIAN_POINT('',(176.,-88.,0.));
#1077=CARTESIAN_POINT('Origin',(101.,-89.,0.));
#1078=CARTESIAN_POINT('',(98.,-89.,-2.));
#1079=CARTESIAN_POINT('Origin',(101.,-89.,-2.));
#1080=CARTESIAN_POINT('',(98.,-89.,0.));
#1081=CARTESIAN_POINT('Origin',(190.6715,-57.8285,11.));
#1082=CARTESIAN_POINT('',(186.943,-55.,11.));
#1083=CARTESIAN_POINT('',(193.5,-61.557,11.));
#1084=CARTESIAN_POINT('Origin',(193.5,-55.,11.));
#1085=CARTESIAN_POINT('',(193.5,-55.,11.));
#1086=CARTESIAN_POINT('',(193.5,-56.41425,11.));
#1087=CARTESIAN_POINT('',(141.83575,-55.,11.));
#1088=CARTESIAN_POINT('Origin',(93.,-55.,0.));
#1089=CARTESIAN_POINT('',(186.943,-55.,-2.));
#1090=CARTESIAN_POINT('',(186.943,-55.,-2.));
#1091=CARTESIAN_POINT('',(193.5,-55.,12.));
#1092=CARTESIAN_POINT('',(193.5,-55.,0.));
#1093=CARTESIAN_POINT('',(93.,-55.,12.));
#1094=CARTESIAN_POINT('',(93.,-55.,12.));
#1095=CARTESIAN_POINT('',(93.,-55.,11.));
#1096=CARTESIAN_POINT('',(93.,-55.,0.));
#1097=CARTESIAN_POINT('',(99.5568558932195,-55.,11.));
#1098=CARTESIAN_POINT('',(94.4142139733049,-55.,11.));
#1099=CARTESIAN_POINT('',(99.5568558932195,-55.,-2.));
#1100=CARTESIAN_POINT('',(99.5568558932195,-55.,-2.));
#1101=CARTESIAN_POINT('',(143.25,-55.,-2.));
#1102=CARTESIAN_POINT('Origin',(190.6715,-122.6715,11.));
#1103=CARTESIAN_POINT('',(193.5,-118.943,11.));
#1104=CARTESIAN_POINT('',(193.5,-125.5,11.));
#1105=CARTESIAN_POINT('',(193.5,-88.83575,11.));
#1106=CARTESIAN_POINT('',(186.943,-125.5,11.));
#1107=CARTESIAN_POINT('Origin',(193.5,-125.5,11.));
#1108=CARTESIAN_POINT('',(192.08575,-125.5,11.));
#1109=CARTESIAN_POINT('Origin',(191.061924326393,-123.000001832843,11.));
#1110=CARTESIAN_POINT('Origin',(193.5,-55.,0.));
#1111=CARTESIAN_POINT('',(193.5,-61.557,-2.));
#1112=CARTESIAN_POINT('',(193.5,-61.557,-2.));
#1113=CARTESIAN_POINT('',(193.5,-118.943,-2.));
#1114=CARTESIAN_POINT('',(193.5,-90.25,-2.));
#1115=CARTESIAN_POINT('',(193.5,-118.943,-2.));
#1116=CARTESIAN_POINT('',(193.5,-125.5,12.));
#1117=CARTESIAN_POINT('',(193.5,-125.5,0.));
#1118=CARTESIAN_POINT('',(193.5,-55.,12.));
#1119=CARTESIAN_POINT('Origin',(193.5,-125.5,0.));
#1120=CARTESIAN_POINT('',(186.943,-125.5,-2.));
#1121=CARTESIAN_POINT('',(186.943,-125.5,-2.));
#1122=CARTESIAN_POINT('',(99.557,-125.5,-2.));
#1123=CARTESIAN_POINT('',(193.5,-125.5,-2.));
#1124=CARTESIAN_POINT('',(99.557,-125.5,11.));
#1125=CARTESIAN_POINT('',(99.557,-125.5,-2.));
#1126=CARTESIAN_POINT('',(93.,-125.5,11.));
#1127=CARTESIAN_POINT('',(144.66425,-125.5,11.));
#1128=CARTESIAN_POINT('',(93.,-125.5,12.));
#1129=CARTESIAN_POINT('',(93.,-125.5,0.));
#1130=CARTESIAN_POINT('',(193.5,-125.5,12.));
#1131=CARTESIAN_POINT('Origin',(95.8285,-122.6715,11.));
#1132=CARTESIAN_POINT('',(93.,-118.943,11.));
#1133=CARTESIAN_POINT('Origin',(93.,-125.5,11.));
#1134=CARTESIAN_POINT('',(93.,-124.08575,11.));
#1135=CARTESIAN_POINT('',(97.6500014230609,-123.000001832843,11.));
#1136=CARTESIAN_POINT('Origin',(95.5000014230609,-123.000001832843,11.));
#1137=CARTESIAN_POINT('Origin',(93.,-125.5,0.));
#1138=CARTESIAN_POINT('',(93.,-118.943,-2.));
#1139=CARTESIAN_POINT('',(93.,-118.943,-2.));
#1140=CARTESIAN_POINT('',(93.,-61.5568558932195,-2.));
#1141=CARTESIAN_POINT('',(93.,-125.5,-2.));
#1142=CARTESIAN_POINT('',(93.,-61.5568558932195,11.));
#1143=CARTESIAN_POINT('',(93.,-61.5568558932195,-2.));
#1144=CARTESIAN_POINT('',(93.,-91.6642139733049,11.));
#1145=CARTESIAN_POINT('',(93.,-125.5,12.));
#1146=CARTESIAN_POINT('Origin',(95.8284279466098,-57.8284279466097,11.));
#1147=CARTESIAN_POINT('Origin',(93.,-55.,11.));
#1148=CARTESIAN_POINT('',(97.6500014230609,-57.590516347258,11.));
#1149=CARTESIAN_POINT('Origin',(95.5000014230609,-57.590516347258,11.));
#1150=CARTESIAN_POINT('Origin',(143.25,-90.25,12.));
#1151=CARTESIAN_POINT('',(195.5,-127.5,12.));
#1152=CARTESIAN_POINT('',(195.5,-53.,12.));
#1153=CARTESIAN_POINT('',(195.5,-53.,12.));
#1154=CARTESIAN_POINT('',(91.,-53.,12.));
#1155=CARTESIAN_POINT('',(91.,-53.,12.));
#1156=CARTESIAN_POINT('',(91.,-127.5,12.));
#1157=CARTESIAN_POINT('',(91.,-127.5,12.));
#1158=CARTESIAN_POINT('',(195.5,-127.5,12.));
#1159=CARTESIAN_POINT('Origin',(95.5000014230609,-57.590516347258,7.));
#1160=CARTESIAN_POINT('',(97.6500014230609,-57.590516347258,7.));
#1161=CARTESIAN_POINT('Origin',(95.5000014230609,-123.000001832843,7.));
#1162=CARTESIAN_POINT('',(97.6500014230609,-123.000001832843,2.8));
#1163=CARTESIAN_POINT('',(97.6500014230609,-123.000001832843,7.));
#1164=CARTESIAN_POINT('Origin',(95.5000014230609,-123.000001832843,2.8));
#1165=CARTESIAN_POINT('Origin',(95.5000014230609,-123.000001832843,2.8));
#1166=CARTESIAN_POINT('Origin',(191.061924326393,-123.000001832843,7.));
#1167=CARTESIAN_POINT('Origin',(143.25,-90.25,-4.));
#1168=CARTESIAN_POINT('',(195.5,-53.,-4.));
#1169=CARTESIAN_POINT('',(195.5,-127.5,-4.));
#1170=CARTESIAN_POINT('',(195.5,-53.,-4.));
#1171=CARTESIAN_POINT('',(91.,-127.5,-4.));
#1172=CARTESIAN_POINT('',(195.5,-127.5,-4.));
#1173=CARTESIAN_POINT('',(91.,-53.,-4.));
#1174=CARTESIAN_POINT('',(91.,-127.5,-4.));
#1175=CARTESIAN_POINT('',(91.,-53.,-4.));
#1176=CARTESIAN_POINT('Origin',(93.,-55.,-2.));
#1177=CARTESIAN_POINT('Origin',(93.,-55.,-2.));
#1178=CARTESIAN_POINT('Origin',(93.,-125.5,-2.));
#1179=CARTESIAN_POINT('Origin',(93.,-125.5,-2.));
#1180=CARTESIAN_POINT('Origin',(193.5,-125.5,-2.));
#1181=CARTESIAN_POINT('Origin',(193.5,-125.5,-2.));
#1182=CARTESIAN_POINT('Origin',(193.5,-125.5,-2.));
#1183=CARTESIAN_POINT('Origin',(193.5,-55.,-2.));
#1184=CARTESIAN_POINT('Origin',(193.5,-55.,-2.));
#1185=CARTESIAN_POINT('Origin',(195.5,-53.,0.));
#1186=CARTESIAN_POINT('',(91.,-53.,0.));
#1187=CARTESIAN_POINT('',(195.5,-53.,0.));
#1188=CARTESIAN_POINT('Origin',(91.,-53.,0.));
#1189=CARTESIAN_POINT('',(91.,-127.5,0.));
#1190=CARTESIAN_POINT('Origin',(91.,-127.5,0.));
#1191=CARTESIAN_POINT('',(195.5,-127.5,0.));
#1192=CARTESIAN_POINT('Origin',(195.5,-127.5,0.));
#1193=UNCERTAINTY_MEASURE_WITH_UNIT(LENGTH_MEASURE(0.01),#1197,
'DISTANCE_ACCURACY_VALUE',
'Maximum model space distance between geometric entities at asserted c
onnectivities');
#1194=UNCERTAINTY_MEASURE_WITH_UNIT(LENGTH_MEASURE(0.01),#1197,
'DISTANCE_ACCURACY_VALUE',
'Maximum model space distance between geometric entities at asserted c
onnectivities');
#1195=(
GEOMETRIC_REPRESENTATION_CONTEXT(3)
GLOBAL_UNCERTAINTY_ASSIGNED_CONTEXT((#1193))
GLOBAL_UNIT_ASSIGNED_CONTEXT((#1197,#1198,#1199))
REPRESENTATION_CONTEXT('','3D')
);
#1196=(
GEOMETRIC_REPRESENTATION_CONTEXT(3)
GLOBAL_UNCERTAINTY_ASSIGNED_CONTEXT((#1194))
GLOBAL_UNIT_ASSIGNED_CONTEXT((#1197,#1198,#1199))
REPRESENTATION_CONTEXT('','3D')
);
#1197=(
LENGTH_UNIT()
NAMED_UNIT(*)
SI_UNIT(.MILLI.,.METRE.)
);
#1198=(
NAMED_UNIT(*)
PLANE_ANGLE_UNIT()
SI_UNIT($,.RADIAN.)
);
#1199=(
NAMED_UNIT(*)
SI_UNIT($,.STERADIAN.)
SOLID_ANGLE_UNIT()
);
#1200=SHAPE_DEFINITION_REPRESENTATION(#1201,#1202);
#1201=PRODUCT_DEFINITION_SHAPE('',$,#1204);
#1202=SHAPE_REPRESENTATION('',(#709),#1195);
#1203=PRODUCT_DEFINITION_CONTEXT('part definition',#1208,'design');
#1204=PRODUCT_DEFINITION('my-keyboard 1','my-keyboard',#1205,#1203);
#1205=PRODUCT_DEFINITION_FORMATION('',$,#1210);
#1206=PRODUCT_RELATED_PRODUCT_CATEGORY('my-keyboard','my-keyboard',(#1210));
#1207=APPLICATION_PROTOCOL_DEFINITION('international standard',
'automotive_design',2009,#1208);
#1208=APPLICATION_CONTEXT(
'Core Data for Automotive Mechanical Design Process');
#1209=PRODUCT_CONTEXT('part definition',#1208,'mechanical');
#1210=PRODUCT('my-keyboard 1','my-keyboard','KiCad electronic assembly',
(#1209));
#1211=PRESENTATION_STYLE_ASSIGNMENT((#1212));
#1212=SURFACE_STYLE_USAGE(.BOTH.,#1213);
#1213=SURFACE_SIDE_STYLE('',(#1214));
#1214=SURFACE_STYLE_FILL_AREA(#1215);
#1215=FILL_AREA_STYLE('Stal \X2\2014\X0\ satynowa',(#1216));
#1216=FILL_AREA_STYLE_COLOUR('Stal \X2\2014\X0\ satynowa',#1217);
#1217=COLOUR_RGB('Stal \X2\2014\X0\ satynowa',0.627450980392157,0.627450980392157,
0.627450980392157);
ENDSEC;
END-ISO-10303-21;
