ISO-10303-21;
HEADER;
/* Generated by software containing ST-Developer
 * from STEP Tools, Inc. (www.steptools.com) 
 */

FILE_DESCRIPTION(
/* description */ ('KiCad electronic assembly'),
/* implementation_level */ '2;1');

FILE_NAME(
/* name */ 'bottom.step',
/* time_stamp */ '2026-08-03T20:27:50+02:00',
/* author */ (''),
/* organization */ (''),
/* preprocessor_version */ 'ST-DEVELOPER v20.1',
/* originating_system */ 'Autodesk Translation Framework v15.8.0.0',
/* authorisation */ '');

FILE_SCHEMA (('AUTOMOTIVE_DESIGN { 1 0 10303 214 3 1 1 }'));
ENDSEC;

DATA;
#10=MECHANICAL_DESIGN_GEOMETRIC_PRESENTATION_REPRESENTATION('',(#13),#1261);
#11=SHAPE_REPRESENTATION_RELATIONSHIP('SRR','None',#1267,#12);
#12=ADVANCED_BREP_SHAPE_REPRESENTATION('',(#14),#1260);
#13=STYLED_ITEM('',(#1276),#14);
#14=MANIFOLD_SOLID_BREP('Base',#745);
#15=FACE_BOUND('',#119,.T.);
#16=FACE_BOUND('',#123,.T.);
#17=FACE_BOUND('',#125,.T.);
#18=FACE_BOUND('',#128,.T.);
#19=FACE_BOUND('',#130,.T.);
#20=FACE_BOUND('',#132,.T.);
#21=FACE_BOUND('',#136,.T.);
#22=FACE_BOUND('',#138,.T.);
#23=FACE_BOUND('',#140,.T.);
#24=FACE_BOUND('',#142,.T.);
#25=FACE_BOUND('',#149,.T.);
#26=FACE_BOUND('',#150,.T.);
#27=FACE_BOUND('',#151,.T.);
#28=FACE_BOUND('',#152,.T.);
#29=FACE_BOUND('',#168,.T.);
#30=PLANE('',#750);
#31=PLANE('',#754);
#32=PLANE('',#758);
#33=PLANE('',#762);
#34=PLANE('',#766);
#35=PLANE('',#767);
#36=PLANE('',#772);
#37=PLANE('',#773);
#38=PLANE('',#775);
#39=PLANE('',#777);
#40=PLANE('',#778);
#41=PLANE('',#780);
#42=PLANE('',#781);
#43=PLANE('',#783);
#44=PLANE('',#784);
#45=PLANE('',#785);
#46=PLANE('',#788);
#47=PLANE('',#791);
#48=PLANE('',#793);
#49=PLANE('',#794);
#50=PLANE('',#795);
#51=PLANE('',#796);
#52=PLANE('',#797);
#53=PLANE('',#800);
#54=PLANE('',#813);
#55=PLANE('',#816);
#56=PLANE('',#821);
#57=PLANE('',#822);
#58=PLANE('',#823);
#59=PLANE('',#824);
#60=PLANE('',#825);
#61=FACE_OUTER_BOUND('',#108,.T.);
#62=FACE_OUTER_BOUND('',#109,.T.);
#63=FACE_OUTER_BOUND('',#110,.T.);
#64=FACE_OUTER_BOUND('',#111,.T.);
#65=FACE_OUTER_BOUND('',#112,.T.);
#66=FACE_OUTER_BOUND('',#113,.T.);
#67=FACE_OUTER_BOUND('',#114,.T.);
#68=FACE_OUTER_BOUND('',#115,.T.);
#69=FACE_OUTER_BOUND('',#116,.T.);
#70=FACE_OUTER_BOUND('',#117,.T.);
#71=FACE_OUTER_BOUND('',#118,.T.);
#72=FACE_OUTER_BOUND('',#120,.T.);
#73=FACE_OUTER_BOUND('',#121,.T.);
#74=FACE_OUTER_BOUND('',#122,.T.);
#75=FACE_OUTER_BOUND('',#124,.T.);
#76=FACE_OUTER_BOUND('',#126,.T.);
#77=FACE_OUTER_BOUND('',#127,.T.);
#78=FACE_OUTER_BOUND('',#129,.T.);
#79=FACE_OUTER_BOUND('',#131,.T.);
#80=FACE_OUTER_BOUND('',#133,.T.);
#81=FACE_OUTER_BOUND('',#134,.T.);
#82=FACE_OUTER_BOUND('',#135,.T.);
#83=FACE_OUTER_BOUND('',#137,.T.);
#84=FACE_OUTER_BOUND('',#139,.T.);
#85=FACE_OUTER_BOUND('',#141,.T.);
#86=FACE_OUTER_BOUND('',#143,.T.);
#87=FACE_OUTER_BOUND('',#144,.T.);
#88=FACE_OUTER_BOUND('',#145,.T.);
#89=FACE_OUTER_BOUND('',#146,.T.);
#90=FACE_OUTER_BOUND('',#147,.T.);
#91=FACE_OUTER_BOUND('',#148,.T.);
#92=FACE_OUTER_BOUND('',#153,.T.);
#93=FACE_OUTER_BOUND('',#154,.T.);
#94=FACE_OUTER_BOUND('',#155,.T.);
#95=FACE_OUTER_BOUND('',#156,.T.);
#96=FACE_OUTER_BOUND('',#157,.T.);
#97=FACE_OUTER_BOUND('',#158,.T.);
#98=FACE_OUTER_BOUND('',#159,.T.);
#99=FACE_OUTER_BOUND('',#160,.T.);
#100=FACE_OUTER_BOUND('',#161,.T.);
#101=FACE_OUTER_BOUND('',#162,.T.);
#102=FACE_OUTER_BOUND('',#163,.T.);
#103=FACE_OUTER_BOUND('',#164,.T.);
#104=FACE_OUTER_BOUND('',#165,.T.);
#105=FACE_OUTER_BOUND('',#166,.T.);
#106=FACE_OUTER_BOUND('',#167,.T.);
#107=FACE_OUTER_BOUND('',#169,.T.);
#108=EDGE_LOOP('',(#490,#491,#492,#493));
#109=EDGE_LOOP('',(#494));
#110=EDGE_LOOP('',(#495,#496,#497,#498));
#111=EDGE_LOOP('',(#499));
#112=EDGE_LOOP('',(#500,#501,#502,#503));
#113=EDGE_LOOP('',(#504));
#114=EDGE_LOOP('',(#505,#506,#507,#508));
#115=EDGE_LOOP('',(#509));
#116=EDGE_LOOP('',(#510,#511,#512,#513));
#117=EDGE_LOOP('',(#514));
#118=EDGE_LOOP('',(#515));
#119=EDGE_LOOP('',(#516));
#120=EDGE_LOOP('',(#517,#518,#519,#520));
#121=EDGE_LOOP('',(#521));
#122=EDGE_LOOP('',(#522));
#123=EDGE_LOOP('',(#523));
#124=EDGE_LOOP('',(#524,#525,#526));
#125=EDGE_LOOP('',(#527));
#126=EDGE_LOOP('',(#528,#529,#530,#531,#532,#533,#534,#535));
#127=EDGE_LOOP('',(#536,#537,#538));
#128=EDGE_LOOP('',(#539));
#129=EDGE_LOOP('',(#540,#541,#542,#543,#544,#545,#546,#547));
#130=EDGE_LOOP('',(#548,#549,#550,#551));
#131=EDGE_LOOP('',(#552,#553,#554));
#132=EDGE_LOOP('',(#555));
#133=EDGE_LOOP('',(#556,#557,#558,#559,#560,#561,#562,#563));
#134=EDGE_LOOP('',(#564,#565,#566,#567,#568,#569,#570,#571));
#135=EDGE_LOOP('',(#572));
#136=EDGE_LOOP('',(#573));
#137=EDGE_LOOP('',(#574));
#138=EDGE_LOOP('',(#575));
#139=EDGE_LOOP('',(#576,#577,#578));
#140=EDGE_LOOP('',(#579));
#141=EDGE_LOOP('',(#580,#581,#582,#583));
#142=EDGE_LOOP('',(#584,#585,#586,#587));
#143=EDGE_LOOP('',(#588,#589,#590,#591));
#144=EDGE_LOOP('',(#592,#593,#594,#595));
#145=EDGE_LOOP('',(#596,#597,#598,#599));
#146=EDGE_LOOP('',(#600,#601,#602,#603));
#147=EDGE_LOOP('',(#604,#605,#606,#607));
#148=EDGE_LOOP('',(#608,#609,#610,#611,#612,#613,#614,#615));
#149=EDGE_LOOP('',(#616));
#150=EDGE_LOOP('',(#617));
#151=EDGE_LOOP('',(#618));
#152=EDGE_LOOP('',(#619));
#153=EDGE_LOOP('',(#620,#621,#622,#623));
#154=EDGE_LOOP('',(#624,#625,#626,#627));
#155=EDGE_LOOP('',(#628,#629,#630,#631));
#156=EDGE_LOOP('',(#632,#633,#634,#635));
#157=EDGE_LOOP('',(#636));
#158=EDGE_LOOP('',(#637,#638,#639,#640));
#159=EDGE_LOOP('',(#641));
#160=EDGE_LOOP('',(#642,#643,#644,#645));
#161=EDGE_LOOP('',(#646,#647,#648,#649));
#162=EDGE_LOOP('',(#650,#651,#652,#653));
#163=EDGE_LOOP('',(#654,#655,#656,#657));
#164=EDGE_LOOP('',(#658,#659,#660,#661));
#165=EDGE_LOOP('',(#662,#663,#664,#665));
#166=EDGE_LOOP('',(#666,#667,#668,#669));
#167=EDGE_LOOP('',(#670,#671,#672,#673));
#168=EDGE_LOOP('',(#674,#675,#676,#677));
#169=EDGE_LOOP('',(#678,#679,#680,#681));
#170=LINE('',#1055,#234);
#171=LINE('',#1062,#235);
#172=LINE('',#1069,#236);
#173=LINE('',#1076,#237);
#174=LINE('',#1083,#238);
#175=LINE('',#1093,#239);
#176=LINE('',#1102,#240);
#177=LINE('',#1105,#241);
#178=LINE('',#1108,#242);
#179=LINE('',#1110,#243);
#180=LINE('',#1112,#244);
#181=LINE('',#1114,#245);
#182=LINE('',#1116,#246);
#183=LINE('',#1118,#247);
#184=LINE('',#1119,#248);
#185=LINE('',#1125,#249);
#186=LINE('',#1126,#250);
#187=LINE('',#1129,#251);
#188=LINE('',#1131,#252);
#189=LINE('',#1132,#253);
#190=LINE('',#1134,#254);
#191=LINE('',#1136,#255);
#192=LINE('',#1137,#256);
#193=LINE('',#1140,#257);
#194=LINE('',#1142,#258);
#195=LINE('',#1144,#259);
#196=LINE('',#1145,#260);
#197=LINE('',#1149,#261);
#198=LINE('',#1152,#262);
#199=LINE('',#1155,#263);
#200=LINE('',#1157,#264);
#201=LINE('',#1158,#265);
#202=LINE('',#1160,#266);
#203=LINE('',#1161,#267);
#204=LINE('',#1163,#268);
#205=LINE('',#1165,#269);
#206=LINE('',#1167,#270);
#207=LINE('',#1168,#271);
#208=LINE('',#1184,#272);
#209=LINE('',#1186,#273);
#210=LINE('',#1188,#274);
#211=LINE('',#1189,#275);
#212=LINE('',#1193,#276);
#213=LINE('',#1194,#277);
#214=LINE('',#1195,#278);
#215=LINE('',#1199,#279);
#216=LINE('',#1200,#280);
#217=LINE('',#1201,#281);
#218=LINE('',#1203,#282);
#219=LINE('',#1205,#283);
#220=LINE('',#1225,#284);
#221=LINE('',#1230,#285);
#222=LINE('',#1234,#286);
#223=LINE('',#1236,#287);
#224=LINE('',#1238,#288);
#225=LINE('',#1240,#289);
#226=LINE('',#1244,#290);
#227=LINE('',#1246,#291);
#228=LINE('',#1248,#292);
#229=LINE('',#1249,#293);
#230=LINE('',#1251,#294);
#231=LINE('',#1252,#295);
#232=LINE('',#1254,#296);
#233=LINE('',#1256,#297);
#234=VECTOR('',#832,1.03700000000003);
#235=VECTOR('',#841,1.037);
#236=VECTOR('',#850,1.037);
#237=VECTOR('',#859,1.037);
#238=VECTOR('',#868,1.037);
#239=VECTOR('',#881,1.03699999999998);
#240=VECTOR('',#892,10.);
#241=VECTOR('',#895,10.);
#242=VECTOR('',#898,10.);
#243=VECTOR('',#899,10.);
#244=VECTOR('',#900,10.);
#245=VECTOR('',#901,10.);
#246=VECTOR('',#902,10.);
#247=VECTOR('',#903,10.);
#248=VECTOR('',#904,10.);
#249=VECTOR('',#909,10.);
#250=VECTOR('',#910,10.);
#251=VECTOR('',#913,10.);
#252=VECTOR('',#914,10.);
#253=VECTOR('',#915,10.);
#254=VECTOR('',#916,10.);
#255=VECTOR('',#917,10.);
#256=VECTOR('',#918,10.);
#257=VECTOR('',#919,10.);
#258=VECTOR('',#920,10.);
#259=VECTOR('',#921,10.);
#260=VECTOR('',#922,10.);
#261=VECTOR('',#925,10.);
#262=VECTOR('',#928,10.);
#263=VECTOR('',#931,10.);
#264=VECTOR('',#932,10.);
#265=VECTOR('',#933,10.);
#266=VECTOR('',#934,10.);
#267=VECTOR('',#935,10.);
#268=VECTOR('',#938,10.);
#269=VECTOR('',#939,10.);
#270=VECTOR('',#940,10.);
#271=VECTOR('',#941,10.);
#272=VECTOR('',#960,10.);
#273=VECTOR('',#961,10.);
#274=VECTOR('',#962,10.);
#275=VECTOR('',#963,10.);
#276=VECTOR('',#966,10.);
#277=VECTOR('',#967,10.);
#278=VECTOR('',#968,10.);
#279=VECTOR('',#971,10.);
#280=VECTOR('',#972,10.);
#281=VECTOR('',#973,10.);
#282=VECTOR('',#976,10.);
#283=VECTOR('',#979,10.);
#284=VECTOR('',#1008,0.999999999999996);
#285=VECTOR('',#1015,0.999999999999979);
#286=VECTOR('',#1022,2.5);
#287=VECTOR('',#1025,2.5);
#288=VECTOR('',#1028,2.5);
#289=VECTOR('',#1031,2.5);
#290=VECTOR('',#1034,10.);
#291=VECTOR('',#1035,10.);
#292=VECTOR('',#1036,10.);
#293=VECTOR('',#1037,10.);
#294=VECTOR('',#1040,10.);
#295=VECTOR('',#1041,10.);
#296=VECTOR('',#1044,10.);
#297=VECTOR('',#1047,10.);
#298=CIRCLE('',#748,0.8115);
#299=CIRCLE('',#749,0.811499999999999);
#300=CIRCLE('',#752,0.8115);
#301=CIRCLE('',#753,0.811499999999999);
#302=CIRCLE('',#756,0.8115);
#303=CIRCLE('',#757,0.811499999999999);
#304=CIRCLE('',#760,0.8115);
#305=CIRCLE('',#761,0.811499999999999);
#306=CIRCLE('',#764,0.8115);
#307=CIRCLE('',#765,0.811499999999999);
#308=CIRCLE('',#768,2.5);
#309=CIRCLE('',#770,0.8115);
#310=CIRCLE('',#771,0.811499999999999);
#311=CIRCLE('',#774,2.5);
#312=CIRCLE('',#776,5.657);
#313=CIRCLE('',#779,5.657);
#314=CIRCLE('',#782,5.657);
#315=CIRCLE('',#786,2.5);
#316=CIRCLE('',#787,0.8115);
#317=CIRCLE('',#789,2.5);
#318=CIRCLE('',#790,0.8115);
#319=CIRCLE('',#792,5.65685589321948);
#320=CIRCLE('',#799,5.657);
#321=CIRCLE('',#801,5.657);
#322=CIRCLE('',#802,5.657);
#323=CIRCLE('',#803,5.65685589321948);
#324=CIRCLE('',#804,2.5);
#325=CIRCLE('',#805,2.5);
#326=CIRCLE('',#806,2.5);
#327=CIRCLE('',#807,2.5);
#328=CIRCLE('',#812,0.8115);
#329=CIRCLE('',#815,0.8115);
#330=VERTEX_POINT('',#1052);
#331=VERTEX_POINT('',#1054);
#332=VERTEX_POINT('',#1059);
#333=VERTEX_POINT('',#1061);
#334=VERTEX_POINT('',#1066);
#335=VERTEX_POINT('',#1068);
#336=VERTEX_POINT('',#1073);
#337=VERTEX_POINT('',#1075);
#338=VERTEX_POINT('',#1080);
#339=VERTEX_POINT('',#1082);
#340=VERTEX_POINT('',#1087);
#341=VERTEX_POINT('',#1090);
#342=VERTEX_POINT('',#1092);
#343=VERTEX_POINT('',#1097);
#344=VERTEX_POINT('',#1100);
#345=VERTEX_POINT('',#1101);
#346=VERTEX_POINT('',#1103);
#347=VERTEX_POINT('',#1107);
#348=VERTEX_POINT('',#1109);
#349=VERTEX_POINT('',#1111);
#350=VERTEX_POINT('',#1113);
#351=VERTEX_POINT('',#1115);
#352=VERTEX_POINT('',#1117);
#353=VERTEX_POINT('',#1121);
#354=VERTEX_POINT('',#1122);
#355=VERTEX_POINT('',#1124);
#356=VERTEX_POINT('',#1128);
#357=VERTEX_POINT('',#1130);
#358=VERTEX_POINT('',#1133);
#359=VERTEX_POINT('',#1135);
#360=VERTEX_POINT('',#1138);
#361=VERTEX_POINT('',#1139);
#362=VERTEX_POINT('',#1141);
#363=VERTEX_POINT('',#1143);
#364=VERTEX_POINT('',#1147);
#365=VERTEX_POINT('',#1148);
#366=VERTEX_POINT('',#1150);
#367=VERTEX_POINT('',#1154);
#368=VERTEX_POINT('',#1156);
#369=VERTEX_POINT('',#1159);
#370=VERTEX_POINT('',#1164);
#371=VERTEX_POINT('',#1166);
#372=VERTEX_POINT('',#1170);
#373=VERTEX_POINT('',#1172);
#374=VERTEX_POINT('',#1175);
#375=VERTEX_POINT('',#1177);
#376=VERTEX_POINT('',#1182);
#377=VERTEX_POINT('',#1183);
#378=VERTEX_POINT('',#1185);
#379=VERTEX_POINT('',#1187);
#380=VERTEX_POINT('',#1191);
#381=VERTEX_POINT('',#1192);
#382=VERTEX_POINT('',#1197);
#383=VERTEX_POINT('',#1198);
#384=VERTEX_POINT('',#1212);
#385=VERTEX_POINT('',#1214);
#386=VERTEX_POINT('',#1216);
#387=VERTEX_POINT('',#1218);
#388=VERTEX_POINT('',#1224);
#389=VERTEX_POINT('',#1229);
#390=VERTEX_POINT('',#1242);
#391=VERTEX_POINT('',#1243);
#392=VERTEX_POINT('',#1245);
#393=VERTEX_POINT('',#1247);
#394=EDGE_CURVE('',#330,#330,#298,.T.);
#395=EDGE_CURVE('',#330,#331,#170,.T.);
#396=EDGE_CURVE('',#331,#331,#299,.F.);
#397=EDGE_CURVE('',#332,#332,#300,.T.);
#398=EDGE_CURVE('',#332,#333,#171,.T.);
#399=EDGE_CURVE('',#333,#333,#301,.F.);
#400=EDGE_CURVE('',#334,#334,#302,.T.);
#401=EDGE_CURVE('',#334,#335,#172,.T.);
#402=EDGE_CURVE('',#335,#335,#303,.F.);
#403=EDGE_CURVE('',#336,#336,#304,.T.);
#404=EDGE_CURVE('',#336,#337,#173,.T.);
#405=EDGE_CURVE('',#337,#337,#305,.F.);
#406=EDGE_CURVE('',#338,#338,#306,.T.);
#407=EDGE_CURVE('',#338,#339,#174,.T.);
#408=EDGE_CURVE('',#339,#339,#307,.T.);
#409=EDGE_CURVE('',#340,#340,#308,.T.);
#410=EDGE_CURVE('',#341,#341,#309,.T.);
#411=EDGE_CURVE('',#341,#342,#175,.T.);
#412=EDGE_CURVE('',#342,#342,#310,.T.);
#413=EDGE_CURVE('',#343,#343,#311,.T.);
#414=EDGE_CURVE('',#344,#345,#176,.T.);
#415=EDGE_CURVE('',#344,#346,#312,.T.);
#416=EDGE_CURVE('',#345,#346,#177,.T.);
#417=EDGE_CURVE('',#346,#347,#178,.T.);
#418=EDGE_CURVE('',#347,#348,#179,.T.);
#419=EDGE_CURVE('',#348,#349,#180,.T.);
#420=EDGE_CURVE('',#349,#350,#181,.T.);
#421=EDGE_CURVE('',#351,#350,#182,.T.);
#422=EDGE_CURVE('',#352,#351,#183,.T.);
#423=EDGE_CURVE('',#352,#345,#184,.T.);
#424=EDGE_CURVE('',#353,#354,#313,.T.);
#425=EDGE_CURVE('',#355,#354,#185,.T.);
#426=EDGE_CURVE('',#353,#355,#186,.T.);
#427=EDGE_CURVE('',#356,#353,#187,.T.);
#428=EDGE_CURVE('',#357,#355,#188,.T.);
#429=EDGE_CURVE('',#351,#357,#189,.T.);
#430=EDGE_CURVE('',#350,#358,#190,.T.);
#431=EDGE_CURVE('',#358,#359,#191,.T.);
#432=EDGE_CURVE('',#359,#356,#192,.T.);
#433=EDGE_CURVE('',#360,#361,#193,.T.);
#434=EDGE_CURVE('',#361,#362,#194,.T.);
#435=EDGE_CURVE('',#362,#363,#195,.T.);
#436=EDGE_CURVE('',#363,#360,#196,.T.);
#437=EDGE_CURVE('',#364,#365,#197,.T.);
#438=EDGE_CURVE('',#364,#366,#314,.T.);
#439=EDGE_CURVE('',#365,#366,#198,.T.);
#440=EDGE_CURVE('',#354,#367,#199,.T.);
#441=EDGE_CURVE('',#367,#368,#200,.T.);
#442=EDGE_CURVE('',#368,#364,#201,.T.);
#443=EDGE_CURVE('',#365,#369,#202,.T.);
#444=EDGE_CURVE('',#357,#369,#203,.T.);
#445=EDGE_CURVE('',#369,#352,#204,.T.);
#446=EDGE_CURVE('',#366,#370,#205,.T.);
#447=EDGE_CURVE('',#370,#371,#206,.T.);
#448=EDGE_CURVE('',#371,#344,#207,.T.);
#449=EDGE_CURVE('',#372,#372,#315,.T.);
#450=EDGE_CURVE('',#373,#373,#316,.T.);
#451=EDGE_CURVE('',#374,#374,#317,.T.);
#452=EDGE_CURVE('',#375,#375,#318,.T.);
#453=EDGE_CURVE('',#349,#358,#319,.T.);
#454=EDGE_CURVE('',#376,#377,#208,.T.);
#455=EDGE_CURVE('',#377,#378,#209,.T.);
#456=EDGE_CURVE('',#378,#379,#210,.T.);
#457=EDGE_CURVE('',#379,#376,#211,.T.);
#458=EDGE_CURVE('',#380,#381,#212,.T.);
#459=EDGE_CURVE('',#362,#380,#213,.T.);
#460=EDGE_CURVE('',#361,#381,#214,.T.);
#461=EDGE_CURVE('',#382,#383,#215,.T.);
#462=EDGE_CURVE('',#360,#382,#216,.T.);
#463=EDGE_CURVE('',#363,#383,#217,.T.);
#464=EDGE_CURVE('',#383,#380,#218,.T.);
#465=EDGE_CURVE('',#381,#382,#219,.T.);
#466=EDGE_CURVE('',#347,#371,#320,.T.);
#467=EDGE_CURVE('',#370,#368,#321,.T.);
#468=EDGE_CURVE('',#367,#356,#322,.T.);
#469=EDGE_CURVE('',#359,#348,#323,.T.);
#470=EDGE_CURVE('',#384,#384,#324,.T.);
#471=EDGE_CURVE('',#385,#385,#325,.T.);
#472=EDGE_CURVE('',#386,#386,#326,.T.);
#473=EDGE_CURVE('',#387,#387,#327,.T.);
#474=EDGE_CURVE('',#373,#388,#220,.T.);
#475=EDGE_CURVE('',#388,#388,#328,.T.);
#476=EDGE_CURVE('',#375,#389,#221,.T.);
#477=EDGE_CURVE('',#389,#389,#329,.T.);
#478=EDGE_CURVE('',#386,#343,#222,.T.);
#479=EDGE_CURVE('',#387,#340,#223,.T.);
#480=EDGE_CURVE('',#385,#372,#224,.T.);
#481=EDGE_CURVE('',#384,#374,#225,.T.);
#482=EDGE_CURVE('',#390,#391,#226,.T.);
#483=EDGE_CURVE('',#391,#392,#227,.T.);
#484=EDGE_CURVE('',#392,#393,#228,.T.);
#485=EDGE_CURVE('',#393,#390,#229,.T.);
#486=EDGE_CURVE('',#376,#391,#230,.T.);
#487=EDGE_CURVE('',#379,#392,#231,.T.);
#488=EDGE_CURVE('',#378,#393,#232,.T.);
#489=EDGE_CURVE('',#390,#377,#233,.T.);
#490=ORIENTED_EDGE('',*,*,#394,.F.);
#491=ORIENTED_EDGE('',*,*,#395,.T.);
#492=ORIENTED_EDGE('',*,*,#396,.F.);
#493=ORIENTED_EDGE('',*,*,#395,.F.);
#494=ORIENTED_EDGE('',*,*,#396,.T.);
#495=ORIENTED_EDGE('',*,*,#397,.F.);
#496=ORIENTED_EDGE('',*,*,#398,.T.);
#497=ORIENTED_EDGE('',*,*,#399,.F.);
#498=ORIENTED_EDGE('',*,*,#398,.F.);
#499=ORIENTED_EDGE('',*,*,#399,.T.);
#500=ORIENTED_EDGE('',*,*,#400,.F.);
#501=ORIENTED_EDGE('',*,*,#401,.T.);
#502=ORIENTED_EDGE('',*,*,#402,.F.);
#503=ORIENTED_EDGE('',*,*,#401,.F.);
#504=ORIENTED_EDGE('',*,*,#402,.T.);
#505=ORIENTED_EDGE('',*,*,#403,.F.);
#506=ORIENTED_EDGE('',*,*,#404,.T.);
#507=ORIENTED_EDGE('',*,*,#405,.F.);
#508=ORIENTED_EDGE('',*,*,#404,.F.);
#509=ORIENTED_EDGE('',*,*,#405,.T.);
#510=ORIENTED_EDGE('',*,*,#406,.F.);
#511=ORIENTED_EDGE('',*,*,#407,.T.);
#512=ORIENTED_EDGE('',*,*,#408,.T.);
#513=ORIENTED_EDGE('',*,*,#407,.F.);
#514=ORIENTED_EDGE('',*,*,#408,.F.);
#515=ORIENTED_EDGE('',*,*,#409,.T.);
#516=ORIENTED_EDGE('',*,*,#406,.T.);
#517=ORIENTED_EDGE('',*,*,#410,.F.);
#518=ORIENTED_EDGE('',*,*,#411,.T.);
#519=ORIENTED_EDGE('',*,*,#412,.T.);
#520=ORIENTED_EDGE('',*,*,#411,.F.);
#521=ORIENTED_EDGE('',*,*,#412,.F.);
#522=ORIENTED_EDGE('',*,*,#413,.T.);
#523=ORIENTED_EDGE('',*,*,#410,.T.);
#524=ORIENTED_EDGE('',*,*,#414,.F.);
#525=ORIENTED_EDGE('',*,*,#415,.T.);
#526=ORIENTED_EDGE('',*,*,#416,.F.);
#527=ORIENTED_EDGE('',*,*,#403,.T.);
#528=ORIENTED_EDGE('',*,*,#416,.T.);
#529=ORIENTED_EDGE('',*,*,#417,.T.);
#530=ORIENTED_EDGE('',*,*,#418,.T.);
#531=ORIENTED_EDGE('',*,*,#419,.T.);
#532=ORIENTED_EDGE('',*,*,#420,.T.);
#533=ORIENTED_EDGE('',*,*,#421,.F.);
#534=ORIENTED_EDGE('',*,*,#422,.F.);
#535=ORIENTED_EDGE('',*,*,#423,.T.);
#536=ORIENTED_EDGE('',*,*,#424,.T.);
#537=ORIENTED_EDGE('',*,*,#425,.F.);
#538=ORIENTED_EDGE('',*,*,#426,.F.);
#539=ORIENTED_EDGE('',*,*,#397,.T.);
#540=ORIENTED_EDGE('',*,*,#427,.T.);
#541=ORIENTED_EDGE('',*,*,#426,.T.);
#542=ORIENTED_EDGE('',*,*,#428,.F.);
#543=ORIENTED_EDGE('',*,*,#429,.F.);
#544=ORIENTED_EDGE('',*,*,#421,.T.);
#545=ORIENTED_EDGE('',*,*,#430,.T.);
#546=ORIENTED_EDGE('',*,*,#431,.T.);
#547=ORIENTED_EDGE('',*,*,#432,.T.);
#548=ORIENTED_EDGE('',*,*,#433,.T.);
#549=ORIENTED_EDGE('',*,*,#434,.T.);
#550=ORIENTED_EDGE('',*,*,#435,.T.);
#551=ORIENTED_EDGE('',*,*,#436,.T.);
#552=ORIENTED_EDGE('',*,*,#437,.F.);
#553=ORIENTED_EDGE('',*,*,#438,.T.);
#554=ORIENTED_EDGE('',*,*,#439,.F.);
#555=ORIENTED_EDGE('',*,*,#394,.T.);
#556=ORIENTED_EDGE('',*,*,#440,.T.);
#557=ORIENTED_EDGE('',*,*,#441,.T.);
#558=ORIENTED_EDGE('',*,*,#442,.T.);
#559=ORIENTED_EDGE('',*,*,#437,.T.);
#560=ORIENTED_EDGE('',*,*,#443,.T.);
#561=ORIENTED_EDGE('',*,*,#444,.F.);
#562=ORIENTED_EDGE('',*,*,#428,.T.);
#563=ORIENTED_EDGE('',*,*,#425,.T.);
#564=ORIENTED_EDGE('',*,*,#414,.T.);
#565=ORIENTED_EDGE('',*,*,#423,.F.);
#566=ORIENTED_EDGE('',*,*,#445,.F.);
#567=ORIENTED_EDGE('',*,*,#443,.F.);
#568=ORIENTED_EDGE('',*,*,#439,.T.);
#569=ORIENTED_EDGE('',*,*,#446,.T.);
#570=ORIENTED_EDGE('',*,*,#447,.T.);
#571=ORIENTED_EDGE('',*,*,#448,.T.);
#572=ORIENTED_EDGE('',*,*,#449,.T.);
#573=ORIENTED_EDGE('',*,*,#450,.T.);
#574=ORIENTED_EDGE('',*,*,#451,.T.);
#575=ORIENTED_EDGE('',*,*,#452,.T.);
#576=ORIENTED_EDGE('',*,*,#420,.F.);
#577=ORIENTED_EDGE('',*,*,#453,.T.);
#578=ORIENTED_EDGE('',*,*,#430,.F.);
#579=ORIENTED_EDGE('',*,*,#400,.T.);
#580=ORIENTED_EDGE('',*,*,#454,.T.);
#581=ORIENTED_EDGE('',*,*,#455,.T.);
#582=ORIENTED_EDGE('',*,*,#456,.T.);
#583=ORIENTED_EDGE('',*,*,#457,.T.);
#584=ORIENTED_EDGE('',*,*,#444,.T.);
#585=ORIENTED_EDGE('',*,*,#445,.T.);
#586=ORIENTED_EDGE('',*,*,#422,.T.);
#587=ORIENTED_EDGE('',*,*,#429,.T.);
#588=ORIENTED_EDGE('',*,*,#458,.F.);
#589=ORIENTED_EDGE('',*,*,#459,.F.);
#590=ORIENTED_EDGE('',*,*,#434,.F.);
#591=ORIENTED_EDGE('',*,*,#460,.T.);
#592=ORIENTED_EDGE('',*,*,#461,.F.);
#593=ORIENTED_EDGE('',*,*,#462,.F.);
#594=ORIENTED_EDGE('',*,*,#436,.F.);
#595=ORIENTED_EDGE('',*,*,#463,.T.);
#596=ORIENTED_EDGE('',*,*,#464,.F.);
#597=ORIENTED_EDGE('',*,*,#463,.F.);
#598=ORIENTED_EDGE('',*,*,#435,.F.);
#599=ORIENTED_EDGE('',*,*,#459,.T.);
#600=ORIENTED_EDGE('',*,*,#465,.F.);
#601=ORIENTED_EDGE('',*,*,#460,.F.);
#602=ORIENTED_EDGE('',*,*,#433,.F.);
#603=ORIENTED_EDGE('',*,*,#462,.T.);
#604=ORIENTED_EDGE('',*,*,#466,.F.);
#605=ORIENTED_EDGE('',*,*,#417,.F.);
#606=ORIENTED_EDGE('',*,*,#415,.F.);
#607=ORIENTED_EDGE('',*,*,#448,.F.);
#608=ORIENTED_EDGE('',*,*,#466,.T.);
#609=ORIENTED_EDGE('',*,*,#447,.F.);
#610=ORIENTED_EDGE('',*,*,#467,.T.);
#611=ORIENTED_EDGE('',*,*,#441,.F.);
#612=ORIENTED_EDGE('',*,*,#468,.T.);
#613=ORIENTED_EDGE('',*,*,#432,.F.);
#614=ORIENTED_EDGE('',*,*,#469,.T.);
#615=ORIENTED_EDGE('',*,*,#418,.F.);
#616=ORIENTED_EDGE('',*,*,#470,.T.);
#617=ORIENTED_EDGE('',*,*,#471,.T.);
#618=ORIENTED_EDGE('',*,*,#472,.T.);
#619=ORIENTED_EDGE('',*,*,#473,.T.);
#620=ORIENTED_EDGE('',*,*,#467,.F.);
#621=ORIENTED_EDGE('',*,*,#446,.F.);
#622=ORIENTED_EDGE('',*,*,#438,.F.);
#623=ORIENTED_EDGE('',*,*,#442,.F.);
#624=ORIENTED_EDGE('',*,*,#469,.F.);
#625=ORIENTED_EDGE('',*,*,#431,.F.);
#626=ORIENTED_EDGE('',*,*,#453,.F.);
#627=ORIENTED_EDGE('',*,*,#419,.F.);
#628=ORIENTED_EDGE('',*,*,#468,.F.);
#629=ORIENTED_EDGE('',*,*,#440,.F.);
#630=ORIENTED_EDGE('',*,*,#424,.F.);
#631=ORIENTED_EDGE('',*,*,#427,.F.);
#632=ORIENTED_EDGE('',*,*,#450,.F.);
#633=ORIENTED_EDGE('',*,*,#474,.T.);
#634=ORIENTED_EDGE('',*,*,#475,.T.);
#635=ORIENTED_EDGE('',*,*,#474,.F.);
#636=ORIENTED_EDGE('',*,*,#475,.F.);
#637=ORIENTED_EDGE('',*,*,#452,.F.);
#638=ORIENTED_EDGE('',*,*,#476,.T.);
#639=ORIENTED_EDGE('',*,*,#477,.T.);
#640=ORIENTED_EDGE('',*,*,#476,.F.);
#641=ORIENTED_EDGE('',*,*,#477,.F.);
#642=ORIENTED_EDGE('',*,*,#472,.F.);
#643=ORIENTED_EDGE('',*,*,#478,.T.);
#644=ORIENTED_EDGE('',*,*,#413,.F.);
#645=ORIENTED_EDGE('',*,*,#478,.F.);
#646=ORIENTED_EDGE('',*,*,#473,.F.);
#647=ORIENTED_EDGE('',*,*,#479,.T.);
#648=ORIENTED_EDGE('',*,*,#409,.F.);
#649=ORIENTED_EDGE('',*,*,#479,.F.);
#650=ORIENTED_EDGE('',*,*,#471,.F.);
#651=ORIENTED_EDGE('',*,*,#480,.T.);
#652=ORIENTED_EDGE('',*,*,#449,.F.);
#653=ORIENTED_EDGE('',*,*,#480,.F.);
#654=ORIENTED_EDGE('',*,*,#470,.F.);
#655=ORIENTED_EDGE('',*,*,#481,.T.);
#656=ORIENTED_EDGE('',*,*,#451,.F.);
#657=ORIENTED_EDGE('',*,*,#481,.F.);
#658=ORIENTED_EDGE('',*,*,#482,.T.);
#659=ORIENTED_EDGE('',*,*,#483,.T.);
#660=ORIENTED_EDGE('',*,*,#484,.T.);
#661=ORIENTED_EDGE('',*,*,#485,.T.);
#662=ORIENTED_EDGE('',*,*,#486,.F.);
#663=ORIENTED_EDGE('',*,*,#457,.F.);
#664=ORIENTED_EDGE('',*,*,#487,.T.);
#665=ORIENTED_EDGE('',*,*,#483,.F.);
#666=ORIENTED_EDGE('',*,*,#487,.F.);
#667=ORIENTED_EDGE('',*,*,#456,.F.);
#668=ORIENTED_EDGE('',*,*,#488,.T.);
#669=ORIENTED_EDGE('',*,*,#484,.F.);
#670=ORIENTED_EDGE('',*,*,#488,.F.);
#671=ORIENTED_EDGE('',*,*,#455,.F.);
#672=ORIENTED_EDGE('',*,*,#489,.F.);
#673=ORIENTED_EDGE('',*,*,#485,.F.);
#674=ORIENTED_EDGE('',*,*,#465,.T.);
#675=ORIENTED_EDGE('',*,*,#461,.T.);
#676=ORIENTED_EDGE('',*,*,#464,.T.);
#677=ORIENTED_EDGE('',*,*,#458,.T.);
#678=ORIENTED_EDGE('',*,*,#489,.T.);
#679=ORIENTED_EDGE('',*,*,#454,.F.);
#680=ORIENTED_EDGE('',*,*,#486,.T.);
#681=ORIENTED_EDGE('',*,*,#482,.F.);
#682=CYLINDRICAL_SURFACE('',#747,0.8115);
#683=CYLINDRICAL_SURFACE('',#751,0.8115);
#684=CYLINDRICAL_SURFACE('',#755,0.8115);
#685=CYLINDRICAL_SURFACE('',#759,0.8115);
#686=CYLINDRICAL_SURFACE('',#763,0.8115);
#687=CYLINDRICAL_SURFACE('',#769,0.8115);
#688=CYLINDRICAL_SURFACE('',#798,5.657);
#689=CYLINDRICAL_SURFACE('',#808,5.657);
#690=CYLINDRICAL_SURFACE('',#809,5.65685589321948);
#691=CYLINDRICAL_SURFACE('',#810,5.657);
#692=CYLINDRICAL_SURFACE('',#811,0.8115);
#693=CYLINDRICAL_SURFACE('',#814,0.8115);
#694=CYLINDRICAL_SURFACE('',#817,2.5);
#695=CYLINDRICAL_SURFACE('',#818,2.5);
#696=CYLINDRICAL_SURFACE('',#819,2.5);
#697=CYLINDRICAL_SURFACE('',#820,2.5);
#698=ADVANCED_FACE('',(#61),#682,.F.);
#699=ADVANCED_FACE('',(#62),#30,.T.);
#700=ADVANCED_FACE('',(#63),#683,.F.);
#701=ADVANCED_FACE('',(#64),#31,.T.);
#702=ADVANCED_FACE('',(#65),#684,.F.);
#703=ADVANCED_FACE('',(#66),#32,.T.);
#704=ADVANCED_FACE('',(#67),#685,.F.);
#705=ADVANCED_FACE('',(#68),#33,.T.);
#706=ADVANCED_FACE('',(#69),#686,.F.);
#707=ADVANCED_FACE('',(#70),#34,.T.);
#708=ADVANCED_FACE('',(#71,#15),#35,.F.);
#709=ADVANCED_FACE('',(#72),#687,.F.);
#710=ADVANCED_FACE('',(#73),#36,.T.);
#711=ADVANCED_FACE('',(#74,#16),#37,.F.);
#712=ADVANCED_FACE('',(#75,#17),#38,.T.);
#713=ADVANCED_FACE('',(#76),#39,.T.);
#714=ADVANCED_FACE('',(#77,#18),#40,.T.);
#715=ADVANCED_FACE('',(#78,#19),#41,.T.);
#716=ADVANCED_FACE('',(#79,#20),#42,.T.);
#717=ADVANCED_FACE('',(#80),#43,.T.);
#718=ADVANCED_FACE('',(#81),#44,.T.);
#719=ADVANCED_FACE('',(#82,#21),#45,.F.);
#720=ADVANCED_FACE('',(#83,#22),#46,.F.);
#721=ADVANCED_FACE('',(#84,#23),#47,.T.);
#722=ADVANCED_FACE('',(#85,#24),#48,.T.);
#723=ADVANCED_FACE('',(#86),#49,.F.);
#724=ADVANCED_FACE('',(#87),#50,.F.);
#725=ADVANCED_FACE('',(#88),#51,.F.);
#726=ADVANCED_FACE('',(#89),#52,.F.);
#727=ADVANCED_FACE('',(#90),#688,.T.);
#728=ADVANCED_FACE('',(#91,#25,#26,#27,#28),#53,.T.);
#729=ADVANCED_FACE('',(#92),#689,.T.);
#730=ADVANCED_FACE('',(#93),#690,.T.);
#731=ADVANCED_FACE('',(#94),#691,.T.);
#732=ADVANCED_FACE('',(#95),#692,.F.);
#733=ADVANCED_FACE('',(#96),#54,.T.);
#734=ADVANCED_FACE('',(#97),#693,.F.);
#735=ADVANCED_FACE('',(#98),#55,.T.);
#736=ADVANCED_FACE('',(#99),#694,.T.);
#737=ADVANCED_FACE('',(#100),#695,.T.);
#738=ADVANCED_FACE('',(#101),#696,.T.);
#739=ADVANCED_FACE('',(#102),#697,.T.);
#740=ADVANCED_FACE('',(#103),#56,.T.);
#741=ADVANCED_FACE('',(#104),#57,.T.);
#742=ADVANCED_FACE('',(#105),#58,.T.);
#743=ADVANCED_FACE('',(#106,#29),#59,.T.);
#744=ADVANCED_FACE('',(#107),#60,.T.);
#745=CLOSED_SHELL('',(#698,#699,#700,#701,#702,#703,#704,#705,#706,#707,
#708,#709,#710,#711,#712,#713,#714,#715,#716,#717,#718,#719,#720,#721,#722,
#723,#724,#725,#726,#727,#728,#729,#730,#731,#732,#733,#734,#735,#736,#737,
#738,#739,#740,#741,#742,#743,#744));
#746=AXIS2_PLACEMENT_3D('',#1050,#826,#827);
#747=AXIS2_PLACEMENT_3D('',#1051,#828,#829);
#748=AXIS2_PLACEMENT_3D('',#1053,#830,#831);
#749=AXIS2_PLACEMENT_3D('',#1056,#833,#834);
#750=AXIS2_PLACEMENT_3D('',#1057,#835,#836);
#751=AXIS2_PLACEMENT_3D('',#1058,#837,#838);
#752=AXIS2_PLACEMENT_3D('',#1060,#839,#840);
#753=AXIS2_PLACEMENT_3D('',#1063,#842,#843);
#754=AXIS2_PLACEMENT_3D('',#1064,#844,#845);
#755=AXIS2_PLACEMENT_3D('',#1065,#846,#847);
#756=AXIS2_PLACEMENT_3D('',#1067,#848,#849);
#757=AXIS2_PLACEMENT_3D('',#1070,#851,#852);
#758=AXIS2_PLACEMENT_3D('',#1071,#853,#854);
#759=AXIS2_PLACEMENT_3D('',#1072,#855,#856);
#760=AXIS2_PLACEMENT_3D('',#1074,#857,#858);
#761=AXIS2_PLACEMENT_3D('',#1077,#860,#861);
#762=AXIS2_PLACEMENT_3D('',#1078,#862,#863);
#763=AXIS2_PLACEMENT_3D('',#1079,#864,#865);
#764=AXIS2_PLACEMENT_3D('',#1081,#866,#867);
#765=AXIS2_PLACEMENT_3D('',#1084,#869,#870);
#766=AXIS2_PLACEMENT_3D('',#1085,#871,#872);
#767=AXIS2_PLACEMENT_3D('',#1086,#873,#874);
#768=AXIS2_PLACEMENT_3D('',#1088,#875,#876);
#769=AXIS2_PLACEMENT_3D('',#1089,#877,#878);
#770=AXIS2_PLACEMENT_3D('',#1091,#879,#880);
#771=AXIS2_PLACEMENT_3D('',#1094,#882,#883);
#772=AXIS2_PLACEMENT_3D('',#1095,#884,#885);
#773=AXIS2_PLACEMENT_3D('',#1096,#886,#887);
#774=AXIS2_PLACEMENT_3D('',#1098,#888,#889);
#775=AXIS2_PLACEMENT_3D('',#1099,#890,#891);
#776=AXIS2_PLACEMENT_3D('',#1104,#893,#894);
#777=AXIS2_PLACEMENT_3D('',#1106,#896,#897);
#778=AXIS2_PLACEMENT_3D('',#1120,#905,#906);
#779=AXIS2_PLACEMENT_3D('',#1123,#907,#908);
#780=AXIS2_PLACEMENT_3D('',#1127,#911,#912);
#781=AXIS2_PLACEMENT_3D('',#1146,#923,#924);
#782=AXIS2_PLACEMENT_3D('',#1151,#926,#927);
#783=AXIS2_PLACEMENT_3D('',#1153,#929,#930);
#784=AXIS2_PLACEMENT_3D('',#1162,#936,#937);
#785=AXIS2_PLACEMENT_3D('',#1169,#942,#943);
#786=AXIS2_PLACEMENT_3D('',#1171,#944,#945);
#787=AXIS2_PLACEMENT_3D('',#1173,#946,#947);
#788=AXIS2_PLACEMENT_3D('',#1174,#948,#949);
#789=AXIS2_PLACEMENT_3D('',#1176,#950,#951);
#790=AXIS2_PLACEMENT_3D('',#1178,#952,#953);
#791=AXIS2_PLACEMENT_3D('',#1179,#954,#955);
#792=AXIS2_PLACEMENT_3D('',#1180,#956,#957);
#793=AXIS2_PLACEMENT_3D('',#1181,#958,#959);
#794=AXIS2_PLACEMENT_3D('',#1190,#964,#965);
#795=AXIS2_PLACEMENT_3D('',#1196,#969,#970);
#796=AXIS2_PLACEMENT_3D('',#1202,#974,#975);
#797=AXIS2_PLACEMENT_3D('',#1204,#977,#978);
#798=AXIS2_PLACEMENT_3D('',#1206,#980,#981);
#799=AXIS2_PLACEMENT_3D('',#1207,#982,#983);
#800=AXIS2_PLACEMENT_3D('',#1208,#984,#985);
#801=AXIS2_PLACEMENT_3D('',#1209,#986,#987);
#802=AXIS2_PLACEMENT_3D('',#1210,#988,#989);
#803=AXIS2_PLACEMENT_3D('',#1211,#990,#991);
#804=AXIS2_PLACEMENT_3D('',#1213,#992,#993);
#805=AXIS2_PLACEMENT_3D('',#1215,#994,#995);
#806=AXIS2_PLACEMENT_3D('',#1217,#996,#997);
#807=AXIS2_PLACEMENT_3D('',#1219,#998,#999);
#808=AXIS2_PLACEMENT_3D('',#1220,#1000,#1001);
#809=AXIS2_PLACEMENT_3D('',#1221,#1002,#1003);
#810=AXIS2_PLACEMENT_3D('',#1222,#1004,#1005);
#811=AXIS2_PLACEMENT_3D('',#1223,#1006,#1007);
#812=AXIS2_PLACEMENT_3D('',#1226,#1009,#1010);
#813=AXIS2_PLACEMENT_3D('',#1227,#1011,#1012);
#814=AXIS2_PLACEMENT_3D('',#1228,#1013,#1014);
#815=AXIS2_PLACEMENT_3D('',#1231,#1016,#1017);
#816=AXIS2_PLACEMENT_3D('',#1232,#1018,#1019);
#817=AXIS2_PLACEMENT_3D('',#1233,#1020,#1021);
#818=AXIS2_PLACEMENT_3D('',#1235,#1023,#1024);
#819=AXIS2_PLACEMENT_3D('',#1237,#1026,#1027);
#820=AXIS2_PLACEMENT_3D('',#1239,#1029,#1030);
#821=AXIS2_PLACEMENT_3D('',#1241,#1032,#1033);
#822=AXIS2_PLACEMENT_3D('',#1250,#1038,#1039);
#823=AXIS2_PLACEMENT_3D('',#1253,#1042,#1043);
#824=AXIS2_PLACEMENT_3D('',#1255,#1045,#1046);
#825=AXIS2_PLACEMENT_3D('',#1257,#1048,#1049);
#826=DIRECTION('axis',(0.,0.,1.));
#827=DIRECTION('refdir',(1.,0.,0.));
#828=DIRECTION('center_axis',(0.,0.,-1.));
#829=DIRECTION('ref_axis',(-1.,1.027786020868E-13,0.));
#830=DIRECTION('center_axis',(0.,0.,-1.));
#831=DIRECTION('ref_axis',(-1.,0.,0.));
#832=DIRECTION('',(-1.22464679914735E-16,1.26017462044705E-29,-1.));
#833=DIRECTION('center_axis',(0.,0.,-1.));
#834=DIRECTION('ref_axis',(-1.,1.027786020868E-13,0.));
#835=DIRECTION('center_axis',(0.,0.,1.));
#836=DIRECTION('ref_axis',(-1.,0.,0.));
#837=DIRECTION('center_axis',(0.,0.,-1.));
#838=DIRECTION('ref_axis',(-1.,1.02778602086803E-13,0.));
#839=DIRECTION('center_axis',(0.,0.,-1.));
#840=DIRECTION('ref_axis',(-1.,0.,0.));
#841=DIRECTION('',(-1.22464679914735E-16,1.26017462044709E-29,-1.));
#842=DIRECTION('center_axis',(0.,0.,-1.));
#843=DIRECTION('ref_axis',(-1.,1.02778602086803E-13,0.));
#844=DIRECTION('center_axis',(0.,0.,1.));
#845=DIRECTION('ref_axis',(-1.,0.,0.));
#846=DIRECTION('center_axis',(0.,0.,-1.));
#847=DIRECTION('ref_axis',(-1.,1.02778602086803E-13,0.));
#848=DIRECTION('center_axis',(0.,0.,-1.));
#849=DIRECTION('ref_axis',(-1.,0.,0.));
#850=DIRECTION('',(-1.22464679914735E-16,1.26017462044709E-29,-1.));
#851=DIRECTION('center_axis',(0.,0.,-1.));
#852=DIRECTION('ref_axis',(-1.,1.02778602086803E-13,0.));
#853=DIRECTION('center_axis',(0.,0.,1.));
#854=DIRECTION('ref_axis',(-1.,0.,0.));
#855=DIRECTION('center_axis',(0.,0.,-1.));
#856=DIRECTION('ref_axis',(-1.,1.37038136115738E-13,0.));
#857=DIRECTION('center_axis',(0.,0.,-1.));
#858=DIRECTION('ref_axis',(-1.,0.,0.));
#859=DIRECTION('',(-1.22464679914735E-16,1.67973290733524E-29,-1.));
#860=DIRECTION('center_axis',(0.,0.,-1.));
#861=DIRECTION('ref_axis',(-1.,1.37038136115738E-13,0.));
#862=DIRECTION('center_axis',(0.,0.,1.));
#863=DIRECTION('ref_axis',(-1.,0.,0.));
#864=DIRECTION('center_axis',(0.,0.,-1.));
#865=DIRECTION('ref_axis',(-1.,5.13893010434017E-14,0.));
#866=DIRECTION('center_axis',(0.,0.,-1.));
#867=DIRECTION('ref_axis',(-1.,0.,0.));
#868=DIRECTION('',(-1.22464679914735E-16,6.30837190114878E-30,-1.));
#869=DIRECTION('center_axis',(0.,0.,-1.));
#870=DIRECTION('ref_axis',(-1.,5.13893010434017E-14,0.));
#871=DIRECTION('center_axis',(0.,0.,1.));
#872=DIRECTION('ref_axis',(-1.,0.,0.));
#873=DIRECTION('center_axis',(0.,0.,-1.));
#874=DIRECTION('ref_axis',(1.,0.,0.));
#875=DIRECTION('center_axis',(0.,0.,1.));
#876=DIRECTION('ref_axis',(1.,0.,0.));
#877=DIRECTION('center_axis',(0.,0.,-1.));
#878=DIRECTION('ref_axis',(-1.,5.99541845506363E-14,0.));
#879=DIRECTION('center_axis',(0.,0.,-1.));
#880=DIRECTION('ref_axis',(-1.,0.,0.));
#881=DIRECTION('',(-1.22464679914735E-16,7.35726761836927E-30,-1.));
#882=DIRECTION('center_axis',(0.,0.,-1.));
#883=DIRECTION('ref_axis',(-1.,5.99541845506363E-14,0.));
#884=DIRECTION('center_axis',(0.,0.,1.));
#885=DIRECTION('ref_axis',(-1.,0.,0.));
#886=DIRECTION('center_axis',(0.,0.,-1.));
#887=DIRECTION('ref_axis',(1.,0.,0.));
#888=DIRECTION('center_axis',(0.,0.,1.));
#889=DIRECTION('ref_axis',(1.,0.,0.));
#890=DIRECTION('center_axis',(0.,0.,1.));
#891=DIRECTION('ref_axis',(-1.,0.,0.));
#892=DIRECTION('',(-1.,0.,0.));
#893=DIRECTION('center_axis',(0.,0.,1.));
#894=DIRECTION('ref_axis',(-1.,0.,0.));
#895=DIRECTION('',(0.,1.,0.));
#896=DIRECTION('center_axis',(1.,0.,0.));
#897=DIRECTION('ref_axis',(0.,1.,0.));
#898=DIRECTION('',(0.,0.,-1.));
#899=DIRECTION('',(0.,1.,0.));
#900=DIRECTION('',(0.,0.,1.));
#901=DIRECTION('',(0.,1.,0.));
#902=DIRECTION('',(0.,0.,-1.));
#903=DIRECTION('',(0.,1.,0.));
#904=DIRECTION('',(0.,0.,-1.));
#905=DIRECTION('center_axis',(0.,0.,1.));
#906=DIRECTION('ref_axis',(-1.,0.,0.));
#907=DIRECTION('center_axis',(0.,0.,1.));
#908=DIRECTION('ref_axis',(-1.,0.,0.));
#909=DIRECTION('',(0.,-1.,0.));
#910=DIRECTION('',(1.,0.,0.));
#911=DIRECTION('center_axis',(0.,-1.,0.));
#912=DIRECTION('ref_axis',(1.,0.,0.));
#913=DIRECTION('',(0.,0.,1.));
#914=DIRECTION('',(0.,0.,-1.));
#915=DIRECTION('',(1.,0.,0.));
#916=DIRECTION('',(1.,0.,0.));
#917=DIRECTION('',(0.,0.,-1.));
#918=DIRECTION('',(1.,0.,0.));
#919=DIRECTION('',(1.,0.,0.));
#920=DIRECTION('',(0.,0.,-1.));
#921=DIRECTION('',(-1.,0.,0.));
#922=DIRECTION('',(0.,0.,1.));
#923=DIRECTION('center_axis',(0.,0.,1.));
#924=DIRECTION('ref_axis',(-1.,0.,0.));
#925=DIRECTION('',(0.,-1.,0.));
#926=DIRECTION('center_axis',(0.,0.,1.));
#927=DIRECTION('ref_axis',(-1.,0.,0.));
#928=DIRECTION('',(-1.,0.,0.));
#929=DIRECTION('center_axis',(-1.,0.,0.));
#930=DIRECTION('ref_axis',(0.,-1.,0.));
#931=DIRECTION('',(0.,0.,-1.));
#932=DIRECTION('',(0.,-1.,0.));
#933=DIRECTION('',(0.,0.,1.));
#934=DIRECTION('',(0.,0.,1.));
#935=DIRECTION('',(0.,-1.,0.));
#936=DIRECTION('center_axis',(0.,1.,0.));
#937=DIRECTION('ref_axis',(-1.,0.,0.));
#938=DIRECTION('',(-1.,0.,0.));
#939=DIRECTION('',(0.,0.,-1.));
#940=DIRECTION('',(-1.,0.,0.));
#941=DIRECTION('',(0.,0.,1.));
#942=DIRECTION('center_axis',(0.,0.,-1.));
#943=DIRECTION('ref_axis',(1.,0.,0.));
#944=DIRECTION('center_axis',(0.,0.,1.));
#945=DIRECTION('ref_axis',(1.,0.,0.));
#946=DIRECTION('center_axis',(0.,0.,-1.));
#947=DIRECTION('ref_axis',(-1.,0.,0.));
#948=DIRECTION('center_axis',(0.,0.,-1.));
#949=DIRECTION('ref_axis',(1.,0.,0.));
#950=DIRECTION('center_axis',(0.,0.,1.));
#951=DIRECTION('ref_axis',(1.,0.,0.));
#952=DIRECTION('center_axis',(0.,0.,-1.));
#953=DIRECTION('ref_axis',(-1.,0.,0.));
#954=DIRECTION('center_axis',(0.,0.,1.));
#955=DIRECTION('ref_axis',(-1.,0.,0.));
#956=DIRECTION('center_axis',(0.,0.,1.));
#957=DIRECTION('ref_axis',(-1.,0.,0.));
#958=DIRECTION('center_axis',(0.,0.,1.));
#959=DIRECTION('ref_axis',(1.,0.,0.));
#960=DIRECTION('',(0.,1.,0.));
#961=DIRECTION('',(-1.,0.,0.));
#962=DIRECTION('',(0.,-1.,0.));
#963=DIRECTION('',(1.,0.,0.));
#964=DIRECTION('center_axis',(1.,0.,0.));
#965=DIRECTION('ref_axis',(0.,0.,-1.));
#966=DIRECTION('',(0.,0.,1.));
#967=DIRECTION('',(0.,1.,0.));
#968=DIRECTION('',(0.,1.,0.));
#969=DIRECTION('center_axis',(-1.,0.,0.));
#970=DIRECTION('ref_axis',(0.,0.,1.));
#971=DIRECTION('',(0.,0.,-1.));
#972=DIRECTION('',(0.,1.,0.));
#973=DIRECTION('',(0.,1.,0.));
#974=DIRECTION('center_axis',(0.,0.,-1.));
#975=DIRECTION('ref_axis',(-1.,0.,0.));
#976=DIRECTION('',(1.,0.,0.));
#977=DIRECTION('center_axis',(0.,0.,1.));
#978=DIRECTION('ref_axis',(1.,0.,0.));
#979=DIRECTION('',(-1.,0.,0.));
#980=DIRECTION('center_axis',(0.,0.,1.));
#981=DIRECTION('ref_axis',(-1.,0.,0.));
#982=DIRECTION('center_axis',(0.,0.,-1.));
#983=DIRECTION('ref_axis',(-1.,0.,0.));
#984=DIRECTION('center_axis',(0.,0.,1.));
#985=DIRECTION('ref_axis',(0.,1.,0.));
#986=DIRECTION('center_axis',(0.,0.,-1.));
#987=DIRECTION('ref_axis',(-1.,0.,0.));
#988=DIRECTION('center_axis',(0.,0.,-1.));
#989=DIRECTION('ref_axis',(-1.,0.,0.));
#990=DIRECTION('center_axis',(0.,0.,-1.));
#991=DIRECTION('ref_axis',(-1.,0.,0.));
#992=DIRECTION('center_axis',(0.,0.,-1.));
#993=DIRECTION('ref_axis',(1.,0.,0.));
#994=DIRECTION('center_axis',(0.,0.,-1.));
#995=DIRECTION('ref_axis',(1.,0.,0.));
#996=DIRECTION('center_axis',(0.,0.,-1.));
#997=DIRECTION('ref_axis',(1.,0.,0.));
#998=DIRECTION('center_axis',(0.,0.,-1.));
#999=DIRECTION('ref_axis',(1.,0.,0.));
#1000=DIRECTION('center_axis',(0.,0.,1.));
#1001=DIRECTION('ref_axis',(-1.,0.,0.));
#1002=DIRECTION('center_axis',(0.,0.,1.));
#1003=DIRECTION('ref_axis',(-1.,0.,0.));
#1004=DIRECTION('center_axis',(0.,0.,1.));
#1005=DIRECTION('ref_axis',(-1.,0.,0.));
#1006=DIRECTION('center_axis',(0.,0.,-1.));
#1007=DIRECTION('ref_axis',(-1.,0.,0.));
#1008=DIRECTION('',(0.,0.,-1.));
#1009=DIRECTION('center_axis',(0.,0.,-1.));
#1010=DIRECTION('ref_axis',(-1.,0.,0.));
#1011=DIRECTION('center_axis',(0.,0.,1.));
#1012=DIRECTION('ref_axis',(-1.,0.,0.));
#1013=DIRECTION('center_axis',(0.,0.,-1.));
#1014=DIRECTION('ref_axis',(-1.,0.,0.));
#1015=DIRECTION('',(0.,0.,-1.));
#1016=DIRECTION('center_axis',(0.,0.,-1.));
#1017=DIRECTION('ref_axis',(-1.,0.,0.));
#1018=DIRECTION('center_axis',(0.,0.,1.));
#1019=DIRECTION('ref_axis',(-1.,0.,0.));
#1020=DIRECTION('center_axis',(0.,0.,-1.));
#1021=DIRECTION('ref_axis',(1.,0.,0.));
#1022=DIRECTION('',(0.,0.,1.));
#1023=DIRECTION('center_axis',(0.,0.,-1.));
#1024=DIRECTION('ref_axis',(1.,0.,0.));
#1025=DIRECTION('',(0.,0.,1.));
#1026=DIRECTION('center_axis',(0.,0.,-1.));
#1027=DIRECTION('ref_axis',(1.,0.,0.));
#1028=DIRECTION('',(0.,0.,1.));
#1029=DIRECTION('center_axis',(0.,0.,-1.));
#1030=DIRECTION('ref_axis',(1.,0.,0.));
#1031=DIRECTION('',(0.,0.,1.));
#1032=DIRECTION('center_axis',(0.,0.,-1.));
#1033=DIRECTION('ref_axis',(-1.,0.,0.));
#1034=DIRECTION('',(0.,-1.,0.));
#1035=DIRECTION('',(-1.,0.,0.));
#1036=DIRECTION('',(0.,1.,0.));
#1037=DIRECTION('',(1.,0.,0.));
#1038=DIRECTION('center_axis',(0.,-1.,0.));
#1039=DIRECTION('ref_axis',(1.,0.,0.));
#1040=DIRECTION('',(0.,0.,-1.));
#1041=DIRECTION('',(0.,0.,-1.));
#1042=DIRECTION('center_axis',(-1.,0.,0.));
#1043=DIRECTION('ref_axis',(0.,-1.,0.));
#1044=DIRECTION('',(0.,0.,-1.));
#1045=DIRECTION('center_axis',(0.,1.,0.));
#1046=DIRECTION('ref_axis',(-1.,0.,0.));
#1047=DIRECTION('',(0.,0.,1.));
#1048=DIRECTION('center_axis',(1.,0.,0.));
#1049=DIRECTION('ref_axis',(0.,1.,0.));
#1050=CARTESIAN_POINT('',(0.,0.,0.));
#1051=CARTESIAN_POINT('Origin',(191.283015842707,-123.283015842707,6.8834271138979));
#1052=CARTESIAN_POINT('',(192.094515842707,-123.283015842707,7.));
#1053=CARTESIAN_POINT('Origin',(191.283015842707,-123.283015842707,7.));
#1054=CARTESIAN_POINT('',(192.094515842707,-123.283015842707,-1.));
#1055=CARTESIAN_POINT('',(192.094515842707,-123.283015842707,6.8834271138979));
#1056=CARTESIAN_POINT('Origin',(191.283015842707,-123.283015842707,-1.));
#1057=CARTESIAN_POINT('Origin',(191.283015842707,-123.283015842707,-1.));
#1058=CARTESIAN_POINT('Origin',(191.283015842707,-57.2169841572933,6.8834271138979));
#1059=CARTESIAN_POINT('',(192.094515842707,-57.2169841572934,7.));
#1060=CARTESIAN_POINT('Origin',(191.283015842707,-57.2169841572933,7.));
#1061=CARTESIAN_POINT('',(192.094515842707,-57.2169841572934,-1.));
#1062=CARTESIAN_POINT('',(192.094515842707,-57.2169841572934,6.8834271138979));
#1063=CARTESIAN_POINT('Origin',(191.283015842707,-57.2169841572933,-1.));
#1064=CARTESIAN_POINT('Origin',(191.283015842707,-57.2169841572933,-1.));
#1065=CARTESIAN_POINT('Origin',(95.2169841572933,-57.2169841572933,6.88342711389789));
#1066=CARTESIAN_POINT('',(96.0284841572933,-57.2169841572934,7.));
#1067=CARTESIAN_POINT('Origin',(95.2169841572933,-57.2169841572933,7.));
#1068=CARTESIAN_POINT('',(96.0284841572933,-57.2169841572934,-1.));
#1069=CARTESIAN_POINT('',(96.0284841572933,-57.2169841572934,6.88342711389789));
#1070=CARTESIAN_POINT('Origin',(95.2169841572933,-57.2169841572933,-1.));
#1071=CARTESIAN_POINT('Origin',(95.2169841572933,-57.2169841572933,-1.));
#1072=CARTESIAN_POINT('Origin',(95.2169841572933,-123.283015842707,6.88342711389789));
#1073=CARTESIAN_POINT('',(96.0284841572933,-123.283015842707,7.));
#1074=CARTESIAN_POINT('Origin',(95.2169841572933,-123.283015842707,7.));
#1075=CARTESIAN_POINT('',(96.0284841572933,-123.283015842707,-1.));
#1076=CARTESIAN_POINT('',(96.0284841572933,-123.283015842707,6.88342711389789));
#1077=CARTESIAN_POINT('Origin',(95.2169841572933,-123.283015842707,-1.));
#1078=CARTESIAN_POINT('Origin',(95.2169841572933,-123.283015842707,-1.));
#1079=CARTESIAN_POINT('Origin',(101.000001505017,-117.000001743436,2.8834271138979));
#1080=CARTESIAN_POINT('',(101.811501505017,-117.000001743436,3.));
#1081=CARTESIAN_POINT('Origin',(101.000001505017,-117.000001743436,3.));
#1082=CARTESIAN_POINT('',(101.811501505017,-117.000001743436,-2.));
#1083=CARTESIAN_POINT('',(101.811501505017,-117.000001743436,2.8834271138979));
#1084=CARTESIAN_POINT('Origin',(101.000001505017,-117.000001743436,-2.));
#1085=CARTESIAN_POINT('Origin',(101.000001505017,-117.000001743436,-2.));
#1086=CARTESIAN_POINT('Origin',(101.,-117.,3.));
#1087=CARTESIAN_POINT('',(98.5,-117.,3.));
#1088=CARTESIAN_POINT('Origin',(101.,-117.,3.));
#1089=CARTESIAN_POINT('Origin',(101.,-63.5,2.8834271138979));
#1090=CARTESIAN_POINT('',(101.8115,-63.5,3.));
#1091=CARTESIAN_POINT('Origin',(101.,-63.5,3.));
#1092=CARTESIAN_POINT('',(101.8115,-63.5,-2.));
#1093=CARTESIAN_POINT('',(101.8115,-63.5,2.8834271138979));
#1094=CARTESIAN_POINT('Origin',(101.,-63.5,-2.));
#1095=CARTESIAN_POINT('Origin',(101.,-63.5,-2.));
#1096=CARTESIAN_POINT('Origin',(101.,-63.5,3.));
#1097=CARTESIAN_POINT('',(98.5,-63.5,3.));
#1098=CARTESIAN_POINT('Origin',(101.,-63.5,3.));
#1099=CARTESIAN_POINT('Origin',(95.8285,-122.6715,7.));
#1100=CARTESIAN_POINT('',(98.657,-125.5,7.));
#1101=CARTESIAN_POINT('',(93.,-125.5,7.));
#1102=CARTESIAN_POINT('',(144.66425,-125.5,7.));
#1103=CARTESIAN_POINT('',(93.,-119.843,7.));
#1104=CARTESIAN_POINT('Origin',(93.,-125.5,7.));
#1105=CARTESIAN_POINT('',(93.,-124.08575,7.));
#1106=CARTESIAN_POINT('Origin',(93.,-125.5,0.));
#1107=CARTESIAN_POINT('',(93.,-119.843,-2.));
#1108=CARTESIAN_POINT('',(93.,-119.843,-2.));
#1109=CARTESIAN_POINT('',(93.,-60.6568558932195,-2.));
#1110=CARTESIAN_POINT('',(93.,-125.5,-2.));
#1111=CARTESIAN_POINT('',(93.,-60.6568558932195,7.));
#1112=CARTESIAN_POINT('',(93.,-60.6568558932195,-2.));
#1113=CARTESIAN_POINT('',(93.,-55.,7.));
#1114=CARTESIAN_POINT('',(93.,-91.6642139733049,7.));
#1115=CARTESIAN_POINT('',(93.,-55.,8.));
#1116=CARTESIAN_POINT('',(93.,-55.,0.));
#1117=CARTESIAN_POINT('',(93.,-125.5,8.));
#1118=CARTESIAN_POINT('',(93.,-125.5,8.));
#1119=CARTESIAN_POINT('',(93.,-125.5,0.));
#1120=CARTESIAN_POINT('Origin',(190.6715,-57.8285,7.));
#1121=CARTESIAN_POINT('',(187.843,-55.,7.));
#1122=CARTESIAN_POINT('',(193.5,-60.657,7.));
#1123=CARTESIAN_POINT('Origin',(193.5,-55.,7.));
#1124=CARTESIAN_POINT('',(193.5,-55.,7.));
#1125=CARTESIAN_POINT('',(193.5,-56.41425,7.));
#1126=CARTESIAN_POINT('',(141.83575,-55.,7.));
#1127=CARTESIAN_POINT('Origin',(93.,-55.,0.));
#1128=CARTESIAN_POINT('',(187.843,-55.,-2.));
#1129=CARTESIAN_POINT('',(187.843,-55.,-2.));
#1130=CARTESIAN_POINT('',(193.5,-55.,8.));
#1131=CARTESIAN_POINT('',(193.5,-55.,0.));
#1132=CARTESIAN_POINT('',(93.,-55.,8.));
#1133=CARTESIAN_POINT('',(98.6568558932195,-55.,7.));
#1134=CARTESIAN_POINT('',(94.4142139733049,-55.,7.));
#1135=CARTESIAN_POINT('',(98.6568558932195,-55.,-2.));
#1136=CARTESIAN_POINT('',(98.6568558932195,-55.,-2.));
#1137=CARTESIAN_POINT('',(143.25,-55.,-2.));
#1138=CARTESIAN_POINT('',(110.024033830427,-55.,6.50000009685755));
#1139=CARTESIAN_POINT('',(121.000001803041,-55.,6.50000009685755));
#1140=CARTESIAN_POINT('',(101.512016915214,-55.,6.50000009685755));
#1141=CARTESIAN_POINT('',(121.000001803041,-55.,3.00000004470348));
#1142=CARTESIAN_POINT('',(121.000001803041,-55.,3.25000004842877));
#1143=CARTESIAN_POINT('',(110.024033830427,-55.,3.00000004470348));
#1144=CARTESIAN_POINT('',(107.00000090152,-55.,3.00000004470348));
#1145=CARTESIAN_POINT('',(110.024033830427,-55.,1.50000002235174));
#1146=CARTESIAN_POINT('Origin',(190.6715,-122.6715,7.));
#1147=CARTESIAN_POINT('',(193.5,-119.843,7.));
#1148=CARTESIAN_POINT('',(193.5,-125.5,7.));
#1149=CARTESIAN_POINT('',(193.5,-88.83575,7.));
#1150=CARTESIAN_POINT('',(187.843,-125.5,7.));
#1151=CARTESIAN_POINT('Origin',(193.5,-125.5,7.));
#1152=CARTESIAN_POINT('',(192.08575,-125.5,7.));
#1153=CARTESIAN_POINT('Origin',(193.5,-55.,0.));
#1154=CARTESIAN_POINT('',(193.5,-60.657,-2.));
#1155=CARTESIAN_POINT('',(193.5,-60.657,-2.));
#1156=CARTESIAN_POINT('',(193.5,-119.843,-2.));
#1157=CARTESIAN_POINT('',(193.5,-90.25,-2.));
#1158=CARTESIAN_POINT('',(193.5,-119.843,-2.));
#1159=CARTESIAN_POINT('',(193.5,-125.5,8.));
#1160=CARTESIAN_POINT('',(193.5,-125.5,0.));
#1161=CARTESIAN_POINT('',(193.5,-55.,8.));
#1162=CARTESIAN_POINT('Origin',(193.5,-125.5,0.));
#1163=CARTESIAN_POINT('',(193.5,-125.5,8.));
#1164=CARTESIAN_POINT('',(187.843,-125.5,-2.));
#1165=CARTESIAN_POINT('',(187.843,-125.5,-2.));
#1166=CARTESIAN_POINT('',(98.657,-125.5,-2.));
#1167=CARTESIAN_POINT('',(193.5,-125.5,-2.));
#1168=CARTESIAN_POINT('',(98.657,-125.5,-2.));
#1169=CARTESIAN_POINT('Origin',(136.5,-73.,3.));
#1170=CARTESIAN_POINT('',(134.,-73.,3.));
#1171=CARTESIAN_POINT('Origin',(136.5,-73.,3.));
#1172=CARTESIAN_POINT('',(137.311496948987,-72.9999983683228,3.));
#1173=CARTESIAN_POINT('Origin',(136.499996948987,-72.9999983683228,3.));
#1174=CARTESIAN_POINT('Origin',(178.5,-90.5,3.));
#1175=CARTESIAN_POINT('',(176.,-90.5,3.));
#1176=CARTESIAN_POINT('Origin',(178.5,-90.5,3.));
#1177=CARTESIAN_POINT('',(179.311496010214,-90.4999979771674,3.));
#1178=CARTESIAN_POINT('Origin',(178.499996010214,-90.4999979771674,3.));
#1179=CARTESIAN_POINT('Origin',(95.8284279466098,-57.8284279466097,7.));
#1180=CARTESIAN_POINT('Origin',(93.,-55.,7.));
#1181=CARTESIAN_POINT('Origin',(143.25,-90.25,8.));
#1182=CARTESIAN_POINT('',(195.5,-127.5,8.));
#1183=CARTESIAN_POINT('',(195.5,-53.,8.));
#1184=CARTESIAN_POINT('',(195.5,-53.,8.));
#1185=CARTESIAN_POINT('',(91.,-53.,8.));
#1186=CARTESIAN_POINT('',(91.,-53.,8.));
#1187=CARTESIAN_POINT('',(91.,-127.5,8.));
#1188=CARTESIAN_POINT('',(91.,-127.5,8.));
#1189=CARTESIAN_POINT('',(195.5,-127.5,8.));
#1190=CARTESIAN_POINT('Origin',(121.000001803041,-55.,6.50000009685755));
#1191=CARTESIAN_POINT('',(121.000001803041,-53.,3.00000004470348));
#1192=CARTESIAN_POINT('',(121.000001803041,-53.,6.50000009685755));
#1193=CARTESIAN_POINT('',(121.000001803041,-53.,3.25000004842877));
#1194=CARTESIAN_POINT('',(121.000001803041,-55.,3.00000004470348));
#1195=CARTESIAN_POINT('',(121.000001803041,-55.,6.50000009685755));
#1196=CARTESIAN_POINT('Origin',(110.024033830427,-55.,3.00000004470348));
#1197=CARTESIAN_POINT('',(110.024033830427,-53.,6.50000009685755));
#1198=CARTESIAN_POINT('',(110.024033830427,-53.,3.00000004470348));
#1199=CARTESIAN_POINT('',(110.024033830427,-53.,1.50000002235174));
#1200=CARTESIAN_POINT('',(110.024033830427,-55.,6.50000009685755));
#1201=CARTESIAN_POINT('',(110.024033830427,-55.,3.00000004470348));
#1202=CARTESIAN_POINT('Origin',(121.000001803041,-55.,3.00000004470348));
#1203=CARTESIAN_POINT('',(158.25000090152,-53.,3.00000004470348));
#1204=CARTESIAN_POINT('Origin',(110.896422472141,-55.,6.50000009685755));
#1205=CARTESIAN_POINT('',(152.762016915214,-53.,6.50000009685755));
#1206=CARTESIAN_POINT('Origin',(93.,-125.5,-2.));
#1207=CARTESIAN_POINT('Origin',(93.,-125.5,-2.));
#1208=CARTESIAN_POINT('Origin',(193.5,-125.5,-2.));
#1209=CARTESIAN_POINT('Origin',(193.5,-125.5,-2.));
#1210=CARTESIAN_POINT('Origin',(193.5,-55.,-2.));
#1211=CARTESIAN_POINT('Origin',(93.,-55.,-2.));
#1212=CARTESIAN_POINT('',(176.,-90.5,-2.));
#1213=CARTESIAN_POINT('Origin',(178.5,-90.5,-2.));
#1214=CARTESIAN_POINT('',(134.,-73.,-2.));
#1215=CARTESIAN_POINT('Origin',(136.5,-73.,-2.));
#1216=CARTESIAN_POINT('',(98.5,-63.5,-2.));
#1217=CARTESIAN_POINT('Origin',(101.,-63.5,-2.));
#1218=CARTESIAN_POINT('',(98.5,-117.,-2.));
#1219=CARTESIAN_POINT('Origin',(101.,-117.,-2.));
#1220=CARTESIAN_POINT('Origin',(193.5,-125.5,-2.));
#1221=CARTESIAN_POINT('Origin',(93.,-55.,-2.));
#1222=CARTESIAN_POINT('Origin',(193.5,-55.,-2.));
#1223=CARTESIAN_POINT('Origin',(136.499996948987,-72.9999983683228,0.));
#1224=CARTESIAN_POINT('',(137.311496948987,-72.9999983683228,-2.));
#1225=CARTESIAN_POINT('',(137.311496948987,-72.9999983683228,0.));
#1226=CARTESIAN_POINT('Origin',(136.499996948987,-72.9999983683228,-2.));
#1227=CARTESIAN_POINT('Origin',(136.499996948987,-72.9999983683228,-2.));
#1228=CARTESIAN_POINT('Origin',(178.499996010214,-90.4999979771674,0.));
#1229=CARTESIAN_POINT('',(179.311496010214,-90.4999979771674,-2.));
#1230=CARTESIAN_POINT('',(179.311496010214,-90.4999979771674,0.));
#1231=CARTESIAN_POINT('Origin',(178.499996010214,-90.4999979771674,-2.));
#1232=CARTESIAN_POINT('Origin',(178.499996010214,-90.4999979771674,-2.));
#1233=CARTESIAN_POINT('Origin',(101.,-63.5,0.));
#1234=CARTESIAN_POINT('',(98.5,-63.5,0.));
#1235=CARTESIAN_POINT('Origin',(101.,-117.,0.));
#1236=CARTESIAN_POINT('',(98.5,-117.,0.));
#1237=CARTESIAN_POINT('Origin',(136.5,-73.,0.));
#1238=CARTESIAN_POINT('',(134.,-73.,0.));
#1239=CARTESIAN_POINT('Origin',(178.5,-90.5,0.));
#1240=CARTESIAN_POINT('',(176.,-90.5,0.));
#1241=CARTESIAN_POINT('Origin',(143.25,-90.25,-4.));
#1242=CARTESIAN_POINT('',(195.5,-53.,-4.));
#1243=CARTESIAN_POINT('',(195.5,-127.5,-4.));
#1244=CARTESIAN_POINT('',(195.5,-53.,-4.));
#1245=CARTESIAN_POINT('',(91.,-127.5,-4.));
#1246=CARTESIAN_POINT('',(195.5,-127.5,-4.));
#1247=CARTESIAN_POINT('',(91.,-53.,-4.));
#1248=CARTESIAN_POINT('',(91.,-127.5,-4.));
#1249=CARTESIAN_POINT('',(91.,-53.,-4.));
#1250=CARTESIAN_POINT('Origin',(91.,-127.5,0.));
#1251=CARTESIAN_POINT('',(195.5,-127.5,0.));
#1252=CARTESIAN_POINT('',(91.,-127.5,0.));
#1253=CARTESIAN_POINT('Origin',(91.,-53.,0.));
#1254=CARTESIAN_POINT('',(91.,-53.,0.));
#1255=CARTESIAN_POINT('Origin',(195.5,-53.,0.));
#1256=CARTESIAN_POINT('',(195.5,-53.,0.));
#1257=CARTESIAN_POINT('Origin',(195.5,-127.5,0.));
#1258=UNCERTAINTY_MEASURE_WITH_UNIT(LENGTH_MEASURE(0.01),#1262,
'DISTANCE_ACCURACY_VALUE',
'Maximum model space distance between geometric entities at asserted c
onnectivities');
#1259=UNCERTAINTY_MEASURE_WITH_UNIT(LENGTH_MEASURE(0.01),#1262,
'DISTANCE_ACCURACY_VALUE',
'Maximum model space distance between geometric entities at asserted c
onnectivities');
#1260=(
GEOMETRIC_REPRESENTATION_CONTEXT(3)
GLOBAL_UNCERTAINTY_ASSIGNED_CONTEXT((#1258))
GLOBAL_UNIT_ASSIGNED_CONTEXT((#1262,#1263,#1264))
REPRESENTATION_CONTEXT('','3D')
);
#1261=(
GEOMETRIC_REPRESENTATION_CONTEXT(3)
GLOBAL_UNCERTAINTY_ASSIGNED_CONTEXT((#1259))
GLOBAL_UNIT_ASSIGNED_CONTEXT((#1262,#1263,#1264))
REPRESENTATION_CONTEXT('','3D')
);
#1262=(
LENGTH_UNIT()
NAMED_UNIT(*)
SI_UNIT(.MILLI.,.METRE.)
);
#1263=(
NAMED_UNIT(*)
PLANE_ANGLE_UNIT()
SI_UNIT($,.RADIAN.)
);
#1264=(
NAMED_UNIT(*)
SI_UNIT($,.STERADIAN.)
SOLID_ANGLE_UNIT()
);
#1265=SHAPE_DEFINITION_REPRESENTATION(#1266,#1267);
#1266=PRODUCT_DEFINITION_SHAPE('',$,#1269);
#1267=SHAPE_REPRESENTATION('',(#746),#1260);
#1268=PRODUCT_DEFINITION_CONTEXT('part definition',#1273,'design');
#1269=PRODUCT_DEFINITION('my-keyboard 1','my-keyboard',#1270,#1268);
#1270=PRODUCT_DEFINITION_FORMATION('',$,#1275);
#1271=PRODUCT_RELATED_PRODUCT_CATEGORY('my-keyboard','my-keyboard',(#1275));
#1272=APPLICATION_PROTOCOL_DEFINITION('international standard',
'automotive_design',2009,#1273);
#1273=APPLICATION_CONTEXT(
'Core Data for Automotive Mechanical Design Process');
#1274=PRODUCT_CONTEXT('part definition',#1273,'mechanical');
#1275=PRODUCT('my-keyboard 1','my-keyboard','KiCad electronic assembly',
(#1274));
#1276=PRESENTATION_STYLE_ASSIGNMENT((#1277));
#1277=SURFACE_STYLE_USAGE(.BOTH.,#1278);
#1278=SURFACE_SIDE_STYLE('',(#1279));
#1279=SURFACE_STYLE_FILL_AREA(#1280);
#1280=FILL_AREA_STYLE('Stal \X2\2014\X0\ satynowa',(#1281));
#1281=FILL_AREA_STYLE_COLOUR('Stal \X2\2014\X0\ satynowa',#1282);
#1282=COLOUR_RGB('Stal \X2\2014\X0\ satynowa',0.627450980392157,0.627450980392157,
0.627450980392157);
ENDSEC;
END-ISO-10303-21;
