ISO-10303-21;
HEADER;
/* Generated by software containing ST-Developer
 * from STEP Tools, Inc. (www.steptools.com) 
 */

FILE_DESCRIPTION(
/* description */ ('KiCad electronic assembly'),
/* implementation_level */ '2;1');

FILE_NAME(
/* name */ 'top.step',
/* time_stamp */ '2026-08-03T20:27:33+02:00',
/* author */ (''),
/* organization */ (''),
/* preprocessor_version */ 'ST-DEVELOPER v20.1',
/* originating_system */ 'Autodesk Translation Framework v15.8.0.0',
/* authorisation */ '');

FILE_SCHEMA (('AUTOMOTIVE_DESIGN { 1 0 10303 214 3 1 1 }'));
ENDSEC;

DATA;
#10=MECHANICAL_DESIGN_GEOMETRIC_PRESENTATION_REPRESENTATION('',(#13),#1049);
#11=SHAPE_REPRESENTATION_RELATIONSHIP('SRR','None',#1055,#12);
#12=ADVANCED_BREP_SHAPE_REPRESENTATION('',(#14),#1048);
#13=STYLED_ITEM('',(#1064),#14);
#14=MANIFOLD_SOLID_BREP('Lid',#645);
#15=CYLINDRICAL_SURFACE('',#664,1.99999999999999);
#16=CYLINDRICAL_SURFACE('',#669,1.99999999999999);
#17=CYLINDRICAL_SURFACE('',#674,2.00000000000001);
#18=CYLINDRICAL_SURFACE('',#679,1.99999999999999);
#19=CYLINDRICAL_SURFACE('',#684,1.00000000000001);
#20=CYLINDRICAL_SURFACE('',#685,0.999999999999996);
#21=CYLINDRICAL_SURFACE('',#686,1.00000000000001);
#22=CYLINDRICAL_SURFACE('',#687,0.999999999999996);
#23=FACE_BOUND('',#94,.T.);
#24=FACE_BOUND('',#95,.T.);
#25=FACE_BOUND('',#96,.T.);
#26=FACE_BOUND('',#97,.T.);
#27=FACE_BOUND('',#98,.T.);
#28=FACE_BOUND('',#109,.T.);
#29=FACE_BOUND('',#112,.T.);
#30=FACE_BOUND('',#115,.T.);
#31=FACE_BOUND('',#118,.T.);
#32=FACE_BOUND('',#124,.T.);
#33=FACE_BOUND('',#130,.T.);
#34=FACE_BOUND('',#131,.T.);
#35=FACE_BOUND('',#132,.T.);
#36=FACE_BOUND('',#133,.T.);
#37=FACE_BOUND('',#134,.T.);
#38=CIRCLE('',#652,0.999999999999996);
#39=CIRCLE('',#653,1.00000000000001);
#40=CIRCLE('',#654,0.999999999999996);
#41=CIRCLE('',#655,1.00000000000001);
#42=CIRCLE('',#665,1.99999999999999);
#43=CIRCLE('',#666,1.99999999999999);
#44=CIRCLE('',#668,1.00000000000001);
#45=CIRCLE('',#670,1.99999999999999);
#46=CIRCLE('',#671,1.99999999999999);
#47=CIRCLE('',#673,1.00000000000001);
#48=CIRCLE('',#675,2.00000000000001);
#49=CIRCLE('',#676,2.00000000000001);
#50=CIRCLE('',#678,0.999999999999996);
#51=CIRCLE('',#680,1.99999999999999);
#52=CIRCLE('',#681,1.99999999999999);
#53=CIRCLE('',#683,0.999999999999996);
#54=FACE_OUTER_BOUND('',#89,.T.);
#55=FACE_OUTER_BOUND('',#90,.T.);
#56=FACE_OUTER_BOUND('',#91,.T.);
#57=FACE_OUTER_BOUND('',#92,.T.);
#58=FACE_OUTER_BOUND('',#93,.T.);
#59=FACE_OUTER_BOUND('',#99,.T.);
#60=FACE_OUTER_BOUND('',#100,.T.);
#61=FACE_OUTER_BOUND('',#101,.T.);
#62=FACE_OUTER_BOUND('',#102,.T.);
#63=FACE_OUTER_BOUND('',#103,.T.);
#64=FACE_OUTER_BOUND('',#104,.T.);
#65=FACE_OUTER_BOUND('',#105,.T.);
#66=FACE_OUTER_BOUND('',#106,.T.);
#67=FACE_OUTER_BOUND('',#107,.T.);
#68=FACE_OUTER_BOUND('',#108,.T.);
#69=FACE_OUTER_BOUND('',#110,.T.);
#70=FACE_OUTER_BOUND('',#111,.T.);
#71=FACE_OUTER_BOUND('',#113,.T.);
#72=FACE_OUTER_BOUND('',#114,.T.);
#73=FACE_OUTER_BOUND('',#116,.T.);
#74=FACE_OUTER_BOUND('',#117,.T.);
#75=FACE_OUTER_BOUND('',#119,.T.);
#76=FACE_OUTER_BOUND('',#120,.T.);
#77=FACE_OUTER_BOUND('',#121,.T.);
#78=FACE_OUTER_BOUND('',#122,.T.);
#79=FACE_OUTER_BOUND('',#123,.T.);
#80=FACE_OUTER_BOUND('',#125,.T.);
#81=FACE_OUTER_BOUND('',#126,.T.);
#82=FACE_OUTER_BOUND('',#127,.T.);
#83=FACE_OUTER_BOUND('',#128,.T.);
#84=FACE_OUTER_BOUND('',#129,.T.);
#85=FACE_OUTER_BOUND('',#135,.T.);
#86=FACE_OUTER_BOUND('',#136,.T.);
#87=FACE_OUTER_BOUND('',#137,.T.);
#88=FACE_OUTER_BOUND('',#138,.T.);
#89=EDGE_LOOP('',(#415,#416,#417,#418));
#90=EDGE_LOOP('',(#419,#420,#421,#422));
#91=EDGE_LOOP('',(#423,#424,#425,#426));
#92=EDGE_LOOP('',(#427,#428,#429,#430));
#93=EDGE_LOOP('',(#431,#432,#433,#434));
#94=EDGE_LOOP('',(#435));
#95=EDGE_LOOP('',(#436));
#96=EDGE_LOOP('',(#437));
#97=EDGE_LOOP('',(#438));
#98=EDGE_LOOP('',(#439,#440,#441,#442,#443,#444,#445,#446,#447,#448,#449,
#450));
#99=EDGE_LOOP('',(#451,#452,#453,#454));
#100=EDGE_LOOP('',(#455,#456,#457,#458));
#101=EDGE_LOOP('',(#459,#460,#461,#462));
#102=EDGE_LOOP('',(#463,#464,#465,#466));
#103=EDGE_LOOP('',(#467,#468,#469,#470));
#104=EDGE_LOOP('',(#471,#472,#473,#474));
#105=EDGE_LOOP('',(#475,#476,#477,#478));
#106=EDGE_LOOP('',(#479,#480,#481,#482));
#107=EDGE_LOOP('',(#483,#484,#485,#486));
#108=EDGE_LOOP('',(#487));
#109=EDGE_LOOP('',(#488));
#110=EDGE_LOOP('',(#489,#490,#491,#492));
#111=EDGE_LOOP('',(#493));
#112=EDGE_LOOP('',(#494));
#113=EDGE_LOOP('',(#495,#496,#497,#498));
#114=EDGE_LOOP('',(#499));
#115=EDGE_LOOP('',(#500));
#116=EDGE_LOOP('',(#501,#502,#503,#504));
#117=EDGE_LOOP('',(#505));
#118=EDGE_LOOP('',(#506));
#119=EDGE_LOOP('',(#507,#508,#509,#510));
#120=EDGE_LOOP('',(#511,#512,#513,#514));
#121=EDGE_LOOP('',(#515,#516,#517,#518));
#122=EDGE_LOOP('',(#519,#520,#521,#522));
#123=EDGE_LOOP('',(#523,#524,#525,#526));
#124=EDGE_LOOP('',(#527,#528,#529,#530));
#125=EDGE_LOOP('',(#531,#532,#533,#534));
#126=EDGE_LOOP('',(#535,#536,#537,#538));
#127=EDGE_LOOP('',(#539,#540,#541,#542));
#128=EDGE_LOOP('',(#543,#544,#545,#546));
#129=EDGE_LOOP('',(#547,#548,#549,#550));
#130=EDGE_LOOP('',(#551,#552,#553,#554,#555,#556,#557,#558,#559,#560,#561,
#562));
#131=EDGE_LOOP('',(#563));
#132=EDGE_LOOP('',(#564));
#133=EDGE_LOOP('',(#565));
#134=EDGE_LOOP('',(#566));
#135=EDGE_LOOP('',(#567,#568,#569,#570));
#136=EDGE_LOOP('',(#571,#572,#573,#574));
#137=EDGE_LOOP('',(#575,#576,#577,#578));
#138=EDGE_LOOP('',(#579,#580,#581,#582));
#139=LINE('',#874,#207);
#140=LINE('',#876,#208);
#141=LINE('',#878,#209);
#142=LINE('',#879,#210);
#143=LINE('',#882,#211);
#144=LINE('',#884,#212);
#145=LINE('',#885,#213);
#146=LINE('',#889,#214);
#147=LINE('',#891,#215);
#148=LINE('',#893,#216);
#149=LINE('',#894,#217);
#150=LINE('',#897,#218);
#151=LINE('',#899,#219);
#152=LINE('',#900,#220);
#153=LINE('',#904,#221);
#154=LINE('',#906,#222);
#155=LINE('',#908,#223);
#156=LINE('',#909,#224);
#157=LINE('',#919,#225);
#158=LINE('',#921,#226);
#159=LINE('',#923,#227);
#160=LINE('',#924,#228);
#161=LINE('',#926,#229);
#162=LINE('',#928,#230);
#163=LINE('',#930,#231);
#164=LINE('',#931,#232);
#165=LINE('',#934,#233);
#166=LINE('',#935,#234);
#167=LINE('',#938,#235);
#168=LINE('',#940,#236);
#169=LINE('',#941,#237);
#170=LINE('',#944,#238);
#171=LINE('',#945,#239);
#172=LINE('',#948,#240);
#173=LINE('',#949,#241);
#174=LINE('',#952,#242);
#175=LINE('',#953,#243);
#176=LINE('',#955,#244);
#177=LINE('',#957,#245);
#178=LINE('',#959,#246);
#179=LINE('',#964,#247);
#180=LINE('',#973,#248);
#181=LINE('',#982,#249);
#182=LINE('',#991,#250);
#183=LINE('',#997,#251);
#184=LINE('',#999,#252);
#185=LINE('',#1001,#253);
#186=LINE('',#1003,#254);
#187=LINE('',#1007,#255);
#188=LINE('',#1009,#256);
#189=LINE('',#1011,#257);
#190=LINE('',#1012,#258);
#191=LINE('',#1015,#259);
#192=LINE('',#1017,#260);
#193=LINE('',#1019,#261);
#194=LINE('',#1020,#262);
#195=LINE('',#1023,#263);
#196=LINE('',#1025,#264);
#197=LINE('',#1026,#265);
#198=LINE('',#1029,#266);
#199=LINE('',#1030,#267);
#200=LINE('',#1033,#268);
#201=LINE('',#1034,#269);
#202=LINE('',#1036,#270);
#203=LINE('',#1039,#271);
#204=LINE('',#1040,#272);
#205=LINE('',#1042,#273);
#206=LINE('',#1044,#274);
#207=VECTOR('',#702,10.);
#208=VECTOR('',#703,10.);
#209=VECTOR('',#704,10.);
#210=VECTOR('',#705,10.);
#211=VECTOR('',#708,10.);
#212=VECTOR('',#709,10.);
#213=VECTOR('',#710,10.);
#214=VECTOR('',#713,10.);
#215=VECTOR('',#714,10.);
#216=VECTOR('',#715,10.);
#217=VECTOR('',#716,10.);
#218=VECTOR('',#719,10.);
#219=VECTOR('',#720,10.);
#220=VECTOR('',#721,10.);
#221=VECTOR('',#724,10.);
#222=VECTOR('',#725,10.);
#223=VECTOR('',#726,10.);
#224=VECTOR('',#727,10.);
#225=VECTOR('',#736,10.);
#226=VECTOR('',#737,10.);
#227=VECTOR('',#738,10.);
#228=VECTOR('',#739,10.);
#229=VECTOR('',#740,10.);
#230=VECTOR('',#741,10.);
#231=VECTOR('',#742,10.);
#232=VECTOR('',#743,10.);
#233=VECTOR('',#746,10.);
#234=VECTOR('',#747,10.);
#235=VECTOR('',#750,10.);
#236=VECTOR('',#751,10.);
#237=VECTOR('',#752,10.);
#238=VECTOR('',#755,10.);
#239=VECTOR('',#756,10.);
#240=VECTOR('',#759,10.);
#241=VECTOR('',#760,10.);
#242=VECTOR('',#763,10.);
#243=VECTOR('',#764,10.);
#244=VECTOR('',#767,10.);
#245=VECTOR('',#770,10.);
#246=VECTOR('',#773,10.);
#247=VECTOR('',#778,1.99999999999999);
#248=VECTOR('',#789,1.99999999999999);
#249=VECTOR('',#800,2.00000000000001);
#250=VECTOR('',#811,1.99999999999999);
#251=VECTOR('',#820,1.00000000000001);
#252=VECTOR('',#823,0.999999999999996);
#253=VECTOR('',#826,1.00000000000001);
#254=VECTOR('',#829,0.999999999999996);
#255=VECTOR('',#832,10.);
#256=VECTOR('',#833,10.);
#257=VECTOR('',#834,10.);
#258=VECTOR('',#835,10.);
#259=VECTOR('',#836,10.);
#260=VECTOR('',#837,10.);
#261=VECTOR('',#838,10.);
#262=VECTOR('',#839,10.);
#263=VECTOR('',#842,10.);
#264=VECTOR('',#843,10.);
#265=VECTOR('',#844,10.);
#266=VECTOR('',#847,10.);
#267=VECTOR('',#848,10.);
#268=VECTOR('',#851,10.);
#269=VECTOR('',#852,10.);
#270=VECTOR('',#855,10.);
#271=VECTOR('',#860,10.);
#272=VECTOR('',#861,10.);
#273=VECTOR('',#864,10.);
#274=VECTOR('',#867,10.);
#275=VERTEX_POINT('',#872);
#276=VERTEX_POINT('',#873);
#277=VERTEX_POINT('',#875);
#278=VERTEX_POINT('',#877);
#279=VERTEX_POINT('',#881);
#280=VERTEX_POINT('',#883);
#281=VERTEX_POINT('',#887);
#282=VERTEX_POINT('',#888);
#283=VERTEX_POINT('',#890);
#284=VERTEX_POINT('',#892);
#285=VERTEX_POINT('',#896);
#286=VERTEX_POINT('',#898);
#287=VERTEX_POINT('',#902);
#288=VERTEX_POINT('',#903);
#289=VERTEX_POINT('',#905);
#290=VERTEX_POINT('',#907);
#291=VERTEX_POINT('',#910);
#292=VERTEX_POINT('',#912);
#293=VERTEX_POINT('',#914);
#294=VERTEX_POINT('',#916);
#295=VERTEX_POINT('',#918);
#296=VERTEX_POINT('',#920);
#297=VERTEX_POINT('',#922);
#298=VERTEX_POINT('',#925);
#299=VERTEX_POINT('',#927);
#300=VERTEX_POINT('',#929);
#301=VERTEX_POINT('',#933);
#302=VERTEX_POINT('',#937);
#303=VERTEX_POINT('',#939);
#304=VERTEX_POINT('',#943);
#305=VERTEX_POINT('',#947);
#306=VERTEX_POINT('',#951);
#307=VERTEX_POINT('',#961);
#308=VERTEX_POINT('',#963);
#309=VERTEX_POINT('',#967);
#310=VERTEX_POINT('',#970);
#311=VERTEX_POINT('',#972);
#312=VERTEX_POINT('',#976);
#313=VERTEX_POINT('',#979);
#314=VERTEX_POINT('',#981);
#315=VERTEX_POINT('',#985);
#316=VERTEX_POINT('',#988);
#317=VERTEX_POINT('',#990);
#318=VERTEX_POINT('',#994);
#319=VERTEX_POINT('',#1005);
#320=VERTEX_POINT('',#1006);
#321=VERTEX_POINT('',#1008);
#322=VERTEX_POINT('',#1010);
#323=VERTEX_POINT('',#1013);
#324=VERTEX_POINT('',#1014);
#325=VERTEX_POINT('',#1016);
#326=VERTEX_POINT('',#1018);
#327=VERTEX_POINT('',#1022);
#328=VERTEX_POINT('',#1024);
#329=VERTEX_POINT('',#1028);
#330=VERTEX_POINT('',#1032);
#331=EDGE_CURVE('',#275,#276,#139,.T.);
#332=EDGE_CURVE('',#277,#275,#140,.T.);
#333=EDGE_CURVE('',#277,#278,#141,.T.);
#334=EDGE_CURVE('',#276,#278,#142,.T.);
#335=EDGE_CURVE('',#278,#279,#143,.T.);
#336=EDGE_CURVE('',#280,#277,#144,.T.);
#337=EDGE_CURVE('',#279,#280,#145,.T.);
#338=EDGE_CURVE('',#281,#282,#146,.T.);
#339=EDGE_CURVE('',#283,#281,#147,.T.);
#340=EDGE_CURVE('',#284,#283,#148,.T.);
#341=EDGE_CURVE('',#282,#284,#149,.T.);
#342=EDGE_CURVE('',#285,#280,#150,.T.);
#343=EDGE_CURVE('',#286,#285,#151,.T.);
#344=EDGE_CURVE('',#279,#286,#152,.T.);
#345=EDGE_CURVE('',#287,#288,#153,.T.);
#346=EDGE_CURVE('',#288,#289,#154,.T.);
#347=EDGE_CURVE('',#289,#290,#155,.T.);
#348=EDGE_CURVE('',#290,#287,#156,.T.);
#349=EDGE_CURVE('',#291,#291,#38,.T.);
#350=EDGE_CURVE('',#292,#292,#39,.T.);
#351=EDGE_CURVE('',#293,#293,#40,.T.);
#352=EDGE_CURVE('',#294,#294,#41,.T.);
#353=EDGE_CURVE('',#286,#295,#157,.T.);
#354=EDGE_CURVE('',#295,#296,#158,.T.);
#355=EDGE_CURVE('',#296,#297,#159,.T.);
#356=EDGE_CURVE('',#297,#283,#160,.T.);
#357=EDGE_CURVE('',#281,#298,#161,.T.);
#358=EDGE_CURVE('',#298,#299,#162,.T.);
#359=EDGE_CURVE('',#299,#300,#163,.T.);
#360=EDGE_CURVE('',#300,#276,#164,.T.);
#361=EDGE_CURVE('',#301,#282,#165,.T.);
#362=EDGE_CURVE('',#298,#301,#166,.T.);
#363=EDGE_CURVE('',#296,#302,#167,.T.);
#364=EDGE_CURVE('',#295,#303,#168,.T.);
#365=EDGE_CURVE('',#302,#303,#169,.T.);
#366=EDGE_CURVE('',#304,#302,#170,.T.);
#367=EDGE_CURVE('',#297,#304,#171,.T.);
#368=EDGE_CURVE('',#300,#305,#172,.T.);
#369=EDGE_CURVE('',#275,#305,#173,.T.);
#370=EDGE_CURVE('',#305,#306,#174,.T.);
#371=EDGE_CURVE('',#299,#306,#175,.T.);
#372=EDGE_CURVE('',#306,#301,#176,.T.);
#373=EDGE_CURVE('',#284,#304,#177,.T.);
#374=EDGE_CURVE('',#303,#285,#178,.T.);
#375=EDGE_CURVE('',#307,#307,#42,.T.);
#376=EDGE_CURVE('',#307,#308,#179,.T.);
#377=EDGE_CURVE('',#308,#308,#43,.T.);
#378=EDGE_CURVE('',#309,#309,#44,.T.);
#379=EDGE_CURVE('',#310,#310,#45,.T.);
#380=EDGE_CURVE('',#310,#311,#180,.T.);
#381=EDGE_CURVE('',#311,#311,#46,.T.);
#382=EDGE_CURVE('',#312,#312,#47,.T.);
#383=EDGE_CURVE('',#313,#313,#48,.T.);
#384=EDGE_CURVE('',#313,#314,#181,.T.);
#385=EDGE_CURVE('',#314,#314,#49,.T.);
#386=EDGE_CURVE('',#315,#315,#50,.T.);
#387=EDGE_CURVE('',#316,#316,#51,.T.);
#388=EDGE_CURVE('',#316,#317,#182,.T.);
#389=EDGE_CURVE('',#317,#317,#52,.T.);
#390=EDGE_CURVE('',#318,#318,#53,.T.);
#391=EDGE_CURVE('',#312,#294,#183,.T.);
#392=EDGE_CURVE('',#318,#293,#184,.T.);
#393=EDGE_CURVE('',#309,#292,#185,.T.);
#394=EDGE_CURVE('',#315,#291,#186,.T.);
#395=EDGE_CURVE('',#319,#320,#187,.T.);
#396=EDGE_CURVE('',#321,#319,#188,.T.);
#397=EDGE_CURVE('',#322,#321,#189,.T.);
#398=EDGE_CURVE('',#320,#322,#190,.T.);
#399=EDGE_CURVE('',#323,#324,#191,.T.);
#400=EDGE_CURVE('',#325,#323,#192,.T.);
#401=EDGE_CURVE('',#326,#325,#193,.T.);
#402=EDGE_CURVE('',#324,#326,#194,.T.);
#403=EDGE_CURVE('',#319,#327,#195,.T.);
#404=EDGE_CURVE('',#328,#327,#196,.T.);
#405=EDGE_CURVE('',#321,#328,#197,.T.);
#406=EDGE_CURVE('',#329,#328,#198,.T.);
#407=EDGE_CURVE('',#322,#329,#199,.T.);
#408=EDGE_CURVE('',#330,#329,#200,.T.);
#409=EDGE_CURVE('',#320,#330,#201,.T.);
#410=EDGE_CURVE('',#327,#330,#202,.T.);
#411=EDGE_CURVE('',#324,#288,#203,.T.);
#412=EDGE_CURVE('',#323,#287,#204,.T.);
#413=EDGE_CURVE('',#325,#290,#205,.T.);
#414=EDGE_CURVE('',#326,#289,#206,.T.);
#415=ORIENTED_EDGE('',*,*,#331,.F.);
#416=ORIENTED_EDGE('',*,*,#332,.F.);
#417=ORIENTED_EDGE('',*,*,#333,.T.);
#418=ORIENTED_EDGE('',*,*,#334,.F.);
#419=ORIENTED_EDGE('',*,*,#335,.F.);
#420=ORIENTED_EDGE('',*,*,#333,.F.);
#421=ORIENTED_EDGE('',*,*,#336,.F.);
#422=ORIENTED_EDGE('',*,*,#337,.F.);
#423=ORIENTED_EDGE('',*,*,#338,.F.);
#424=ORIENTED_EDGE('',*,*,#339,.F.);
#425=ORIENTED_EDGE('',*,*,#340,.F.);
#426=ORIENTED_EDGE('',*,*,#341,.F.);
#427=ORIENTED_EDGE('',*,*,#337,.T.);
#428=ORIENTED_EDGE('',*,*,#342,.F.);
#429=ORIENTED_EDGE('',*,*,#343,.F.);
#430=ORIENTED_EDGE('',*,*,#344,.F.);
#431=ORIENTED_EDGE('',*,*,#345,.T.);
#432=ORIENTED_EDGE('',*,*,#346,.T.);
#433=ORIENTED_EDGE('',*,*,#347,.T.);
#434=ORIENTED_EDGE('',*,*,#348,.T.);
#435=ORIENTED_EDGE('',*,*,#349,.T.);
#436=ORIENTED_EDGE('',*,*,#350,.T.);
#437=ORIENTED_EDGE('',*,*,#351,.T.);
#438=ORIENTED_EDGE('',*,*,#352,.T.);
#439=ORIENTED_EDGE('',*,*,#334,.T.);
#440=ORIENTED_EDGE('',*,*,#335,.T.);
#441=ORIENTED_EDGE('',*,*,#344,.T.);
#442=ORIENTED_EDGE('',*,*,#353,.T.);
#443=ORIENTED_EDGE('',*,*,#354,.T.);
#444=ORIENTED_EDGE('',*,*,#355,.T.);
#445=ORIENTED_EDGE('',*,*,#356,.T.);
#446=ORIENTED_EDGE('',*,*,#339,.T.);
#447=ORIENTED_EDGE('',*,*,#357,.T.);
#448=ORIENTED_EDGE('',*,*,#358,.T.);
#449=ORIENTED_EDGE('',*,*,#359,.T.);
#450=ORIENTED_EDGE('',*,*,#360,.T.);
#451=ORIENTED_EDGE('',*,*,#338,.T.);
#452=ORIENTED_EDGE('',*,*,#361,.F.);
#453=ORIENTED_EDGE('',*,*,#362,.F.);
#454=ORIENTED_EDGE('',*,*,#357,.F.);
#455=ORIENTED_EDGE('',*,*,#363,.F.);
#456=ORIENTED_EDGE('',*,*,#354,.F.);
#457=ORIENTED_EDGE('',*,*,#364,.T.);
#458=ORIENTED_EDGE('',*,*,#365,.F.);
#459=ORIENTED_EDGE('',*,*,#363,.T.);
#460=ORIENTED_EDGE('',*,*,#366,.F.);
#461=ORIENTED_EDGE('',*,*,#367,.F.);
#462=ORIENTED_EDGE('',*,*,#355,.F.);
#463=ORIENTED_EDGE('',*,*,#331,.T.);
#464=ORIENTED_EDGE('',*,*,#360,.F.);
#465=ORIENTED_EDGE('',*,*,#368,.T.);
#466=ORIENTED_EDGE('',*,*,#369,.F.);
#467=ORIENTED_EDGE('',*,*,#370,.F.);
#468=ORIENTED_EDGE('',*,*,#368,.F.);
#469=ORIENTED_EDGE('',*,*,#359,.F.);
#470=ORIENTED_EDGE('',*,*,#371,.T.);
#471=ORIENTED_EDGE('',*,*,#372,.F.);
#472=ORIENTED_EDGE('',*,*,#371,.F.);
#473=ORIENTED_EDGE('',*,*,#358,.F.);
#474=ORIENTED_EDGE('',*,*,#362,.T.);
#475=ORIENTED_EDGE('',*,*,#340,.T.);
#476=ORIENTED_EDGE('',*,*,#356,.F.);
#477=ORIENTED_EDGE('',*,*,#367,.T.);
#478=ORIENTED_EDGE('',*,*,#373,.F.);
#479=ORIENTED_EDGE('',*,*,#374,.F.);
#480=ORIENTED_EDGE('',*,*,#364,.F.);
#481=ORIENTED_EDGE('',*,*,#353,.F.);
#482=ORIENTED_EDGE('',*,*,#343,.T.);
#483=ORIENTED_EDGE('',*,*,#375,.F.);
#484=ORIENTED_EDGE('',*,*,#376,.T.);
#485=ORIENTED_EDGE('',*,*,#377,.T.);
#486=ORIENTED_EDGE('',*,*,#376,.F.);
#487=ORIENTED_EDGE('',*,*,#377,.F.);
#488=ORIENTED_EDGE('',*,*,#378,.F.);
#489=ORIENTED_EDGE('',*,*,#379,.F.);
#490=ORIENTED_EDGE('',*,*,#380,.T.);
#491=ORIENTED_EDGE('',*,*,#381,.T.);
#492=ORIENTED_EDGE('',*,*,#380,.F.);
#493=ORIENTED_EDGE('',*,*,#381,.F.);
#494=ORIENTED_EDGE('',*,*,#382,.F.);
#495=ORIENTED_EDGE('',*,*,#383,.F.);
#496=ORIENTED_EDGE('',*,*,#384,.T.);
#497=ORIENTED_EDGE('',*,*,#385,.T.);
#498=ORIENTED_EDGE('',*,*,#384,.F.);
#499=ORIENTED_EDGE('',*,*,#385,.F.);
#500=ORIENTED_EDGE('',*,*,#386,.F.);
#501=ORIENTED_EDGE('',*,*,#387,.F.);
#502=ORIENTED_EDGE('',*,*,#388,.T.);
#503=ORIENTED_EDGE('',*,*,#389,.T.);
#504=ORIENTED_EDGE('',*,*,#388,.F.);
#505=ORIENTED_EDGE('',*,*,#389,.F.);
#506=ORIENTED_EDGE('',*,*,#390,.F.);
#507=ORIENTED_EDGE('',*,*,#382,.T.);
#508=ORIENTED_EDGE('',*,*,#391,.T.);
#509=ORIENTED_EDGE('',*,*,#352,.F.);
#510=ORIENTED_EDGE('',*,*,#391,.F.);
#511=ORIENTED_EDGE('',*,*,#390,.T.);
#512=ORIENTED_EDGE('',*,*,#392,.T.);
#513=ORIENTED_EDGE('',*,*,#351,.F.);
#514=ORIENTED_EDGE('',*,*,#392,.F.);
#515=ORIENTED_EDGE('',*,*,#378,.T.);
#516=ORIENTED_EDGE('',*,*,#393,.T.);
#517=ORIENTED_EDGE('',*,*,#350,.F.);
#518=ORIENTED_EDGE('',*,*,#393,.F.);
#519=ORIENTED_EDGE('',*,*,#386,.T.);
#520=ORIENTED_EDGE('',*,*,#394,.T.);
#521=ORIENTED_EDGE('',*,*,#349,.F.);
#522=ORIENTED_EDGE('',*,*,#394,.F.);
#523=ORIENTED_EDGE('',*,*,#395,.F.);
#524=ORIENTED_EDGE('',*,*,#396,.F.);
#525=ORIENTED_EDGE('',*,*,#397,.F.);
#526=ORIENTED_EDGE('',*,*,#398,.F.);
#527=ORIENTED_EDGE('',*,*,#399,.F.);
#528=ORIENTED_EDGE('',*,*,#400,.F.);
#529=ORIENTED_EDGE('',*,*,#401,.F.);
#530=ORIENTED_EDGE('',*,*,#402,.F.);
#531=ORIENTED_EDGE('',*,*,#396,.T.);
#532=ORIENTED_EDGE('',*,*,#403,.T.);
#533=ORIENTED_EDGE('',*,*,#404,.F.);
#534=ORIENTED_EDGE('',*,*,#405,.F.);
#535=ORIENTED_EDGE('',*,*,#397,.T.);
#536=ORIENTED_EDGE('',*,*,#405,.T.);
#537=ORIENTED_EDGE('',*,*,#406,.F.);
#538=ORIENTED_EDGE('',*,*,#407,.F.);
#539=ORIENTED_EDGE('',*,*,#398,.T.);
#540=ORIENTED_EDGE('',*,*,#407,.T.);
#541=ORIENTED_EDGE('',*,*,#408,.F.);
#542=ORIENTED_EDGE('',*,*,#409,.F.);
#543=ORIENTED_EDGE('',*,*,#395,.T.);
#544=ORIENTED_EDGE('',*,*,#409,.T.);
#545=ORIENTED_EDGE('',*,*,#410,.F.);
#546=ORIENTED_EDGE('',*,*,#403,.F.);
#547=ORIENTED_EDGE('',*,*,#410,.T.);
#548=ORIENTED_EDGE('',*,*,#408,.T.);
#549=ORIENTED_EDGE('',*,*,#406,.T.);
#550=ORIENTED_EDGE('',*,*,#404,.T.);
#551=ORIENTED_EDGE('',*,*,#332,.T.);
#552=ORIENTED_EDGE('',*,*,#369,.T.);
#553=ORIENTED_EDGE('',*,*,#370,.T.);
#554=ORIENTED_EDGE('',*,*,#372,.T.);
#555=ORIENTED_EDGE('',*,*,#361,.T.);
#556=ORIENTED_EDGE('',*,*,#341,.T.);
#557=ORIENTED_EDGE('',*,*,#373,.T.);
#558=ORIENTED_EDGE('',*,*,#366,.T.);
#559=ORIENTED_EDGE('',*,*,#365,.T.);
#560=ORIENTED_EDGE('',*,*,#374,.T.);
#561=ORIENTED_EDGE('',*,*,#342,.T.);
#562=ORIENTED_EDGE('',*,*,#336,.T.);
#563=ORIENTED_EDGE('',*,*,#387,.T.);
#564=ORIENTED_EDGE('',*,*,#383,.T.);
#565=ORIENTED_EDGE('',*,*,#379,.T.);
#566=ORIENTED_EDGE('',*,*,#375,.T.);
#567=ORIENTED_EDGE('',*,*,#399,.T.);
#568=ORIENTED_EDGE('',*,*,#411,.T.);
#569=ORIENTED_EDGE('',*,*,#345,.F.);
#570=ORIENTED_EDGE('',*,*,#412,.F.);
#571=ORIENTED_EDGE('',*,*,#400,.T.);
#572=ORIENTED_EDGE('',*,*,#412,.T.);
#573=ORIENTED_EDGE('',*,*,#348,.F.);
#574=ORIENTED_EDGE('',*,*,#413,.F.);
#575=ORIENTED_EDGE('',*,*,#401,.T.);
#576=ORIENTED_EDGE('',*,*,#413,.T.);
#577=ORIENTED_EDGE('',*,*,#347,.F.);
#578=ORIENTED_EDGE('',*,*,#414,.F.);
#579=ORIENTED_EDGE('',*,*,#402,.T.);
#580=ORIENTED_EDGE('',*,*,#414,.T.);
#581=ORIENTED_EDGE('',*,*,#346,.F.);
#582=ORIENTED_EDGE('',*,*,#411,.F.);
#583=PLANE('',#647);
#584=PLANE('',#648);
#585=PLANE('',#649);
#586=PLANE('',#650);
#587=PLANE('',#651);
#588=PLANE('',#656);
#589=PLANE('',#657);
#590=PLANE('',#658);
#591=PLANE('',#659);
#592=PLANE('',#660);
#593=PLANE('',#661);
#594=PLANE('',#662);
#595=PLANE('',#663);
#596=PLANE('',#667);
#597=PLANE('',#672);
#598=PLANE('',#677);
#599=PLANE('',#682);
#600=PLANE('',#688);
#601=PLANE('',#689);
#602=PLANE('',#690);
#603=PLANE('',#691);
#604=PLANE('',#692);
#605=PLANE('',#693);
#606=PLANE('',#694);
#607=PLANE('',#695);
#608=PLANE('',#696);
#609=PLANE('',#697);
#610=ADVANCED_FACE('',(#54),#583,.F.);
#611=ADVANCED_FACE('',(#55),#584,.F.);
#612=ADVANCED_FACE('',(#56),#585,.F.);
#613=ADVANCED_FACE('',(#57),#586,.F.);
#614=ADVANCED_FACE('',(#58,#23,#24,#25,#26,#27),#587,.T.);
#615=ADVANCED_FACE('',(#59),#588,.F.);
#616=ADVANCED_FACE('',(#60),#589,.F.);
#617=ADVANCED_FACE('',(#61),#590,.F.);
#618=ADVANCED_FACE('',(#62),#591,.F.);
#619=ADVANCED_FACE('',(#63),#592,.F.);
#620=ADVANCED_FACE('',(#64),#593,.F.);
#621=ADVANCED_FACE('',(#65),#594,.F.);
#622=ADVANCED_FACE('',(#66),#595,.F.);
#623=ADVANCED_FACE('',(#67),#15,.F.);
#624=ADVANCED_FACE('',(#68,#28),#596,.T.);
#625=ADVANCED_FACE('',(#69),#16,.F.);
#626=ADVANCED_FACE('',(#70,#29),#597,.T.);
#627=ADVANCED_FACE('',(#71),#17,.F.);
#628=ADVANCED_FACE('',(#72,#30),#598,.T.);
#629=ADVANCED_FACE('',(#73),#18,.F.);
#630=ADVANCED_FACE('',(#74,#31),#599,.T.);
#631=ADVANCED_FACE('',(#75),#19,.F.);
#632=ADVANCED_FACE('',(#76),#20,.F.);
#633=ADVANCED_FACE('',(#77),#21,.F.);
#634=ADVANCED_FACE('',(#78),#22,.F.);
#635=ADVANCED_FACE('',(#79,#32),#600,.F.);
#636=ADVANCED_FACE('',(#80),#601,.T.);
#637=ADVANCED_FACE('',(#81),#602,.T.);
#638=ADVANCED_FACE('',(#82),#603,.T.);
#639=ADVANCED_FACE('',(#83),#604,.T.);
#640=ADVANCED_FACE('',(#84,#33,#34,#35,#36,#37),#605,.T.);
#641=ADVANCED_FACE('',(#85),#606,.T.);
#642=ADVANCED_FACE('',(#86),#607,.T.);
#643=ADVANCED_FACE('',(#87),#608,.T.);
#644=ADVANCED_FACE('',(#88),#609,.T.);
#645=CLOSED_SHELL('',(#610,#611,#612,#613,#614,#615,#616,#617,#618,#619,
#620,#621,#622,#623,#624,#625,#626,#627,#628,#629,#630,#631,#632,#633,#634,
#635,#636,#637,#638,#639,#640,#641,#642,#643,#644));
#646=AXIS2_PLACEMENT_3D('',#870,#698,#699);
#647=AXIS2_PLACEMENT_3D('',#871,#700,#701);
#648=AXIS2_PLACEMENT_3D('',#880,#706,#707);
#649=AXIS2_PLACEMENT_3D('',#886,#711,#712);
#650=AXIS2_PLACEMENT_3D('',#895,#717,#718);
#651=AXIS2_PLACEMENT_3D('',#901,#722,#723);
#652=AXIS2_PLACEMENT_3D('',#911,#728,#729);
#653=AXIS2_PLACEMENT_3D('',#913,#730,#731);
#654=AXIS2_PLACEMENT_3D('',#915,#732,#733);
#655=AXIS2_PLACEMENT_3D('',#917,#734,#735);
#656=AXIS2_PLACEMENT_3D('',#932,#744,#745);
#657=AXIS2_PLACEMENT_3D('',#936,#748,#749);
#658=AXIS2_PLACEMENT_3D('',#942,#753,#754);
#659=AXIS2_PLACEMENT_3D('',#946,#757,#758);
#660=AXIS2_PLACEMENT_3D('',#950,#761,#762);
#661=AXIS2_PLACEMENT_3D('',#954,#765,#766);
#662=AXIS2_PLACEMENT_3D('',#956,#768,#769);
#663=AXIS2_PLACEMENT_3D('',#958,#771,#772);
#664=AXIS2_PLACEMENT_3D('',#960,#774,#775);
#665=AXIS2_PLACEMENT_3D('',#962,#776,#777);
#666=AXIS2_PLACEMENT_3D('',#965,#779,#780);
#667=AXIS2_PLACEMENT_3D('',#966,#781,#782);
#668=AXIS2_PLACEMENT_3D('',#968,#783,#784);
#669=AXIS2_PLACEMENT_3D('',#969,#785,#786);
#670=AXIS2_PLACEMENT_3D('',#971,#787,#788);
#671=AXIS2_PLACEMENT_3D('',#974,#790,#791);
#672=AXIS2_PLACEMENT_3D('',#975,#792,#793);
#673=AXIS2_PLACEMENT_3D('',#977,#794,#795);
#674=AXIS2_PLACEMENT_3D('',#978,#796,#797);
#675=AXIS2_PLACEMENT_3D('',#980,#798,#799);
#676=AXIS2_PLACEMENT_3D('',#983,#801,#802);
#677=AXIS2_PLACEMENT_3D('',#984,#803,#804);
#678=AXIS2_PLACEMENT_3D('',#986,#805,#806);
#679=AXIS2_PLACEMENT_3D('',#987,#807,#808);
#680=AXIS2_PLACEMENT_3D('',#989,#809,#810);
#681=AXIS2_PLACEMENT_3D('',#992,#812,#813);
#682=AXIS2_PLACEMENT_3D('',#993,#814,#815);
#683=AXIS2_PLACEMENT_3D('',#995,#816,#817);
#684=AXIS2_PLACEMENT_3D('',#996,#818,#819);
#685=AXIS2_PLACEMENT_3D('',#998,#821,#822);
#686=AXIS2_PLACEMENT_3D('',#1000,#824,#825);
#687=AXIS2_PLACEMENT_3D('',#1002,#827,#828);
#688=AXIS2_PLACEMENT_3D('',#1004,#830,#831);
#689=AXIS2_PLACEMENT_3D('',#1021,#840,#841);
#690=AXIS2_PLACEMENT_3D('',#1027,#845,#846);
#691=AXIS2_PLACEMENT_3D('',#1031,#849,#850);
#692=AXIS2_PLACEMENT_3D('',#1035,#853,#854);
#693=AXIS2_PLACEMENT_3D('',#1037,#856,#857);
#694=AXIS2_PLACEMENT_3D('',#1038,#858,#859);
#695=AXIS2_PLACEMENT_3D('',#1041,#862,#863);
#696=AXIS2_PLACEMENT_3D('',#1043,#865,#866);
#697=AXIS2_PLACEMENT_3D('',#1045,#868,#869);
#698=DIRECTION('axis',(0.,0.,1.));
#699=DIRECTION('refdir',(1.,0.,0.));
#700=DIRECTION('center_axis',(0.,1.,0.));
#701=DIRECTION('ref_axis',(1.,0.,0.));
#702=DIRECTION('',(0.,0.,-1.));
#703=DIRECTION('',(1.,0.,0.));
#704=DIRECTION('',(0.,0.,-1.));
#705=DIRECTION('',(-1.,0.,0.));
#706=DIRECTION('center_axis',(-1.,0.,0.));
#707=DIRECTION('ref_axis',(0.,1.,0.));
#708=DIRECTION('',(0.,-1.,0.));
#709=DIRECTION('',(0.,1.,0.));
#710=DIRECTION('',(0.,0.,1.));
#711=DIRECTION('center_axis',(1.,0.,0.));
#712=DIRECTION('ref_axis',(0.,-1.,0.));
#713=DIRECTION('',(0.,0.,1.));
#714=DIRECTION('',(0.,1.,0.));
#715=DIRECTION('',(0.,0.,-1.));
#716=DIRECTION('',(0.,-1.,0.));
#717=DIRECTION('center_axis',(0.,1.,0.));
#718=DIRECTION('ref_axis',(-1.,0.,0.));
#719=DIRECTION('',(1.,0.,0.));
#720=DIRECTION('',(0.,0.,1.));
#721=DIRECTION('',(-1.,0.,0.));
#722=DIRECTION('center_axis',(0.,0.,-1.));
#723=DIRECTION('ref_axis',(-1.,0.,0.));
#724=DIRECTION('',(0.,-1.,0.));
#725=DIRECTION('',(-1.,0.,0.));
#726=DIRECTION('',(0.,1.,0.));
#727=DIRECTION('',(1.,0.,0.));
#728=DIRECTION('center_axis',(0.,0.,1.));
#729=DIRECTION('ref_axis',(-1.,0.,0.));
#730=DIRECTION('center_axis',(0.,0.,1.));
#731=DIRECTION('ref_axis',(-1.,0.,0.));
#732=DIRECTION('center_axis',(0.,0.,1.));
#733=DIRECTION('ref_axis',(-1.,0.,0.));
#734=DIRECTION('center_axis',(0.,0.,1.));
#735=DIRECTION('ref_axis',(-1.,0.,0.));
#736=DIRECTION('',(0.,-1.,0.));
#737=DIRECTION('',(1.,0.,0.));
#738=DIRECTION('',(0.,1.,0.));
#739=DIRECTION('',(-1.,0.,0.));
#740=DIRECTION('',(1.,0.,0.));
#741=DIRECTION('',(0.,1.,0.));
#742=DIRECTION('',(-1.,0.,0.));
#743=DIRECTION('',(0.,-1.,0.));
#744=DIRECTION('center_axis',(0.,-1.,0.));
#745=DIRECTION('ref_axis',(1.,0.,0.));
#746=DIRECTION('',(-1.,0.,0.));
#747=DIRECTION('',(0.,0.,1.));
#748=DIRECTION('center_axis',(0.,-1.,0.));
#749=DIRECTION('ref_axis',(1.,0.,0.));
#750=DIRECTION('',(0.,0.,1.));
#751=DIRECTION('',(0.,0.,1.));
#752=DIRECTION('',(-1.,0.,0.));
#753=DIRECTION('center_axis',(1.,0.,0.));
#754=DIRECTION('ref_axis',(0.,1.,0.));
#755=DIRECTION('',(0.,-1.,0.));
#756=DIRECTION('',(0.,0.,1.));
#757=DIRECTION('center_axis',(-1.,0.,0.));
#758=DIRECTION('ref_axis',(0.,-1.,0.));
#759=DIRECTION('',(0.,0.,1.));
#760=DIRECTION('',(0.,1.,0.));
#761=DIRECTION('center_axis',(0.,1.,0.));
#762=DIRECTION('ref_axis',(-1.,0.,0.));
#763=DIRECTION('',(1.,0.,0.));
#764=DIRECTION('',(0.,0.,1.));
#765=DIRECTION('center_axis',(1.,0.,0.));
#766=DIRECTION('ref_axis',(0.,1.,0.));
#767=DIRECTION('',(0.,-1.,0.));
#768=DIRECTION('center_axis',(0.,1.,0.));
#769=DIRECTION('ref_axis',(-1.,0.,0.));
#770=DIRECTION('',(1.,0.,0.));
#771=DIRECTION('center_axis',(-1.,0.,0.));
#772=DIRECTION('ref_axis',(0.,-1.,0.));
#773=DIRECTION('',(0.,1.,0.));
#774=DIRECTION('center_axis',(0.,0.,-1.));
#775=DIRECTION('ref_axis',(-1.,0.,0.));
#776=DIRECTION('center_axis',(0.,0.,-1.));
#777=DIRECTION('ref_axis',(-1.,0.,0.));
#778=DIRECTION('',(0.,0.,-1.));
#779=DIRECTION('center_axis',(0.,0.,-1.));
#780=DIRECTION('ref_axis',(-1.,0.,0.));
#781=DIRECTION('center_axis',(0.,0.,1.));
#782=DIRECTION('ref_axis',(-1.,0.,0.));
#783=DIRECTION('center_axis',(0.,0.,1.));
#784=DIRECTION('ref_axis',(-1.,0.,0.));
#785=DIRECTION('center_axis',(0.,0.,-1.));
#786=DIRECTION('ref_axis',(-1.,0.,0.));
#787=DIRECTION('center_axis',(0.,0.,-1.));
#788=DIRECTION('ref_axis',(-1.,0.,0.));
#789=DIRECTION('',(0.,0.,-1.));
#790=DIRECTION('center_axis',(0.,0.,-1.));
#791=DIRECTION('ref_axis',(-1.,0.,0.));
#792=DIRECTION('center_axis',(0.,0.,1.));
#793=DIRECTION('ref_axis',(-1.,0.,0.));
#794=DIRECTION('center_axis',(0.,0.,1.));
#795=DIRECTION('ref_axis',(-1.,0.,0.));
#796=DIRECTION('center_axis',(0.,0.,-1.));
#797=DIRECTION('ref_axis',(-1.,0.,0.));
#798=DIRECTION('center_axis',(0.,0.,-1.));
#799=DIRECTION('ref_axis',(-1.,0.,0.));
#800=DIRECTION('',(0.,0.,-1.));
#801=DIRECTION('center_axis',(0.,0.,-1.));
#802=DIRECTION('ref_axis',(-1.,0.,0.));
#803=DIRECTION('center_axis',(0.,0.,1.));
#804=DIRECTION('ref_axis',(-1.,0.,0.));
#805=DIRECTION('center_axis',(0.,0.,1.));
#806=DIRECTION('ref_axis',(-1.,0.,0.));
#807=DIRECTION('center_axis',(0.,0.,-1.));
#808=DIRECTION('ref_axis',(-1.,0.,0.));
#809=DIRECTION('center_axis',(0.,0.,-1.));
#810=DIRECTION('ref_axis',(-1.,0.,0.));
#811=DIRECTION('',(0.,0.,-1.));
#812=DIRECTION('center_axis',(0.,0.,-1.));
#813=DIRECTION('ref_axis',(-1.,0.,0.));
#814=DIRECTION('center_axis',(0.,0.,1.));
#815=DIRECTION('ref_axis',(-1.,0.,0.));
#816=DIRECTION('center_axis',(0.,0.,1.));
#817=DIRECTION('ref_axis',(-1.,0.,0.));
#818=DIRECTION('center_axis',(0.,0.,-1.));
#819=DIRECTION('ref_axis',(-1.,0.,0.));
#820=DIRECTION('',(0.,0.,-1.));
#821=DIRECTION('center_axis',(0.,0.,-1.));
#822=DIRECTION('ref_axis',(-1.,0.,0.));
#823=DIRECTION('',(0.,0.,-1.));
#824=DIRECTION('center_axis',(0.,0.,-1.));
#825=DIRECTION('ref_axis',(-1.,0.,0.));
#826=DIRECTION('',(0.,0.,-1.));
#827=DIRECTION('center_axis',(0.,0.,-1.));
#828=DIRECTION('ref_axis',(-1.,0.,0.));
#829=DIRECTION('',(0.,0.,-1.));
#830=DIRECTION('center_axis',(0.,0.,1.));
#831=DIRECTION('ref_axis',(1.,0.,0.));
#832=DIRECTION('',(0.,1.,0.));
#833=DIRECTION('',(1.,0.,0.));
#834=DIRECTION('',(0.,-1.,0.));
#835=DIRECTION('',(-1.,0.,0.));
#836=DIRECTION('',(0.,-1.,0.));
#837=DIRECTION('',(1.,0.,0.));
#838=DIRECTION('',(0.,1.,0.));
#839=DIRECTION('',(-1.,0.,0.));
#840=DIRECTION('center_axis',(0.,-1.,0.));
#841=DIRECTION('ref_axis',(1.,0.,0.));
#842=DIRECTION('',(0.,0.,1.));
#843=DIRECTION('',(1.,0.,0.));
#844=DIRECTION('',(0.,0.,1.));
#845=DIRECTION('center_axis',(-1.,0.,0.));
#846=DIRECTION('ref_axis',(0.,-1.,0.));
#847=DIRECTION('',(0.,-1.,0.));
#848=DIRECTION('',(0.,0.,1.));
#849=DIRECTION('center_axis',(0.,1.,0.));
#850=DIRECTION('ref_axis',(-1.,0.,0.));
#851=DIRECTION('',(-1.,0.,0.));
#852=DIRECTION('',(0.,0.,1.));
#853=DIRECTION('center_axis',(1.,0.,0.));
#854=DIRECTION('ref_axis',(0.,1.,0.));
#855=DIRECTION('',(0.,1.,0.));
#856=DIRECTION('center_axis',(0.,0.,1.));
#857=DIRECTION('ref_axis',(1.,0.,0.));
#858=DIRECTION('center_axis',(1.,0.,0.));
#859=DIRECTION('ref_axis',(0.,-1.,0.));
#860=DIRECTION('',(0.,0.,-1.));
#861=DIRECTION('',(0.,0.,-1.));
#862=DIRECTION('center_axis',(0.,1.,0.));
#863=DIRECTION('ref_axis',(1.,0.,0.));
#864=DIRECTION('',(0.,0.,-1.));
#865=DIRECTION('center_axis',(-1.,0.,0.));
#866=DIRECTION('ref_axis',(0.,1.,0.));
#867=DIRECTION('',(0.,0.,-1.));
#868=DIRECTION('center_axis',(0.,-1.,0.));
#869=DIRECTION('ref_axis',(-1.,0.,0.));
#870=CARTESIAN_POINT('',(0.,0.,0.));
#871=CARTESIAN_POINT('Origin',(125.000001862645,-79.0000011771917,10.));
#872=CARTESIAN_POINT('',(133.000001981854,-79.0000011771917,10.));
#873=CARTESIAN_POINT('',(133.000001981854,-79.0000011771917,7.));
#874=CARTESIAN_POINT('',(133.000001981854,-79.0000011771917,7.255));
#875=CARTESIAN_POINT('',(125.000001862645,-79.0000011771917,10.));
#876=CARTESIAN_POINT('',(134.125000931323,-79.0000011771917,10.));
#877=CARTESIAN_POINT('',(125.000001862645,-79.0000011771917,7.));
#878=CARTESIAN_POINT('',(125.000001862645,-79.0000011771917,10.));
#879=CARTESIAN_POINT('',(134.125000931323,-79.0000011771917,7.));
#880=CARTESIAN_POINT('Origin',(125.000001862645,-99.1067554355972,10.));
#881=CARTESIAN_POINT('',(125.000001862645,-99.1067554355972,7.));
#882=CARTESIAN_POINT('',(125.000001862645,-94.6783777177986,7.));
#883=CARTESIAN_POINT('',(125.000001862645,-99.1067554355972,10.));
#884=CARTESIAN_POINT('',(125.000001862645,-94.6783777177986,10.));
#885=CARTESIAN_POINT('',(125.000001862645,-99.1067554355972,7.255));
#886=CARTESIAN_POINT('Origin',(170.074308115026,-79.0000011771917,10.));
#887=CARTESIAN_POINT('',(170.074308115026,-80.0000011920929,7.));
#888=CARTESIAN_POINT('',(170.074308115026,-80.0000011920929,10.));
#889=CARTESIAN_POINT('',(170.074308115026,-80.0000011920929,7.255));
#890=CARTESIAN_POINT('',(170.074308115026,-99.1067554355972,7.));
#891=CARTESIAN_POINT('',(170.074308115026,-84.6250005885959,7.));
#892=CARTESIAN_POINT('',(170.074308115026,-99.1067554355972,10.));
#893=CARTESIAN_POINT('',(170.074308115026,-99.1067554355972,7.255));
#894=CARTESIAN_POINT('',(170.074308115026,-84.6250005885959,10.));
#895=CARTESIAN_POINT('Origin',(127.000001892447,-99.1067554355972,4.51));
#896=CARTESIAN_POINT('',(104.162242587668,-99.1067554355972,10.));
#897=CARTESIAN_POINT('',(135.125000946224,-99.1067554355972,10.));
#898=CARTESIAN_POINT('',(104.162242587668,-99.1067554355972,7.));
#899=CARTESIAN_POINT('',(104.162242587668,-99.1067554355972,4.51));
#900=CARTESIAN_POINT('',(135.125000946224,-99.1067554355972,7.));
#901=CARTESIAN_POINT('Origin',(143.25,-90.25,7.));
#902=CARTESIAN_POINT('',(193.1,-55.4,7.));
#903=CARTESIAN_POINT('',(193.1,-125.1,7.));
#904=CARTESIAN_POINT('',(193.1,-55.4,7.));
#905=CARTESIAN_POINT('',(93.4,-125.1,7.));
#906=CARTESIAN_POINT('',(193.1,-125.1,7.));
#907=CARTESIAN_POINT('',(93.4,-55.4,7.));
#908=CARTESIAN_POINT('',(93.4,-125.1,7.));
#909=CARTESIAN_POINT('',(93.4,-55.4,7.));
#910=CARTESIAN_POINT('',(96.2169841572933,-57.2169841572933,7.));
#911=CARTESIAN_POINT('Origin',(95.2169841572933,-57.2169841572933,7.));
#912=CARTESIAN_POINT('',(192.283015842707,-57.2169841572933,7.));
#913=CARTESIAN_POINT('Origin',(191.283015842707,-57.2169841572933,7.));
#914=CARTESIAN_POINT('',(96.2169841572933,-123.283015842707,7.));
#915=CARTESIAN_POINT('Origin',(95.2169841572933,-123.283015842707,7.));
#916=CARTESIAN_POINT('',(192.283015842707,-123.283015842707,7.));
#917=CARTESIAN_POINT('Origin',(191.283015842707,-123.283015842707,7.));
#918=CARTESIAN_POINT('',(104.162242587668,-117.106755703818,7.));
#919=CARTESIAN_POINT('',(104.162242587668,-94.6783777177986,7.));
#920=CARTESIAN_POINT('',(188.000002801418,-117.106755703818,7.));
#921=CARTESIAN_POINT('',(123.706121293834,-117.106755703818,7.));
#922=CARTESIAN_POINT('',(188.000002801418,-99.1067554355972,7.));
#923=CARTESIAN_POINT('',(188.000002801418,-103.625000871718,7.));
#924=CARTESIAN_POINT('',(165.625001400709,-99.1067554355972,7.));
#925=CARTESIAN_POINT('',(184.000002741814,-80.0000011920929,7.));
#926=CARTESIAN_POINT('',(155.125001244247,-80.0000011920929,7.));
#927=CARTESIAN_POINT('',(184.000002741814,-62.000000923872,7.));
#928=CARTESIAN_POINT('',(184.000002741814,-85.1250005960464,7.));
#929=CARTESIAN_POINT('',(133.000001981854,-62.000000923872,7.));
#930=CARTESIAN_POINT('',(163.625001370907,-62.000000923872,7.));
#931=CARTESIAN_POINT('',(133.000001981854,-76.125000461936,7.));
#932=CARTESIAN_POINT('Origin',(167.000002488494,-80.0000011920929,4.51));
#933=CARTESIAN_POINT('',(184.000002741814,-80.0000011920929,10.));
#934=CARTESIAN_POINT('',(155.125001244247,-80.0000011920929,10.));
#935=CARTESIAN_POINT('',(184.000002741814,-80.0000011920929,4.51));
#936=CARTESIAN_POINT('Origin',(104.162242587668,-117.106755703818,4.51));
#937=CARTESIAN_POINT('',(188.000002801418,-117.106755703818,10.));
#938=CARTESIAN_POINT('',(188.000002801418,-117.106755703818,4.51));
#939=CARTESIAN_POINT('',(104.162242587668,-117.106755703818,10.));
#940=CARTESIAN_POINT('',(104.162242587668,-117.106755703818,4.51));
#941=CARTESIAN_POINT('',(123.706121293834,-117.106755703818,10.));
#942=CARTESIAN_POINT('Origin',(188.000002801418,-117.000001743436,4.51));
#943=CARTESIAN_POINT('',(188.000002801418,-99.1067554355972,10.));
#944=CARTESIAN_POINT('',(188.000002801418,-103.625000871718,10.));
#945=CARTESIAN_POINT('',(188.000002801418,-99.1067554355972,4.51));
#946=CARTESIAN_POINT('Origin',(133.000001981854,-62.000000923872,4.51));
#947=CARTESIAN_POINT('',(133.000001981854,-62.000000923872,10.));
#948=CARTESIAN_POINT('',(133.000001981854,-62.000000923872,4.51));
#949=CARTESIAN_POINT('',(133.000001981854,-76.125000461936,10.));
#950=CARTESIAN_POINT('Origin',(184.000002741814,-62.000000923872,4.51));
#951=CARTESIAN_POINT('',(184.000002741814,-62.000000923872,10.));
#952=CARTESIAN_POINT('',(163.625001370907,-62.000000923872,10.));
#953=CARTESIAN_POINT('',(184.000002741814,-62.000000923872,4.51));
#954=CARTESIAN_POINT('Origin',(184.000002741814,-80.0000011920929,4.51));
#955=CARTESIAN_POINT('',(184.000002741814,-85.1250005960464,10.));
#956=CARTESIAN_POINT('Origin',(188.000002801418,-99.1067554355972,4.51));
#957=CARTESIAN_POINT('',(165.625001400709,-99.1067554355972,10.));
#958=CARTESIAN_POINT('Origin',(104.162242587668,-99.1067554355972,4.51));
#959=CARTESIAN_POINT('',(104.162242587668,-94.6783777177986,10.));
#960=CARTESIAN_POINT('Origin',(191.283015842707,-57.2169841572933,10.));
#961=CARTESIAN_POINT('',(193.283015842707,-57.2169841572933,10.));
#962=CARTESIAN_POINT('Origin',(191.283015842707,-57.2169841572933,10.));
#963=CARTESIAN_POINT('',(193.283015842707,-57.2169841572933,8.6));
#964=CARTESIAN_POINT('',(193.283015842707,-57.2169841572933,10.));
#965=CARTESIAN_POINT('Origin',(191.283015842707,-57.2169841572933,8.6));
#966=CARTESIAN_POINT('Origin',(191.283015842707,-57.2169841572933,8.6));
#967=CARTESIAN_POINT('',(192.283015842707,-57.2169841572933,8.6));
#968=CARTESIAN_POINT('Origin',(191.283015842707,-57.2169841572933,8.6));
#969=CARTESIAN_POINT('Origin',(191.283015842707,-123.283015842707,10.));
#970=CARTESIAN_POINT('',(193.283015842707,-123.283015842707,10.));
#971=CARTESIAN_POINT('Origin',(191.283015842707,-123.283015842707,10.));
#972=CARTESIAN_POINT('',(193.283015842707,-123.283015842707,8.6));
#973=CARTESIAN_POINT('',(193.283015842707,-123.283015842707,10.));
#974=CARTESIAN_POINT('Origin',(191.283015842707,-123.283015842707,8.6));
#975=CARTESIAN_POINT('Origin',(191.283015842707,-123.283015842707,8.6));
#976=CARTESIAN_POINT('',(192.283015842707,-123.283015842707,8.6));
#977=CARTESIAN_POINT('Origin',(191.283015842707,-123.283015842707,8.6));
#978=CARTESIAN_POINT('Origin',(95.2169841572933,-57.2169841572933,10.));
#979=CARTESIAN_POINT('',(97.2169841572933,-57.2169841572933,10.));
#980=CARTESIAN_POINT('Origin',(95.2169841572933,-57.2169841572933,10.));
#981=CARTESIAN_POINT('',(97.2169841572933,-57.2169841572933,8.6));
#982=CARTESIAN_POINT('',(97.2169841572933,-57.2169841572933,10.));
#983=CARTESIAN_POINT('Origin',(95.2169841572933,-57.2169841572933,8.6));
#984=CARTESIAN_POINT('Origin',(95.2169841572933,-57.2169841572933,8.6));
#985=CARTESIAN_POINT('',(96.2169841572933,-57.2169841572933,8.6));
#986=CARTESIAN_POINT('Origin',(95.2169841572933,-57.2169841572933,8.6));
#987=CARTESIAN_POINT('Origin',(95.2169841572933,-123.283015842707,10.));
#988=CARTESIAN_POINT('',(97.2169841572933,-123.283015842707,10.));
#989=CARTESIAN_POINT('Origin',(95.2169841572933,-123.283015842707,10.));
#990=CARTESIAN_POINT('',(97.2169841572933,-123.283015842707,8.6));
#991=CARTESIAN_POINT('',(97.2169841572933,-123.283015842707,10.));
#992=CARTESIAN_POINT('Origin',(95.2169841572933,-123.283015842707,8.6));
#993=CARTESIAN_POINT('Origin',(95.2169841572933,-123.283015842707,8.6));
#994=CARTESIAN_POINT('',(96.2169841572933,-123.283015842707,8.6));
#995=CARTESIAN_POINT('Origin',(95.2169841572933,-123.283015842707,8.6));
#996=CARTESIAN_POINT('Origin',(191.283015842707,-123.283015842707,8.));
#997=CARTESIAN_POINT('',(192.283015842707,-123.283015842707,8.));
#998=CARTESIAN_POINT('Origin',(95.2169841572933,-123.283015842707,8.));
#999=CARTESIAN_POINT('',(96.2169841572933,-123.283015842707,8.));
#1000=CARTESIAN_POINT('Origin',(191.283015842707,-57.2169841572933,8.));
#1001=CARTESIAN_POINT('',(192.283015842707,-57.2169841572933,8.));
#1002=CARTESIAN_POINT('Origin',(95.2169841572933,-57.2169841572933,8.));
#1003=CARTESIAN_POINT('',(96.2169841572933,-57.2169841572933,8.));
#1004=CARTESIAN_POINT('Origin',(143.25,-90.25,8.));
#1005=CARTESIAN_POINT('',(195.5,-127.5,8.));
#1006=CARTESIAN_POINT('',(195.5,-53.,8.));
#1007=CARTESIAN_POINT('',(195.5,-53.,8.));
#1008=CARTESIAN_POINT('',(91.,-127.5,8.));
#1009=CARTESIAN_POINT('',(195.5,-127.5,8.));
#1010=CARTESIAN_POINT('',(91.,-53.,8.));
#1011=CARTESIAN_POINT('',(91.,-127.5,8.));
#1012=CARTESIAN_POINT('',(91.,-53.,8.));
#1013=CARTESIAN_POINT('',(193.1,-55.4,8.));
#1014=CARTESIAN_POINT('',(193.1,-125.1,8.));
#1015=CARTESIAN_POINT('',(193.1,-55.4,8.));
#1016=CARTESIAN_POINT('',(93.4,-55.4,8.));
#1017=CARTESIAN_POINT('',(93.4,-55.4,8.));
#1018=CARTESIAN_POINT('',(93.4,-125.1,8.));
#1019=CARTESIAN_POINT('',(93.4,-125.1,8.));
#1020=CARTESIAN_POINT('',(193.1,-125.1,8.));
#1021=CARTESIAN_POINT('Origin',(91.,-127.5,8.));
#1022=CARTESIAN_POINT('',(195.5,-127.5,10.));
#1023=CARTESIAN_POINT('',(195.5,-127.5,8.));
#1024=CARTESIAN_POINT('',(91.,-127.5,10.));
#1025=CARTESIAN_POINT('',(195.5,-127.5,10.));
#1026=CARTESIAN_POINT('',(91.,-127.5,8.));
#1027=CARTESIAN_POINT('Origin',(91.,-53.,8.));
#1028=CARTESIAN_POINT('',(91.,-53.,10.));
#1029=CARTESIAN_POINT('',(91.,-127.5,10.));
#1030=CARTESIAN_POINT('',(91.,-53.,8.));
#1031=CARTESIAN_POINT('Origin',(195.5,-53.,8.));
#1032=CARTESIAN_POINT('',(195.5,-53.,10.));
#1033=CARTESIAN_POINT('',(91.,-53.,10.));
#1034=CARTESIAN_POINT('',(195.5,-53.,8.));
#1035=CARTESIAN_POINT('Origin',(195.5,-127.5,8.));
#1036=CARTESIAN_POINT('',(195.5,-53.,10.));
#1037=CARTESIAN_POINT('Origin',(143.25,-90.25,10.));
#1038=CARTESIAN_POINT('Origin',(193.1,-55.4,8.));
#1039=CARTESIAN_POINT('',(193.1,-125.1,8.));
#1040=CARTESIAN_POINT('',(193.1,-55.4,8.));
#1041=CARTESIAN_POINT('Origin',(93.4,-55.4,8.));
#1042=CARTESIAN_POINT('',(93.4,-55.4,8.));
#1043=CARTESIAN_POINT('Origin',(93.4,-125.1,8.));
#1044=CARTESIAN_POINT('',(93.4,-125.1,8.));
#1045=CARTESIAN_POINT('Origin',(193.1,-125.1,8.));
#1046=UNCERTAINTY_MEASURE_WITH_UNIT(LENGTH_MEASURE(0.01),#1050,
'DISTANCE_ACCURACY_VALUE',
'Maximum model space distance between geometric entities at asserted c
onnectivities');
#1047=UNCERTAINTY_MEASURE_WITH_UNIT(LENGTH_MEASURE(0.01),#1050,
'DISTANCE_ACCURACY_VALUE',
'Maximum model space distance between geometric entities at asserted c
onnectivities');
#1048=(
GEOMETRIC_REPRESENTATION_CONTEXT(3)
GLOBAL_UNCERTAINTY_ASSIGNED_CONTEXT((#1046))
GLOBAL_UNIT_ASSIGNED_CONTEXT((#1050,#1051,#1052))
REPRESENTATION_CONTEXT('','3D')
);
#1049=(
GEOMETRIC_REPRESENTATION_CONTEXT(3)
GLOBAL_UNCERTAINTY_ASSIGNED_CONTEXT((#1047))
GLOBAL_UNIT_ASSIGNED_CONTEXT((#1050,#1051,#1052))
REPRESENTATION_CONTEXT('','3D')
);
#1050=(
LENGTH_UNIT()
NAMED_UNIT(*)
SI_UNIT(.MILLI.,.METRE.)
);
#1051=(
NAMED_UNIT(*)
PLANE_ANGLE_UNIT()
SI_UNIT($,.RADIAN.)
);
#1052=(
NAMED_UNIT(*)
SI_UNIT($,.STERADIAN.)
SOLID_ANGLE_UNIT()
);
#1053=SHAPE_DEFINITION_REPRESENTATION(#1054,#1055);
#1054=PRODUCT_DEFINITION_SHAPE('',$,#1057);
#1055=SHAPE_REPRESENTATION('',(#646),#1048);
#1056=PRODUCT_DEFINITION_CONTEXT('part definition',#1061,'design');
#1057=PRODUCT_DEFINITION('my-keyboard 1','my-keyboard',#1058,#1056);
#1058=PRODUCT_DEFINITION_FORMATION('',$,#1063);
#1059=PRODUCT_RELATED_PRODUCT_CATEGORY('my-keyboard','my-keyboard',(#1063));
#1060=APPLICATION_PROTOCOL_DEFINITION('international standard',
'automotive_design',2009,#1061);
#1061=APPLICATION_CONTEXT(
'Core Data for Automotive Mechanical Design Process');
#1062=PRODUCT_CONTEXT('part definition',#1061,'mechanical');
#1063=PRODUCT('my-keyboard 1','my-keyboard','KiCad electronic assembly',
(#1062));
#1064=PRESENTATION_STYLE_ASSIGNMENT((#1065));
#1065=SURFACE_STYLE_USAGE(.BOTH.,#1066);
#1066=SURFACE_SIDE_STYLE('',(#1067));
#1067=SURFACE_STYLE_FILL_AREA(#1068);
#1068=FILL_AREA_STYLE('Stal \X2\2014\X0\ satynowa',(#1069));
#1069=FILL_AREA_STYLE_COLOUR('Stal \X2\2014\X0\ satynowa',#1070);
#1070=COLOUR_RGB('Stal \X2\2014\X0\ satynowa',0.627450980392157,0.627450980392157,
0.627450980392157);
ENDSEC;
END-ISO-10303-21;
