ISO-10303-21;
HEADER;
/* Generated by software containing ST-Developer
 * from STEP Tools, Inc. (www.steptools.com) 
 */

FILE_DESCRIPTION(
/* description */ ('KiCad electronic assembly'),
/* implementation_level */ '2;1');

FILE_NAME(
/* name */ 'base.step',
/* time_stamp */ '2026-08-04T00:51:40+02:00',
/* author */ (''),
/* organization */ (''),
/* preprocessor_version */ 'ST-DEVELOPER v20.1',
/* originating_system */ 'Autodesk Translation Framework v15.8.0.0',
/* authorisation */ '');

FILE_SCHEMA (('AUTOMOTIVE_DESIGN { 1 0 10303 214 3 1 1 }'));
ENDSEC;

DATA;
#10=MECHANICAL_DESIGN_GEOMETRIC_PRESENTATION_REPRESENTATION('',(#13),#1081);
#11=SHAPE_REPRESENTATION_RELATIONSHIP('SRR','None',#1087,#12);
#12=ADVANCED_BREP_SHAPE_REPRESENTATION('',(#14),#1080);
#13=STYLED_ITEM('',(#1096),#14);
#14=MANIFOLD_SOLID_BREP('Base',#645);
#15=FACE_BOUND('',#110,.T.);
#16=FACE_BOUND('',#112,.T.);
#17=FACE_BOUND('',#116,.T.);
#18=FACE_BOUND('',#118,.T.);
#19=FACE_BOUND('',#120,.T.);
#20=FACE_BOUND('',#124,.T.);
#21=FACE_BOUND('',#127,.T.);
#22=FACE_BOUND('',#129,.T.);
#23=FACE_BOUND('',#143,.T.);
#24=FACE_BOUND('',#144,.T.);
#25=FACE_BOUND('',#147,.T.);
#26=CIRCLE('',#652,2.10000000000001);
#27=CIRCLE('',#653,2.10000000000001);
#28=CIRCLE('',#656,2.10000000000001);
#29=CIRCLE('',#657,2.10000000000001);
#30=CIRCLE('',#660,3.);
#31=CIRCLE('',#662,3.);
#32=CIRCLE('',#664,3.);
#33=CIRCLE('',#666,3.);
#34=CIRCLE('',#668,6.557);
#35=CIRCLE('',#669,2.15);
#36=CIRCLE('',#672,6.557);
#37=CIRCLE('',#673,2.15);
#38=CIRCLE('',#677,6.557);
#39=CIRCLE('',#678,2.15);
#40=CIRCLE('',#681,6.55685589321948);
#41=CIRCLE('',#682,2.15);
#42=CIRCLE('',#685,2.15);
#43=CIRCLE('',#688,2.15);
#44=CIRCLE('',#691,2.15);
#45=CIRCLE('',#694,2.15);
#46=CIRCLE('',#698,6.55685589321948);
#47=CIRCLE('',#700,6.557);
#48=CIRCLE('',#702,6.557);
#49=CIRCLE('',#704,6.557);
#50=CYLINDRICAL_SURFACE('',#651,2.10000000000001);
#51=CYLINDRICAL_SURFACE('',#655,2.10000000000001);
#52=CYLINDRICAL_SURFACE('',#663,3.);
#53=CYLINDRICAL_SURFACE('',#665,3.);
#54=CYLINDRICAL_SURFACE('',#684,2.15);
#55=CYLINDRICAL_SURFACE('',#687,2.15);
#56=CYLINDRICAL_SURFACE('',#690,2.15);
#57=CYLINDRICAL_SURFACE('',#693,2.15);
#58=CYLINDRICAL_SURFACE('',#697,6.55685589321948);
#59=CYLINDRICAL_SURFACE('',#699,6.557);
#60=CYLINDRICAL_SURFACE('',#701,6.557);
#61=CYLINDRICAL_SURFACE('',#705,6.557);
#62=FACE_OUTER_BOUND('',#101,.T.);
#63=FACE_OUTER_BOUND('',#102,.T.);
#64=FACE_OUTER_BOUND('',#103,.T.);
#65=FACE_OUTER_BOUND('',#104,.T.);
#66=FACE_OUTER_BOUND('',#105,.T.);
#67=FACE_OUTER_BOUND('',#106,.T.);
#68=FACE_OUTER_BOUND('',#107,.T.);
#69=FACE_OUTER_BOUND('',#108,.T.);
#70=FACE_OUTER_BOUND('',#109,.T.);
#71=FACE_OUTER_BOUND('',#111,.T.);
#72=FACE_OUTER_BOUND('',#113,.T.);
#73=FACE_OUTER_BOUND('',#114,.T.);
#74=FACE_OUTER_BOUND('',#115,.T.);
#75=FACE_OUTER_BOUND('',#117,.T.);
#76=FACE_OUTER_BOUND('',#119,.T.);
#77=FACE_OUTER_BOUND('',#121,.T.);
#78=FACE_OUTER_BOUND('',#122,.T.);
#79=FACE_OUTER_BOUND('',#123,.T.);
#80=FACE_OUTER_BOUND('',#125,.T.);
#81=FACE_OUTER_BOUND('',#126,.T.);
#82=FACE_OUTER_BOUND('',#128,.T.);
#83=FACE_OUTER_BOUND('',#130,.T.);
#84=FACE_OUTER_BOUND('',#131,.T.);
#85=FACE_OUTER_BOUND('',#132,.T.);
#86=FACE_OUTER_BOUND('',#133,.T.);
#87=FACE_OUTER_BOUND('',#134,.T.);
#88=FACE_OUTER_BOUND('',#135,.T.);
#89=FACE_OUTER_BOUND('',#136,.T.);
#90=FACE_OUTER_BOUND('',#137,.T.);
#91=FACE_OUTER_BOUND('',#138,.T.);
#92=FACE_OUTER_BOUND('',#139,.T.);
#93=FACE_OUTER_BOUND('',#140,.T.);
#94=FACE_OUTER_BOUND('',#141,.T.);
#95=FACE_OUTER_BOUND('',#142,.T.);
#96=FACE_OUTER_BOUND('',#145,.T.);
#97=FACE_OUTER_BOUND('',#146,.T.);
#98=FACE_OUTER_BOUND('',#148,.T.);
#99=FACE_OUTER_BOUND('',#149,.T.);
#100=FACE_OUTER_BOUND('',#150,.T.);
#101=EDGE_LOOP('',(#411,#412,#413,#414));
#102=EDGE_LOOP('',(#415,#416,#417,#418));
#103=EDGE_LOOP('',(#419,#420,#421,#422));
#104=EDGE_LOOP('',(#423,#424,#425,#426));
#105=EDGE_LOOP('',(#427,#428,#429,#430));
#106=EDGE_LOOP('',(#431));
#107=EDGE_LOOP('',(#432,#433,#434,#435));
#108=EDGE_LOOP('',(#436));
#109=EDGE_LOOP('',(#437));
#110=EDGE_LOOP('',(#438));
#111=EDGE_LOOP('',(#439));
#112=EDGE_LOOP('',(#440));
#113=EDGE_LOOP('',(#441,#442,#443,#444));
#114=EDGE_LOOP('',(#445,#446,#447,#448));
#115=EDGE_LOOP('',(#449,#450,#451));
#116=EDGE_LOOP('',(#452));
#117=EDGE_LOOP('',(#453,#454,#455,#456,#457,#458,#459,#460));
#118=EDGE_LOOP('',(#461,#462,#463,#464));
#119=EDGE_LOOP('',(#465,#466,#467));
#120=EDGE_LOOP('',(#468));
#121=EDGE_LOOP('',(#469,#470,#471,#472,#473,#474,#475,#476));
#122=EDGE_LOOP('',(#477,#478,#479,#480,#481,#482,#483,#484));
#123=EDGE_LOOP('',(#485,#486,#487));
#124=EDGE_LOOP('',(#488));
#125=EDGE_LOOP('',(#489,#490,#491,#492,#493,#494,#495,#496));
#126=EDGE_LOOP('',(#497,#498,#499));
#127=EDGE_LOOP('',(#500));
#128=EDGE_LOOP('',(#501,#502,#503,#504));
#129=EDGE_LOOP('',(#505,#506,#507,#508));
#130=EDGE_LOOP('',(#509,#510,#511,#512));
#131=EDGE_LOOP('',(#513));
#132=EDGE_LOOP('',(#514,#515,#516,#517));
#133=EDGE_LOOP('',(#518));
#134=EDGE_LOOP('',(#519,#520,#521,#522));
#135=EDGE_LOOP('',(#523));
#136=EDGE_LOOP('',(#524,#525,#526,#527));
#137=EDGE_LOOP('',(#528));
#138=EDGE_LOOP('',(#529,#530,#531,#532));
#139=EDGE_LOOP('',(#533,#534,#535,#536));
#140=EDGE_LOOP('',(#537,#538,#539,#540));
#141=EDGE_LOOP('',(#541,#542,#543,#544));
#142=EDGE_LOOP('',(#545,#546,#547,#548,#549,#550,#551,#552));
#143=EDGE_LOOP('',(#553));
#144=EDGE_LOOP('',(#554));
#145=EDGE_LOOP('',(#555,#556,#557,#558));
#146=EDGE_LOOP('',(#559,#560,#561,#562));
#147=EDGE_LOOP('',(#563,#564,#565,#566));
#148=EDGE_LOOP('',(#567,#568,#569,#570));
#149=EDGE_LOOP('',(#571,#572,#573,#574));
#150=EDGE_LOOP('',(#575,#576,#577,#578));
#151=LINE('',#902,#211);
#152=LINE('',#904,#212);
#153=LINE('',#906,#213);
#154=LINE('',#907,#214);
#155=LINE('',#910,#215);
#156=LINE('',#912,#216);
#157=LINE('',#913,#217);
#158=LINE('',#916,#218);
#159=LINE('',#918,#219);
#160=LINE('',#919,#220);
#161=LINE('',#921,#221);
#162=LINE('',#922,#222);
#163=LINE('',#927,#223);
#164=LINE('',#934,#224);
#165=LINE('',#946,#225);
#166=LINE('',#950,#226);
#167=LINE('',#956,#227);
#168=LINE('',#957,#228);
#169=LINE('',#962,#229);
#170=LINE('',#964,#230);
#171=LINE('',#966,#231);
#172=LINE('',#968,#232);
#173=LINE('',#970,#233);
#174=LINE('',#972,#234);
#175=LINE('',#973,#235);
#176=LINE('',#977,#236);
#177=LINE('',#980,#237);
#178=LINE('',#985,#238);
#179=LINE('',#987,#239);
#180=LINE('',#988,#240);
#181=LINE('',#990,#241);
#182=LINE('',#991,#242);
#183=LINE('',#994,#243);
#184=LINE('',#996,#244);
#185=LINE('',#998,#245);
#186=LINE('',#1000,#246);
#187=LINE('',#1002,#247);
#188=LINE('',#1003,#248);
#189=LINE('',#1007,#249);
#190=LINE('',#1012,#250);
#191=LINE('',#1014,#251);
#192=LINE('',#1016,#252);
#193=LINE('',#1017,#253);
#194=LINE('',#1018,#254);
#195=LINE('',#1026,#255);
#196=LINE('',#1028,#256);
#197=LINE('',#1030,#257);
#198=LINE('',#1031,#258);
#199=LINE('',#1034,#259);
#200=LINE('',#1039,#260);
#201=LINE('',#1044,#261);
#202=LINE('',#1049,#262);
#203=LINE('',#1055,#263);
#204=LINE('',#1057,#264);
#205=LINE('',#1059,#265);
#206=LINE('',#1060,#266);
#207=LINE('',#1071,#267);
#208=LINE('',#1072,#268);
#209=LINE('',#1074,#269);
#210=LINE('',#1076,#270);
#211=VECTOR('',#714,10.);
#212=VECTOR('',#715,10.);
#213=VECTOR('',#716,10.);
#214=VECTOR('',#717,10.);
#215=VECTOR('',#720,10.);
#216=VECTOR('',#721,10.);
#217=VECTOR('',#722,10.);
#218=VECTOR('',#725,10.);
#219=VECTOR('',#726,10.);
#220=VECTOR('',#727,10.);
#221=VECTOR('',#730,10.);
#222=VECTOR('',#731,10.);
#223=VECTOR('',#736,2.10000000000001);
#224=VECTOR('',#745,2.10000000000001);
#225=VECTOR('',#762,2.5);
#226=VECTOR('',#767,2.5);
#227=VECTOR('',#772,10.);
#228=VECTOR('',#773,10.);
#229=VECTOR('',#778,10.);
#230=VECTOR('',#779,10.);
#231=VECTOR('',#780,10.);
#232=VECTOR('',#781,10.);
#233=VECTOR('',#782,10.);
#234=VECTOR('',#783,10.);
#235=VECTOR('',#784,10.);
#236=VECTOR('',#787,10.);
#237=VECTOR('',#790,10.);
#238=VECTOR('',#795,10.);
#239=VECTOR('',#796,10.);
#240=VECTOR('',#797,10.);
#241=VECTOR('',#798,10.);
#242=VECTOR('',#799,10.);
#243=VECTOR('',#802,10.);
#244=VECTOR('',#803,10.);
#245=VECTOR('',#804,10.);
#246=VECTOR('',#805,10.);
#247=VECTOR('',#806,10.);
#248=VECTOR('',#807,10.);
#249=VECTOR('',#812,10.);
#250=VECTOR('',#817,10.);
#251=VECTOR('',#818,10.);
#252=VECTOR('',#819,10.);
#253=VECTOR('',#820,10.);
#254=VECTOR('',#821,10.);
#255=VECTOR('',#830,10.);
#256=VECTOR('',#831,10.);
#257=VECTOR('',#832,10.);
#258=VECTOR('',#833,10.);
#259=VECTOR('',#836,2.15);
#260=VECTOR('',#843,2.15);
#261=VECTOR('',#850,2.15);
#262=VECTOR('',#857,2.15);
#263=VECTOR('',#864,10.);
#264=VECTOR('',#865,10.);
#265=VECTOR('',#866,10.);
#266=VECTOR('',#867,10.);
#267=VECTOR('',#888,10.);
#268=VECTOR('',#889,10.);
#269=VECTOR('',#892,10.);
#270=VECTOR('',#895,10.);
#271=VERTEX_POINT('',#900);
#272=VERTEX_POINT('',#901);
#273=VERTEX_POINT('',#903);
#274=VERTEX_POINT('',#905);
#275=VERTEX_POINT('',#909);
#276=VERTEX_POINT('',#911);
#277=VERTEX_POINT('',#915);
#278=VERTEX_POINT('',#917);
#279=VERTEX_POINT('',#924);
#280=VERTEX_POINT('',#926);
#281=VERTEX_POINT('',#931);
#282=VERTEX_POINT('',#933);
#283=VERTEX_POINT('',#938);
#284=VERTEX_POINT('',#941);
#285=VERTEX_POINT('',#944);
#286=VERTEX_POINT('',#948);
#287=VERTEX_POINT('',#952);
#288=VERTEX_POINT('',#953);
#289=VERTEX_POINT('',#955);
#290=VERTEX_POINT('',#958);
#291=VERTEX_POINT('',#961);
#292=VERTEX_POINT('',#963);
#293=VERTEX_POINT('',#965);
#294=VERTEX_POINT('',#967);
#295=VERTEX_POINT('',#969);
#296=VERTEX_POINT('',#971);
#297=VERTEX_POINT('',#975);
#298=VERTEX_POINT('',#976);
#299=VERTEX_POINT('',#978);
#300=VERTEX_POINT('',#981);
#301=VERTEX_POINT('',#984);
#302=VERTEX_POINT('',#986);
#303=VERTEX_POINT('',#989);
#304=VERTEX_POINT('',#993);
#305=VERTEX_POINT('',#995);
#306=VERTEX_POINT('',#997);
#307=VERTEX_POINT('',#999);
#308=VERTEX_POINT('',#1001);
#309=VERTEX_POINT('',#1005);
#310=VERTEX_POINT('',#1008);
#311=VERTEX_POINT('',#1011);
#312=VERTEX_POINT('',#1013);
#313=VERTEX_POINT('',#1015);
#314=VERTEX_POINT('',#1021);
#315=VERTEX_POINT('',#1024);
#316=VERTEX_POINT('',#1025);
#317=VERTEX_POINT('',#1027);
#318=VERTEX_POINT('',#1029);
#319=VERTEX_POINT('',#1033);
#320=VERTEX_POINT('',#1038);
#321=VERTEX_POINT('',#1043);
#322=VERTEX_POINT('',#1048);
#323=VERTEX_POINT('',#1053);
#324=VERTEX_POINT('',#1054);
#325=VERTEX_POINT('',#1056);
#326=VERTEX_POINT('',#1058);
#327=EDGE_CURVE('',#271,#272,#151,.T.);
#328=EDGE_CURVE('',#273,#271,#152,.T.);
#329=EDGE_CURVE('',#274,#273,#153,.T.);
#330=EDGE_CURVE('',#274,#272,#154,.T.);
#331=EDGE_CURVE('',#272,#275,#155,.T.);
#332=EDGE_CURVE('',#276,#274,#156,.T.);
#333=EDGE_CURVE('',#276,#275,#157,.T.);
#334=EDGE_CURVE('',#275,#277,#158,.T.);
#335=EDGE_CURVE('',#278,#276,#159,.T.);
#336=EDGE_CURVE('',#278,#277,#160,.T.);
#337=EDGE_CURVE('',#277,#271,#161,.T.);
#338=EDGE_CURVE('',#273,#278,#162,.T.);
#339=EDGE_CURVE('',#279,#279,#26,.T.);
#340=EDGE_CURVE('',#279,#280,#163,.T.);
#341=EDGE_CURVE('',#280,#280,#27,.T.);
#342=EDGE_CURVE('',#281,#281,#28,.T.);
#343=EDGE_CURVE('',#281,#282,#164,.T.);
#344=EDGE_CURVE('',#282,#282,#29,.T.);
#345=EDGE_CURVE('',#283,#283,#30,.T.);
#346=EDGE_CURVE('',#284,#284,#31,.T.);
#347=EDGE_CURVE('',#285,#285,#32,.T.);
#348=EDGE_CURVE('',#285,#283,#165,.T.);
#349=EDGE_CURVE('',#286,#286,#33,.T.);
#350=EDGE_CURVE('',#286,#284,#166,.T.);
#351=EDGE_CURVE('',#287,#288,#34,.T.);
#352=EDGE_CURVE('',#289,#288,#167,.T.);
#353=EDGE_CURVE('',#287,#289,#168,.T.);
#354=EDGE_CURVE('',#290,#290,#35,.T.);
#355=EDGE_CURVE('',#291,#287,#169,.T.);
#356=EDGE_CURVE('',#292,#289,#170,.T.);
#357=EDGE_CURVE('',#293,#292,#171,.T.);
#358=EDGE_CURVE('',#293,#294,#172,.T.);
#359=EDGE_CURVE('',#294,#295,#173,.T.);
#360=EDGE_CURVE('',#295,#296,#174,.T.);
#361=EDGE_CURVE('',#296,#291,#175,.T.);
#362=EDGE_CURVE('',#297,#298,#176,.T.);
#363=EDGE_CURVE('',#297,#299,#36,.T.);
#364=EDGE_CURVE('',#298,#299,#177,.T.);
#365=EDGE_CURVE('',#300,#300,#37,.T.);
#366=EDGE_CURVE('',#288,#301,#178,.T.);
#367=EDGE_CURVE('',#301,#302,#179,.T.);
#368=EDGE_CURVE('',#302,#297,#180,.T.);
#369=EDGE_CURVE('',#298,#303,#181,.T.);
#370=EDGE_CURVE('',#292,#303,#182,.T.);
#371=EDGE_CURVE('',#299,#304,#183,.T.);
#372=EDGE_CURVE('',#304,#305,#184,.T.);
#373=EDGE_CURVE('',#305,#306,#185,.T.);
#374=EDGE_CURVE('',#306,#307,#186,.T.);
#375=EDGE_CURVE('',#308,#307,#187,.T.);
#376=EDGE_CURVE('',#303,#308,#188,.T.);
#377=EDGE_CURVE('',#306,#309,#38,.T.);
#378=EDGE_CURVE('',#307,#309,#189,.T.);
#379=EDGE_CURVE('',#310,#310,#39,.T.);
#380=EDGE_CURVE('',#309,#311,#190,.T.);
#381=EDGE_CURVE('',#311,#312,#191,.T.);
#382=EDGE_CURVE('',#312,#313,#192,.T.);
#383=EDGE_CURVE('',#313,#294,#193,.T.);
#384=EDGE_CURVE('',#308,#293,#194,.T.);
#385=EDGE_CURVE('',#313,#295,#40,.T.);
#386=EDGE_CURVE('',#314,#314,#41,.T.);
#387=EDGE_CURVE('',#315,#316,#195,.T.);
#388=EDGE_CURVE('',#316,#317,#196,.T.);
#389=EDGE_CURVE('',#317,#318,#197,.T.);
#390=EDGE_CURVE('',#318,#315,#198,.T.);
#391=EDGE_CURVE('',#314,#319,#199,.T.);
#392=EDGE_CURVE('',#319,#319,#42,.T.);
#393=EDGE_CURVE('',#310,#320,#200,.T.);
#394=EDGE_CURVE('',#320,#320,#43,.T.);
#395=EDGE_CURVE('',#290,#321,#201,.T.);
#396=EDGE_CURVE('',#321,#321,#44,.T.);
#397=EDGE_CURVE('',#300,#322,#202,.T.);
#398=EDGE_CURVE('',#322,#322,#45,.T.);
#399=EDGE_CURVE('',#323,#324,#203,.T.);
#400=EDGE_CURVE('',#324,#325,#204,.T.);
#401=EDGE_CURVE('',#325,#326,#205,.T.);
#402=EDGE_CURVE('',#326,#323,#206,.T.);
#403=EDGE_CURVE('',#296,#312,#46,.T.);
#404=EDGE_CURVE('',#311,#305,#47,.T.);
#405=EDGE_CURVE('',#304,#302,#48,.T.);
#406=EDGE_CURVE('',#301,#291,#49,.T.);
#407=EDGE_CURVE('',#317,#326,#207,.T.);
#408=EDGE_CURVE('',#323,#316,#208,.T.);
#409=EDGE_CURVE('',#318,#325,#209,.T.);
#410=EDGE_CURVE('',#315,#324,#210,.T.);
#411=ORIENTED_EDGE('',*,*,#327,.F.);
#412=ORIENTED_EDGE('',*,*,#328,.F.);
#413=ORIENTED_EDGE('',*,*,#329,.F.);
#414=ORIENTED_EDGE('',*,*,#330,.T.);
#415=ORIENTED_EDGE('',*,*,#331,.F.);
#416=ORIENTED_EDGE('',*,*,#330,.F.);
#417=ORIENTED_EDGE('',*,*,#332,.F.);
#418=ORIENTED_EDGE('',*,*,#333,.T.);
#419=ORIENTED_EDGE('',*,*,#334,.F.);
#420=ORIENTED_EDGE('',*,*,#333,.F.);
#421=ORIENTED_EDGE('',*,*,#335,.F.);
#422=ORIENTED_EDGE('',*,*,#336,.T.);
#423=ORIENTED_EDGE('',*,*,#337,.F.);
#424=ORIENTED_EDGE('',*,*,#336,.F.);
#425=ORIENTED_EDGE('',*,*,#338,.F.);
#426=ORIENTED_EDGE('',*,*,#328,.T.);
#427=ORIENTED_EDGE('',*,*,#339,.F.);
#428=ORIENTED_EDGE('',*,*,#340,.T.);
#429=ORIENTED_EDGE('',*,*,#341,.T.);
#430=ORIENTED_EDGE('',*,*,#340,.F.);
#431=ORIENTED_EDGE('',*,*,#341,.F.);
#432=ORIENTED_EDGE('',*,*,#342,.F.);
#433=ORIENTED_EDGE('',*,*,#343,.T.);
#434=ORIENTED_EDGE('',*,*,#344,.T.);
#435=ORIENTED_EDGE('',*,*,#343,.F.);
#436=ORIENTED_EDGE('',*,*,#344,.F.);
#437=ORIENTED_EDGE('',*,*,#345,.T.);
#438=ORIENTED_EDGE('',*,*,#339,.T.);
#439=ORIENTED_EDGE('',*,*,#346,.T.);
#440=ORIENTED_EDGE('',*,*,#342,.T.);
#441=ORIENTED_EDGE('',*,*,#347,.F.);
#442=ORIENTED_EDGE('',*,*,#348,.T.);
#443=ORIENTED_EDGE('',*,*,#345,.F.);
#444=ORIENTED_EDGE('',*,*,#348,.F.);
#445=ORIENTED_EDGE('',*,*,#349,.F.);
#446=ORIENTED_EDGE('',*,*,#350,.T.);
#447=ORIENTED_EDGE('',*,*,#346,.F.);
#448=ORIENTED_EDGE('',*,*,#350,.F.);
#449=ORIENTED_EDGE('',*,*,#351,.T.);
#450=ORIENTED_EDGE('',*,*,#352,.F.);
#451=ORIENTED_EDGE('',*,*,#353,.F.);
#452=ORIENTED_EDGE('',*,*,#354,.T.);
#453=ORIENTED_EDGE('',*,*,#355,.T.);
#454=ORIENTED_EDGE('',*,*,#353,.T.);
#455=ORIENTED_EDGE('',*,*,#356,.F.);
#456=ORIENTED_EDGE('',*,*,#357,.F.);
#457=ORIENTED_EDGE('',*,*,#358,.T.);
#458=ORIENTED_EDGE('',*,*,#359,.T.);
#459=ORIENTED_EDGE('',*,*,#360,.T.);
#460=ORIENTED_EDGE('',*,*,#361,.T.);
#461=ORIENTED_EDGE('',*,*,#335,.T.);
#462=ORIENTED_EDGE('',*,*,#332,.T.);
#463=ORIENTED_EDGE('',*,*,#329,.T.);
#464=ORIENTED_EDGE('',*,*,#338,.T.);
#465=ORIENTED_EDGE('',*,*,#362,.F.);
#466=ORIENTED_EDGE('',*,*,#363,.T.);
#467=ORIENTED_EDGE('',*,*,#364,.F.);
#468=ORIENTED_EDGE('',*,*,#365,.T.);
#469=ORIENTED_EDGE('',*,*,#366,.T.);
#470=ORIENTED_EDGE('',*,*,#367,.T.);
#471=ORIENTED_EDGE('',*,*,#368,.T.);
#472=ORIENTED_EDGE('',*,*,#362,.T.);
#473=ORIENTED_EDGE('',*,*,#369,.T.);
#474=ORIENTED_EDGE('',*,*,#370,.F.);
#475=ORIENTED_EDGE('',*,*,#356,.T.);
#476=ORIENTED_EDGE('',*,*,#352,.T.);
#477=ORIENTED_EDGE('',*,*,#364,.T.);
#478=ORIENTED_EDGE('',*,*,#371,.T.);
#479=ORIENTED_EDGE('',*,*,#372,.T.);
#480=ORIENTED_EDGE('',*,*,#373,.T.);
#481=ORIENTED_EDGE('',*,*,#374,.T.);
#482=ORIENTED_EDGE('',*,*,#375,.F.);
#483=ORIENTED_EDGE('',*,*,#376,.F.);
#484=ORIENTED_EDGE('',*,*,#369,.F.);
#485=ORIENTED_EDGE('',*,*,#374,.F.);
#486=ORIENTED_EDGE('',*,*,#377,.T.);
#487=ORIENTED_EDGE('',*,*,#378,.F.);
#488=ORIENTED_EDGE('',*,*,#379,.T.);
#489=ORIENTED_EDGE('',*,*,#378,.T.);
#490=ORIENTED_EDGE('',*,*,#380,.T.);
#491=ORIENTED_EDGE('',*,*,#381,.T.);
#492=ORIENTED_EDGE('',*,*,#382,.T.);
#493=ORIENTED_EDGE('',*,*,#383,.T.);
#494=ORIENTED_EDGE('',*,*,#358,.F.);
#495=ORIENTED_EDGE('',*,*,#384,.F.);
#496=ORIENTED_EDGE('',*,*,#375,.T.);
#497=ORIENTED_EDGE('',*,*,#383,.F.);
#498=ORIENTED_EDGE('',*,*,#385,.T.);
#499=ORIENTED_EDGE('',*,*,#359,.F.);
#500=ORIENTED_EDGE('',*,*,#386,.T.);
#501=ORIENTED_EDGE('',*,*,#387,.T.);
#502=ORIENTED_EDGE('',*,*,#388,.T.);
#503=ORIENTED_EDGE('',*,*,#389,.T.);
#504=ORIENTED_EDGE('',*,*,#390,.T.);
#505=ORIENTED_EDGE('',*,*,#370,.T.);
#506=ORIENTED_EDGE('',*,*,#376,.T.);
#507=ORIENTED_EDGE('',*,*,#384,.T.);
#508=ORIENTED_EDGE('',*,*,#357,.T.);
#509=ORIENTED_EDGE('',*,*,#386,.F.);
#510=ORIENTED_EDGE('',*,*,#391,.T.);
#511=ORIENTED_EDGE('',*,*,#392,.T.);
#512=ORIENTED_EDGE('',*,*,#391,.F.);
#513=ORIENTED_EDGE('',*,*,#392,.F.);
#514=ORIENTED_EDGE('',*,*,#379,.F.);
#515=ORIENTED_EDGE('',*,*,#393,.T.);
#516=ORIENTED_EDGE('',*,*,#394,.T.);
#517=ORIENTED_EDGE('',*,*,#393,.F.);
#518=ORIENTED_EDGE('',*,*,#394,.F.);
#519=ORIENTED_EDGE('',*,*,#354,.F.);
#520=ORIENTED_EDGE('',*,*,#395,.T.);
#521=ORIENTED_EDGE('',*,*,#396,.T.);
#522=ORIENTED_EDGE('',*,*,#395,.F.);
#523=ORIENTED_EDGE('',*,*,#396,.F.);
#524=ORIENTED_EDGE('',*,*,#365,.F.);
#525=ORIENTED_EDGE('',*,*,#397,.T.);
#526=ORIENTED_EDGE('',*,*,#398,.T.);
#527=ORIENTED_EDGE('',*,*,#397,.F.);
#528=ORIENTED_EDGE('',*,*,#398,.F.);
#529=ORIENTED_EDGE('',*,*,#399,.T.);
#530=ORIENTED_EDGE('',*,*,#400,.T.);
#531=ORIENTED_EDGE('',*,*,#401,.T.);
#532=ORIENTED_EDGE('',*,*,#402,.T.);
#533=ORIENTED_EDGE('',*,*,#403,.F.);
#534=ORIENTED_EDGE('',*,*,#360,.F.);
#535=ORIENTED_EDGE('',*,*,#385,.F.);
#536=ORIENTED_EDGE('',*,*,#382,.F.);
#537=ORIENTED_EDGE('',*,*,#404,.F.);
#538=ORIENTED_EDGE('',*,*,#380,.F.);
#539=ORIENTED_EDGE('',*,*,#377,.F.);
#540=ORIENTED_EDGE('',*,*,#373,.F.);
#541=ORIENTED_EDGE('',*,*,#405,.F.);
#542=ORIENTED_EDGE('',*,*,#371,.F.);
#543=ORIENTED_EDGE('',*,*,#363,.F.);
#544=ORIENTED_EDGE('',*,*,#368,.F.);
#545=ORIENTED_EDGE('',*,*,#404,.T.);
#546=ORIENTED_EDGE('',*,*,#372,.F.);
#547=ORIENTED_EDGE('',*,*,#405,.T.);
#548=ORIENTED_EDGE('',*,*,#367,.F.);
#549=ORIENTED_EDGE('',*,*,#406,.T.);
#550=ORIENTED_EDGE('',*,*,#361,.F.);
#551=ORIENTED_EDGE('',*,*,#403,.T.);
#552=ORIENTED_EDGE('',*,*,#381,.F.);
#553=ORIENTED_EDGE('',*,*,#347,.T.);
#554=ORIENTED_EDGE('',*,*,#349,.T.);
#555=ORIENTED_EDGE('',*,*,#406,.F.);
#556=ORIENTED_EDGE('',*,*,#366,.F.);
#557=ORIENTED_EDGE('',*,*,#351,.F.);
#558=ORIENTED_EDGE('',*,*,#355,.F.);
#559=ORIENTED_EDGE('',*,*,#407,.F.);
#560=ORIENTED_EDGE('',*,*,#388,.F.);
#561=ORIENTED_EDGE('',*,*,#408,.F.);
#562=ORIENTED_EDGE('',*,*,#402,.F.);
#563=ORIENTED_EDGE('',*,*,#334,.T.);
#564=ORIENTED_EDGE('',*,*,#337,.T.);
#565=ORIENTED_EDGE('',*,*,#327,.T.);
#566=ORIENTED_EDGE('',*,*,#331,.T.);
#567=ORIENTED_EDGE('',*,*,#409,.F.);
#568=ORIENTED_EDGE('',*,*,#389,.F.);
#569=ORIENTED_EDGE('',*,*,#407,.T.);
#570=ORIENTED_EDGE('',*,*,#401,.F.);
#571=ORIENTED_EDGE('',*,*,#410,.F.);
#572=ORIENTED_EDGE('',*,*,#390,.F.);
#573=ORIENTED_EDGE('',*,*,#409,.T.);
#574=ORIENTED_EDGE('',*,*,#400,.F.);
#575=ORIENTED_EDGE('',*,*,#408,.T.);
#576=ORIENTED_EDGE('',*,*,#387,.F.);
#577=ORIENTED_EDGE('',*,*,#410,.T.);
#578=ORIENTED_EDGE('',*,*,#399,.F.);
#579=PLANE('',#647);
#580=PLANE('',#648);
#581=PLANE('',#649);
#582=PLANE('',#650);
#583=PLANE('',#654);
#584=PLANE('',#658);
#585=PLANE('',#659);
#586=PLANE('',#661);
#587=PLANE('',#667);
#588=PLANE('',#670);
#589=PLANE('',#671);
#590=PLANE('',#674);
#591=PLANE('',#675);
#592=PLANE('',#676);
#593=PLANE('',#679);
#594=PLANE('',#680);
#595=PLANE('',#683);
#596=PLANE('',#686);
#597=PLANE('',#689);
#598=PLANE('',#692);
#599=PLANE('',#695);
#600=PLANE('',#696);
#601=PLANE('',#703);
#602=PLANE('',#706);
#603=PLANE('',#707);
#604=PLANE('',#708);
#605=PLANE('',#709);
#606=ADVANCED_FACE('',(#62),#579,.F.);
#607=ADVANCED_FACE('',(#63),#580,.F.);
#608=ADVANCED_FACE('',(#64),#581,.F.);
#609=ADVANCED_FACE('',(#65),#582,.F.);
#610=ADVANCED_FACE('',(#66),#50,.F.);
#611=ADVANCED_FACE('',(#67),#583,.T.);
#612=ADVANCED_FACE('',(#68),#51,.F.);
#613=ADVANCED_FACE('',(#69),#584,.T.);
#614=ADVANCED_FACE('',(#70,#15),#585,.F.);
#615=ADVANCED_FACE('',(#71,#16),#586,.F.);
#616=ADVANCED_FACE('',(#72),#52,.T.);
#617=ADVANCED_FACE('',(#73),#53,.T.);
#618=ADVANCED_FACE('',(#74,#17),#587,.T.);
#619=ADVANCED_FACE('',(#75,#18),#588,.T.);
#620=ADVANCED_FACE('',(#76,#19),#589,.T.);
#621=ADVANCED_FACE('',(#77),#590,.T.);
#622=ADVANCED_FACE('',(#78),#591,.T.);
#623=ADVANCED_FACE('',(#79,#20),#592,.T.);
#624=ADVANCED_FACE('',(#80),#593,.T.);
#625=ADVANCED_FACE('',(#81,#21),#594,.T.);
#626=ADVANCED_FACE('',(#82,#22),#595,.T.);
#627=ADVANCED_FACE('',(#83),#54,.F.);
#628=ADVANCED_FACE('',(#84),#596,.T.);
#629=ADVANCED_FACE('',(#85),#55,.F.);
#630=ADVANCED_FACE('',(#86),#597,.T.);
#631=ADVANCED_FACE('',(#87),#56,.F.);
#632=ADVANCED_FACE('',(#88),#598,.T.);
#633=ADVANCED_FACE('',(#89),#57,.F.);
#634=ADVANCED_FACE('',(#90),#599,.T.);
#635=ADVANCED_FACE('',(#91),#600,.T.);
#636=ADVANCED_FACE('',(#92),#58,.T.);
#637=ADVANCED_FACE('',(#93),#59,.T.);
#638=ADVANCED_FACE('',(#94),#60,.T.);
#639=ADVANCED_FACE('',(#95,#23,#24),#601,.T.);
#640=ADVANCED_FACE('',(#96),#61,.T.);
#641=ADVANCED_FACE('',(#97,#25),#602,.T.);
#642=ADVANCED_FACE('',(#98),#603,.T.);
#643=ADVANCED_FACE('',(#99),#604,.T.);
#644=ADVANCED_FACE('',(#100),#605,.T.);
#645=CLOSED_SHELL('',(#606,#607,#608,#609,#610,#611,#612,#613,#614,#615,
#616,#617,#618,#619,#620,#621,#622,#623,#624,#625,#626,#627,#628,#629,#630,
#631,#632,#633,#634,#635,#636,#637,#638,#639,#640,#641,#642,#643,#644));
#646=AXIS2_PLACEMENT_3D('',#898,#710,#711);
#647=AXIS2_PLACEMENT_3D('',#899,#712,#713);
#648=AXIS2_PLACEMENT_3D('',#908,#718,#719);
#649=AXIS2_PLACEMENT_3D('',#914,#723,#724);
#650=AXIS2_PLACEMENT_3D('',#920,#728,#729);
#651=AXIS2_PLACEMENT_3D('',#923,#732,#733);
#652=AXIS2_PLACEMENT_3D('',#925,#734,#735);
#653=AXIS2_PLACEMENT_3D('',#928,#737,#738);
#654=AXIS2_PLACEMENT_3D('',#929,#739,#740);
#655=AXIS2_PLACEMENT_3D('',#930,#741,#742);
#656=AXIS2_PLACEMENT_3D('',#932,#743,#744);
#657=AXIS2_PLACEMENT_3D('',#935,#746,#747);
#658=AXIS2_PLACEMENT_3D('',#936,#748,#749);
#659=AXIS2_PLACEMENT_3D('',#937,#750,#751);
#660=AXIS2_PLACEMENT_3D('',#939,#752,#753);
#661=AXIS2_PLACEMENT_3D('',#940,#754,#755);
#662=AXIS2_PLACEMENT_3D('',#942,#756,#757);
#663=AXIS2_PLACEMENT_3D('',#943,#758,#759);
#664=AXIS2_PLACEMENT_3D('',#945,#760,#761);
#665=AXIS2_PLACEMENT_3D('',#947,#763,#764);
#666=AXIS2_PLACEMENT_3D('',#949,#765,#766);
#667=AXIS2_PLACEMENT_3D('',#951,#768,#769);
#668=AXIS2_PLACEMENT_3D('',#954,#770,#771);
#669=AXIS2_PLACEMENT_3D('',#959,#774,#775);
#670=AXIS2_PLACEMENT_3D('',#960,#776,#777);
#671=AXIS2_PLACEMENT_3D('',#974,#785,#786);
#672=AXIS2_PLACEMENT_3D('',#979,#788,#789);
#673=AXIS2_PLACEMENT_3D('',#982,#791,#792);
#674=AXIS2_PLACEMENT_3D('',#983,#793,#794);
#675=AXIS2_PLACEMENT_3D('',#992,#800,#801);
#676=AXIS2_PLACEMENT_3D('',#1004,#808,#809);
#677=AXIS2_PLACEMENT_3D('',#1006,#810,#811);
#678=AXIS2_PLACEMENT_3D('',#1009,#813,#814);
#679=AXIS2_PLACEMENT_3D('',#1010,#815,#816);
#680=AXIS2_PLACEMENT_3D('',#1019,#822,#823);
#681=AXIS2_PLACEMENT_3D('',#1020,#824,#825);
#682=AXIS2_PLACEMENT_3D('',#1022,#826,#827);
#683=AXIS2_PLACEMENT_3D('',#1023,#828,#829);
#684=AXIS2_PLACEMENT_3D('',#1032,#834,#835);
#685=AXIS2_PLACEMENT_3D('',#1035,#837,#838);
#686=AXIS2_PLACEMENT_3D('',#1036,#839,#840);
#687=AXIS2_PLACEMENT_3D('',#1037,#841,#842);
#688=AXIS2_PLACEMENT_3D('',#1040,#844,#845);
#689=AXIS2_PLACEMENT_3D('',#1041,#846,#847);
#690=AXIS2_PLACEMENT_3D('',#1042,#848,#849);
#691=AXIS2_PLACEMENT_3D('',#1045,#851,#852);
#692=AXIS2_PLACEMENT_3D('',#1046,#853,#854);
#693=AXIS2_PLACEMENT_3D('',#1047,#855,#856);
#694=AXIS2_PLACEMENT_3D('',#1050,#858,#859);
#695=AXIS2_PLACEMENT_3D('',#1051,#860,#861);
#696=AXIS2_PLACEMENT_3D('',#1052,#862,#863);
#697=AXIS2_PLACEMENT_3D('',#1061,#868,#869);
#698=AXIS2_PLACEMENT_3D('',#1062,#870,#871);
#699=AXIS2_PLACEMENT_3D('',#1063,#872,#873);
#700=AXIS2_PLACEMENT_3D('',#1064,#874,#875);
#701=AXIS2_PLACEMENT_3D('',#1065,#876,#877);
#702=AXIS2_PLACEMENT_3D('',#1066,#878,#879);
#703=AXIS2_PLACEMENT_3D('',#1067,#880,#881);
#704=AXIS2_PLACEMENT_3D('',#1068,#882,#883);
#705=AXIS2_PLACEMENT_3D('',#1069,#884,#885);
#706=AXIS2_PLACEMENT_3D('',#1070,#886,#887);
#707=AXIS2_PLACEMENT_3D('',#1073,#890,#891);
#708=AXIS2_PLACEMENT_3D('',#1075,#893,#894);
#709=AXIS2_PLACEMENT_3D('',#1077,#896,#897);
#710=DIRECTION('axis',(0.,0.,1.));
#711=DIRECTION('refdir',(1.,0.,0.));
#712=DIRECTION('center_axis',(0.,0.,1.));
#713=DIRECTION('ref_axis',(1.,0.,0.));
#714=DIRECTION('',(-1.,0.,0.));
#715=DIRECTION('',(0.,1.,0.));
#716=DIRECTION('',(1.,0.,0.));
#717=DIRECTION('',(0.,1.,0.));
#718=DIRECTION('center_axis',(-1.,0.,0.));
#719=DIRECTION('ref_axis',(0.,0.,1.));
#720=DIRECTION('',(0.,0.,-1.));
#721=DIRECTION('',(0.,0.,1.));
#722=DIRECTION('',(0.,1.,0.));
#723=DIRECTION('center_axis',(0.,0.,-1.));
#724=DIRECTION('ref_axis',(-1.,0.,0.));
#725=DIRECTION('',(1.,0.,0.));
#726=DIRECTION('',(-1.,0.,0.));
#727=DIRECTION('',(0.,1.,0.));
#728=DIRECTION('center_axis',(1.,0.,0.));
#729=DIRECTION('ref_axis',(0.,0.,-1.));
#730=DIRECTION('',(0.,0.,1.));
#731=DIRECTION('',(0.,0.,-1.));
#732=DIRECTION('center_axis',(0.,0.,-1.));
#733=DIRECTION('ref_axis',(-1.,0.,0.));
#734=DIRECTION('center_axis',(0.,0.,-1.));
#735=DIRECTION('ref_axis',(-1.,0.,0.));
#736=DIRECTION('',(0.,0.,-1.));
#737=DIRECTION('center_axis',(0.,0.,-1.));
#738=DIRECTION('ref_axis',(-1.,0.,0.));
#739=DIRECTION('center_axis',(0.,0.,1.));
#740=DIRECTION('ref_axis',(-1.,0.,0.));
#741=DIRECTION('center_axis',(0.,0.,-1.));
#742=DIRECTION('ref_axis',(-1.,0.,0.));
#743=DIRECTION('center_axis',(0.,0.,-1.));
#744=DIRECTION('ref_axis',(-1.,0.,0.));
#745=DIRECTION('',(0.,0.,-1.));
#746=DIRECTION('center_axis',(0.,0.,-1.));
#747=DIRECTION('ref_axis',(-1.,0.,0.));
#748=DIRECTION('center_axis',(0.,0.,1.));
#749=DIRECTION('ref_axis',(-1.,0.,0.));
#750=DIRECTION('center_axis',(0.,0.,-1.));
#751=DIRECTION('ref_axis',(1.,0.,0.));
#752=DIRECTION('center_axis',(0.,0.,1.));
#753=DIRECTION('ref_axis',(1.,0.,0.));
#754=DIRECTION('center_axis',(0.,0.,-1.));
#755=DIRECTION('ref_axis',(1.,0.,0.));
#756=DIRECTION('center_axis',(0.,0.,1.));
#757=DIRECTION('ref_axis',(1.,0.,0.));
#758=DIRECTION('center_axis',(0.,0.,-1.));
#759=DIRECTION('ref_axis',(1.,0.,0.));
#760=DIRECTION('center_axis',(0.,0.,-1.));
#761=DIRECTION('ref_axis',(1.,0.,0.));
#762=DIRECTION('',(0.,0.,1.));
#763=DIRECTION('center_axis',(0.,0.,-1.));
#764=DIRECTION('ref_axis',(1.,0.,0.));
#765=DIRECTION('center_axis',(0.,0.,-1.));
#766=DIRECTION('ref_axis',(1.,0.,0.));
#767=DIRECTION('',(0.,0.,1.));
#768=DIRECTION('center_axis',(0.,0.,1.));
#769=DIRECTION('ref_axis',(-1.,0.,0.));
#770=DIRECTION('center_axis',(0.,0.,1.));
#771=DIRECTION('ref_axis',(-1.,0.,0.));
#772=DIRECTION('',(0.,-1.,0.));
#773=DIRECTION('',(1.,0.,0.));
#774=DIRECTION('center_axis',(0.,0.,-1.));
#775=DIRECTION('ref_axis',(-1.,0.,0.));
#776=DIRECTION('center_axis',(0.,-1.,0.));
#777=DIRECTION('ref_axis',(1.,0.,0.));
#778=DIRECTION('',(0.,0.,1.));
#779=DIRECTION('',(0.,0.,-1.));
#780=DIRECTION('',(1.,0.,0.));
#781=DIRECTION('',(0.,0.,-1.));
#782=DIRECTION('',(1.,0.,0.));
#783=DIRECTION('',(0.,0.,-1.));
#784=DIRECTION('',(1.,0.,0.));
#785=DIRECTION('center_axis',(0.,0.,1.));
#786=DIRECTION('ref_axis',(-1.,0.,0.));
#787=DIRECTION('',(0.,-1.,0.));
#788=DIRECTION('center_axis',(0.,0.,1.));
#789=DIRECTION('ref_axis',(-1.,0.,0.));
#790=DIRECTION('',(-1.,0.,0.));
#791=DIRECTION('center_axis',(0.,0.,-1.));
#792=DIRECTION('ref_axis',(-1.,0.,0.));
#793=DIRECTION('center_axis',(-1.,0.,0.));
#794=DIRECTION('ref_axis',(0.,-1.,0.));
#795=DIRECTION('',(0.,0.,-1.));
#796=DIRECTION('',(0.,-1.,0.));
#797=DIRECTION('',(0.,0.,1.));
#798=DIRECTION('',(0.,0.,1.));
#799=DIRECTION('',(0.,-1.,0.));
#800=DIRECTION('center_axis',(0.,1.,0.));
#801=DIRECTION('ref_axis',(-1.,0.,0.));
#802=DIRECTION('',(0.,0.,-1.));
#803=DIRECTION('',(-1.,0.,0.));
#804=DIRECTION('',(0.,0.,1.));
#805=DIRECTION('',(-1.,0.,0.));
#806=DIRECTION('',(0.,0.,-1.));
#807=DIRECTION('',(-1.,0.,0.));
#808=DIRECTION('center_axis',(0.,0.,1.));
#809=DIRECTION('ref_axis',(-1.,0.,0.));
#810=DIRECTION('center_axis',(0.,0.,1.));
#811=DIRECTION('ref_axis',(-1.,0.,0.));
#812=DIRECTION('',(0.,1.,0.));
#813=DIRECTION('center_axis',(0.,0.,-1.));
#814=DIRECTION('ref_axis',(-1.,0.,0.));
#815=DIRECTION('center_axis',(1.,0.,0.));
#816=DIRECTION('ref_axis',(0.,1.,0.));
#817=DIRECTION('',(0.,0.,-1.));
#818=DIRECTION('',(0.,1.,0.));
#819=DIRECTION('',(0.,0.,1.));
#820=DIRECTION('',(0.,1.,0.));
#821=DIRECTION('',(0.,1.,0.));
#822=DIRECTION('center_axis',(0.,0.,1.));
#823=DIRECTION('ref_axis',(-1.,0.,0.));
#824=DIRECTION('center_axis',(0.,0.,1.));
#825=DIRECTION('ref_axis',(-1.,0.,0.));
#826=DIRECTION('center_axis',(0.,0.,-1.));
#827=DIRECTION('ref_axis',(-1.,0.,0.));
#828=DIRECTION('center_axis',(0.,0.,1.));
#829=DIRECTION('ref_axis',(1.,0.,0.));
#830=DIRECTION('',(0.,1.,0.));
#831=DIRECTION('',(-1.,0.,0.));
#832=DIRECTION('',(0.,-1.,0.));
#833=DIRECTION('',(1.,0.,0.));
#834=DIRECTION('center_axis',(0.,0.,-1.));
#835=DIRECTION('ref_axis',(-1.,0.,0.));
#836=DIRECTION('',(0.,0.,-1.));
#837=DIRECTION('center_axis',(0.,0.,-1.));
#838=DIRECTION('ref_axis',(-1.,0.,0.));
#839=DIRECTION('center_axis',(0.,0.,1.));
#840=DIRECTION('ref_axis',(-1.,0.,0.));
#841=DIRECTION('center_axis',(0.,0.,-1.));
#842=DIRECTION('ref_axis',(-1.,0.,0.));
#843=DIRECTION('',(0.,0.,-1.));
#844=DIRECTION('center_axis',(0.,0.,-1.));
#845=DIRECTION('ref_axis',(-1.,0.,0.));
#846=DIRECTION('center_axis',(0.,0.,1.));
#847=DIRECTION('ref_axis',(-1.,0.,0.));
#848=DIRECTION('center_axis',(0.,0.,-1.));
#849=DIRECTION('ref_axis',(-1.,0.,0.));
#850=DIRECTION('',(0.,0.,-1.));
#851=DIRECTION('center_axis',(0.,0.,-1.));
#852=DIRECTION('ref_axis',(-1.,0.,0.));
#853=DIRECTION('center_axis',(0.,0.,1.));
#854=DIRECTION('ref_axis',(-1.,0.,0.));
#855=DIRECTION('center_axis',(0.,0.,-1.));
#856=DIRECTION('ref_axis',(-1.,0.,0.));
#857=DIRECTION('',(0.,0.,-1.));
#858=DIRECTION('center_axis',(0.,0.,-1.));
#859=DIRECTION('ref_axis',(-1.,0.,0.));
#860=DIRECTION('center_axis',(0.,0.,1.));
#861=DIRECTION('ref_axis',(-1.,0.,0.));
#862=DIRECTION('center_axis',(0.,0.,-1.));
#863=DIRECTION('ref_axis',(-1.,0.,0.));
#864=DIRECTION('',(0.,-1.,0.));
#865=DIRECTION('',(-1.,0.,0.));
#866=DIRECTION('',(0.,1.,0.));
#867=DIRECTION('',(1.,0.,0.));
#868=DIRECTION('center_axis',(0.,0.,1.));
#869=DIRECTION('ref_axis',(-1.,0.,0.));
#870=DIRECTION('center_axis',(0.,0.,-1.));
#871=DIRECTION('ref_axis',(-1.,0.,0.));
#872=DIRECTION('center_axis',(0.,0.,1.));
#873=DIRECTION('ref_axis',(-1.,0.,0.));
#874=DIRECTION('center_axis',(0.,0.,-1.));
#875=DIRECTION('ref_axis',(-1.,0.,0.));
#876=DIRECTION('center_axis',(0.,0.,1.));
#877=DIRECTION('ref_axis',(-1.,0.,0.));
#878=DIRECTION('center_axis',(0.,0.,-1.));
#879=DIRECTION('ref_axis',(-1.,0.,0.));
#880=DIRECTION('center_axis',(0.,0.,1.));
#881=DIRECTION('ref_axis',(0.,1.,0.));
#882=DIRECTION('center_axis',(0.,0.,-1.));
#883=DIRECTION('ref_axis',(-1.,0.,0.));
#884=DIRECTION('center_axis',(0.,0.,1.));
#885=DIRECTION('ref_axis',(-1.,0.,0.));
#886=DIRECTION('center_axis',(0.,1.,0.));
#887=DIRECTION('ref_axis',(-1.,0.,0.));
#888=DIRECTION('',(0.,0.,-1.));
#889=DIRECTION('',(0.,0.,1.));
#890=DIRECTION('center_axis',(-1.,0.,0.));
#891=DIRECTION('ref_axis',(0.,-1.,0.));
#892=DIRECTION('',(0.,0.,-1.));
#893=DIRECTION('center_axis',(0.,-1.,0.));
#894=DIRECTION('ref_axis',(1.,0.,0.));
#895=DIRECTION('',(0.,0.,-1.));
#896=DIRECTION('center_axis',(1.,0.,0.));
#897=DIRECTION('ref_axis',(0.,1.,0.));
#898=CARTESIAN_POINT('',(0.,0.,0.));
#899=CARTESIAN_POINT('Origin',(108.000001609325,-55.,10.5000001564622));
#900=CARTESIAN_POINT('',(122.000001817942,-53.,10.5000001564622));
#901=CARTESIAN_POINT('',(108.000001609325,-53.,10.5000001564622));
#902=CARTESIAN_POINT('',(151.750000804663,-53.,10.5000001564622));
#903=CARTESIAN_POINT('',(122.000001817942,-55.,10.5000001564622));
#904=CARTESIAN_POINT('',(122.000001817942,-55.,10.5000001564622));
#905=CARTESIAN_POINT('',(108.000001609325,-55.,10.5000001564622));
#906=CARTESIAN_POINT('',(100.500000804663,-55.,10.5000001564622));
#907=CARTESIAN_POINT('',(108.000001609325,-55.,10.5000001564622));
#908=CARTESIAN_POINT('Origin',(108.000001609325,-55.,5.00000007450581));
#909=CARTESIAN_POINT('',(108.000001609325,-53.,5.00000007450581));
#910=CARTESIAN_POINT('',(108.000001609325,-53.,2.5000000372529));
#911=CARTESIAN_POINT('',(108.000001609325,-55.,5.00000007450581));
#912=CARTESIAN_POINT('',(108.000001609325,-55.,2.5000000372529));
#913=CARTESIAN_POINT('',(108.000001609325,-55.,5.00000007450581));
#914=CARTESIAN_POINT('Origin',(122.000001817942,-55.,5.00000007450581));
#915=CARTESIAN_POINT('',(122.000001817942,-53.,5.00000007450581));
#916=CARTESIAN_POINT('',(158.750000908971,-53.,5.00000007450581));
#917=CARTESIAN_POINT('',(122.000001817942,-55.,5.00000007450581));
#918=CARTESIAN_POINT('',(107.500000908971,-55.,5.00000007450581));
#919=CARTESIAN_POINT('',(122.000001817942,-55.,5.00000007450581));
#920=CARTESIAN_POINT('Origin',(122.000001817942,-55.,10.5000001564622));
#921=CARTESIAN_POINT('',(122.000001817942,-53.,5.2500000782311));
#922=CARTESIAN_POINT('',(122.000001817942,-55.,5.2500000782311));
#923=CARTESIAN_POINT('Origin',(179.,-88.,4.));
#924=CARTESIAN_POINT('',(181.1,-88.,4.));
#925=CARTESIAN_POINT('Origin',(179.,-88.,4.));
#926=CARTESIAN_POINT('',(181.1,-88.,-1.5));
#927=CARTESIAN_POINT('',(181.1,-88.,4.));
#928=CARTESIAN_POINT('Origin',(179.,-88.,-1.5));
#929=CARTESIAN_POINT('Origin',(179.,-88.,-1.5));
#930=CARTESIAN_POINT('Origin',(101.000001505017,-89.0000013262033,4.));
#931=CARTESIAN_POINT('',(103.100001505017,-89.0000013262033,4.));
#932=CARTESIAN_POINT('Origin',(101.000001505017,-89.0000013262033,4.));
#933=CARTESIAN_POINT('',(103.100001505017,-89.0000013262033,-1.5));
#934=CARTESIAN_POINT('',(103.100001505017,-89.0000013262033,4.));
#935=CARTESIAN_POINT('Origin',(101.000001505017,-89.0000013262033,-1.5));
#936=CARTESIAN_POINT('Origin',(101.000001505017,-89.0000013262033,-1.5));
#937=CARTESIAN_POINT('Origin',(179.,-88.,4.));
#938=CARTESIAN_POINT('',(176.,-88.,4.));
#939=CARTESIAN_POINT('Origin',(179.,-88.,4.));
#940=CARTESIAN_POINT('Origin',(101.,-89.,4.));
#941=CARTESIAN_POINT('',(98.,-89.,4.));
#942=CARTESIAN_POINT('Origin',(101.,-89.,4.));
#943=CARTESIAN_POINT('Origin',(179.,-88.,0.));
#944=CARTESIAN_POINT('',(176.,-88.,-2.));
#945=CARTESIAN_POINT('Origin',(179.,-88.,-2.));
#946=CARTESIAN_POINT('',(176.,-88.,0.));
#947=CARTESIAN_POINT('Origin',(101.,-89.,0.));
#948=CARTESIAN_POINT('',(98.,-89.,-2.));
#949=CARTESIAN_POINT('Origin',(101.,-89.,-2.));
#950=CARTESIAN_POINT('',(98.,-89.,0.));
#951=CARTESIAN_POINT('Origin',(190.6715,-57.8285,11.));
#952=CARTESIAN_POINT('',(186.943,-55.,11.));
#953=CARTESIAN_POINT('',(193.5,-61.557,11.));
#954=CARTESIAN_POINT('Origin',(193.5,-55.,11.));
#955=CARTESIAN_POINT('',(193.5,-55.,11.));
#956=CARTESIAN_POINT('',(193.5,-56.41425,11.));
#957=CARTESIAN_POINT('',(141.83575,-55.,11.));
#958=CARTESIAN_POINT('',(193.211924326393,-57.590516347258,11.));
#959=CARTESIAN_POINT('Origin',(191.061924326393,-57.590516347258,11.));
#960=CARTESIAN_POINT('Origin',(93.,-55.,0.));
#961=CARTESIAN_POINT('',(186.943,-55.,-2.));
#962=CARTESIAN_POINT('',(186.943,-55.,-2.));
#963=CARTESIAN_POINT('',(193.5,-55.,12.));
#964=CARTESIAN_POINT('',(193.5,-55.,0.));
#965=CARTESIAN_POINT('',(93.,-55.,12.));
#966=CARTESIAN_POINT('',(93.,-55.,12.));
#967=CARTESIAN_POINT('',(93.,-55.,11.));
#968=CARTESIAN_POINT('',(93.,-55.,0.));
#969=CARTESIAN_POINT('',(99.5568558932195,-55.,11.));
#970=CARTESIAN_POINT('',(94.4142139733049,-55.,11.));
#971=CARTESIAN_POINT('',(99.5568558932195,-55.,-2.));
#972=CARTESIAN_POINT('',(99.5568558932195,-55.,-2.));
#973=CARTESIAN_POINT('',(143.25,-55.,-2.));
#974=CARTESIAN_POINT('Origin',(190.6715,-122.6715,11.));
#975=CARTESIAN_POINT('',(193.5,-118.943,11.));
#976=CARTESIAN_POINT('',(193.5,-125.5,11.));
#977=CARTESIAN_POINT('',(193.5,-88.83575,11.));
#978=CARTESIAN_POINT('',(186.943,-125.5,11.));
#979=CARTESIAN_POINT('Origin',(193.5,-125.5,11.));
#980=CARTESIAN_POINT('',(192.08575,-125.5,11.));
#981=CARTESIAN_POINT('',(193.211924326393,-123.000001832843,11.));
#982=CARTESIAN_POINT('Origin',(191.061924326393,-123.000001832843,11.));
#983=CARTESIAN_POINT('Origin',(193.5,-55.,0.));
#984=CARTESIAN_POINT('',(193.5,-61.557,-2.));
#985=CARTESIAN_POINT('',(193.5,-61.557,-2.));
#986=CARTESIAN_POINT('',(193.5,-118.943,-2.));
#987=CARTESIAN_POINT('',(193.5,-90.25,-2.));
#988=CARTESIAN_POINT('',(193.5,-118.943,-2.));
#989=CARTESIAN_POINT('',(193.5,-125.5,12.));
#990=CARTESIAN_POINT('',(193.5,-125.5,0.));
#991=CARTESIAN_POINT('',(193.5,-55.,12.));
#992=CARTESIAN_POINT('Origin',(193.5,-125.5,0.));
#993=CARTESIAN_POINT('',(186.943,-125.5,-2.));
#994=CARTESIAN_POINT('',(186.943,-125.5,-2.));
#995=CARTESIAN_POINT('',(99.557,-125.5,-2.));
#996=CARTESIAN_POINT('',(193.5,-125.5,-2.));
#997=CARTESIAN_POINT('',(99.557,-125.5,11.));
#998=CARTESIAN_POINT('',(99.557,-125.5,-2.));
#999=CARTESIAN_POINT('',(93.,-125.5,11.));
#1000=CARTESIAN_POINT('',(144.66425,-125.5,11.));
#1001=CARTESIAN_POINT('',(93.,-125.5,12.));
#1002=CARTESIAN_POINT('',(93.,-125.5,0.));
#1003=CARTESIAN_POINT('',(193.5,-125.5,12.));
#1004=CARTESIAN_POINT('Origin',(95.8285,-122.6715,11.));
#1005=CARTESIAN_POINT('',(93.,-118.943,11.));
#1006=CARTESIAN_POINT('Origin',(93.,-125.5,11.));
#1007=CARTESIAN_POINT('',(93.,-124.08575,11.));
#1008=CARTESIAN_POINT('',(97.6500014230609,-123.000001832843,11.));
#1009=CARTESIAN_POINT('Origin',(95.5000014230609,-123.000001832843,11.));
#1010=CARTESIAN_POINT('Origin',(93.,-125.5,0.));
#1011=CARTESIAN_POINT('',(93.,-118.943,-2.));
#1012=CARTESIAN_POINT('',(93.,-118.943,-2.));
#1013=CARTESIAN_POINT('',(93.,-61.5568558932195,-2.));
#1014=CARTESIAN_POINT('',(93.,-125.5,-2.));
#1015=CARTESIAN_POINT('',(93.,-61.5568558932195,11.));
#1016=CARTESIAN_POINT('',(93.,-61.5568558932195,-2.));
#1017=CARTESIAN_POINT('',(93.,-91.6642139733049,11.));
#1018=CARTESIAN_POINT('',(93.,-125.5,12.));
#1019=CARTESIAN_POINT('Origin',(95.8284279466098,-57.8284279466097,11.));
#1020=CARTESIAN_POINT('Origin',(93.,-55.,11.));
#1021=CARTESIAN_POINT('',(97.6500014230609,-57.590516347258,11.));
#1022=CARTESIAN_POINT('Origin',(95.5000014230609,-57.590516347258,11.));
#1023=CARTESIAN_POINT('Origin',(143.25,-90.25,12.));
#1024=CARTESIAN_POINT('',(195.5,-127.5,12.));
#1025=CARTESIAN_POINT('',(195.5,-53.,12.));
#1026=CARTESIAN_POINT('',(195.5,-53.,12.));
#1027=CARTESIAN_POINT('',(91.,-53.,12.));
#1028=CARTESIAN_POINT('',(91.,-53.,12.));
#1029=CARTESIAN_POINT('',(91.,-127.5,12.));
#1030=CARTESIAN_POINT('',(91.,-127.5,12.));
#1031=CARTESIAN_POINT('',(195.5,-127.5,12.));
#1032=CARTESIAN_POINT('Origin',(95.5000014230609,-57.590516347258,7.));
#1033=CARTESIAN_POINT('',(97.6500014230609,-57.590516347258,2.8));
#1034=CARTESIAN_POINT('',(97.6500014230609,-57.590516347258,7.));
#1035=CARTESIAN_POINT('Origin',(95.5000014230609,-57.590516347258,2.8));
#1036=CARTESIAN_POINT('Origin',(95.5000014230609,-57.590516347258,2.8));
#1037=CARTESIAN_POINT('Origin',(95.5000014230609,-123.000001832843,7.));
#1038=CARTESIAN_POINT('',(97.6500014230609,-123.000001832843,2.8));
#1039=CARTESIAN_POINT('',(97.6500014230609,-123.000001832843,7.));
#1040=CARTESIAN_POINT('Origin',(95.5000014230609,-123.000001832843,2.8));
#1041=CARTESIAN_POINT('Origin',(95.5000014230609,-123.000001832843,2.8));
#1042=CARTESIAN_POINT('Origin',(191.061924326393,-57.590516347258,7.));
#1043=CARTESIAN_POINT('',(193.211924326393,-57.590516347258,2.8));
#1044=CARTESIAN_POINT('',(193.211924326393,-57.590516347258,7.));
#1045=CARTESIAN_POINT('Origin',(191.061924326393,-57.590516347258,2.8));
#1046=CARTESIAN_POINT('Origin',(191.061924326393,-57.590516347258,2.8));
#1047=CARTESIAN_POINT('Origin',(191.061924326393,-123.000001832843,7.));
#1048=CARTESIAN_POINT('',(193.211924326393,-123.000001832843,2.8));
#1049=CARTESIAN_POINT('',(193.211924326393,-123.000001832843,7.));
#1050=CARTESIAN_POINT('Origin',(191.061924326393,-123.000001832843,2.8));
#1051=CARTESIAN_POINT('Origin',(191.061924326393,-123.000001832843,2.8));
#1052=CARTESIAN_POINT('Origin',(143.25,-90.25,-4.));
#1053=CARTESIAN_POINT('',(195.5,-53.,-4.));
#1054=CARTESIAN_POINT('',(195.5,-127.5,-4.));
#1055=CARTESIAN_POINT('',(195.5,-53.,-4.));
#1056=CARTESIAN_POINT('',(91.,-127.5,-4.));
#1057=CARTESIAN_POINT('',(195.5,-127.5,-4.));
#1058=CARTESIAN_POINT('',(91.,-53.,-4.));
#1059=CARTESIAN_POINT('',(91.,-127.5,-4.));
#1060=CARTESIAN_POINT('',(91.,-53.,-4.));
#1061=CARTESIAN_POINT('Origin',(93.,-55.,-2.));
#1062=CARTESIAN_POINT('Origin',(93.,-55.,-2.));
#1063=CARTESIAN_POINT('Origin',(93.,-125.5,-2.));
#1064=CARTESIAN_POINT('Origin',(93.,-125.5,-2.));
#1065=CARTESIAN_POINT('Origin',(193.5,-125.5,-2.));
#1066=CARTESIAN_POINT('Origin',(193.5,-125.5,-2.));
#1067=CARTESIAN_POINT('Origin',(193.5,-125.5,-2.));
#1068=CARTESIAN_POINT('Origin',(193.5,-55.,-2.));
#1069=CARTESIAN_POINT('Origin',(193.5,-55.,-2.));
#1070=CARTESIAN_POINT('Origin',(195.5,-53.,0.));
#1071=CARTESIAN_POINT('',(91.,-53.,0.));
#1072=CARTESIAN_POINT('',(195.5,-53.,0.));
#1073=CARTESIAN_POINT('Origin',(91.,-53.,0.));
#1074=CARTESIAN_POINT('',(91.,-127.5,0.));
#1075=CARTESIAN_POINT('Origin',(91.,-127.5,0.));
#1076=CARTESIAN_POINT('',(195.5,-127.5,0.));
#1077=CARTESIAN_POINT('Origin',(195.5,-127.5,0.));
#1078=UNCERTAINTY_MEASURE_WITH_UNIT(LENGTH_MEASURE(0.01),#1082,
'DISTANCE_ACCURACY_VALUE',
'Maximum model space distance between geometric entities at asserted c
onnectivities');
#1079=UNCERTAINTY_MEASURE_WITH_UNIT(LENGTH_MEASURE(0.01),#1082,
'DISTANCE_ACCURACY_VALUE',
'Maximum model space distance between geometric entities at asserted c
onnectivities');
#1080=(
GEOMETRIC_REPRESENTATION_CONTEXT(3)
GLOBAL_UNCERTAINTY_ASSIGNED_CONTEXT((#1078))
GLOBAL_UNIT_ASSIGNED_CONTEXT((#1082,#1083,#1084))
REPRESENTATION_CONTEXT('','3D')
);
#1081=(
GEOMETRIC_REPRESENTATION_CONTEXT(3)
GLOBAL_UNCERTAINTY_ASSIGNED_CONTEXT((#1079))
GLOBAL_UNIT_ASSIGNED_CONTEXT((#1082,#1083,#1084))
REPRESENTATION_CONTEXT('','3D')
);
#1082=(
LENGTH_UNIT()
NAMED_UNIT(*)
SI_UNIT(.MILLI.,.METRE.)
);
#1083=(
NAMED_UNIT(*)
PLANE_ANGLE_UNIT()
SI_UNIT($,.RADIAN.)
);
#1084=(
NAMED_UNIT(*)
SI_UNIT($,.STERADIAN.)
SOLID_ANGLE_UNIT()
);
#1085=SHAPE_DEFINITION_REPRESENTATION(#1086,#1087);
#1086=PRODUCT_DEFINITION_SHAPE('',$,#1089);
#1087=SHAPE_REPRESENTATION('',(#646),#1080);
#1088=PRODUCT_DEFINITION_CONTEXT('part definition',#1093,'design');
#1089=PRODUCT_DEFINITION('my-keyboard 1','my-keyboard',#1090,#1088);
#1090=PRODUCT_DEFINITION_FORMATION('',$,#1095);
#1091=PRODUCT_RELATED_PRODUCT_CATEGORY('my-keyboard','my-keyboard',(#1095));
#1092=APPLICATION_PROTOCOL_DEFINITION('international standard',
'automotive_design',2009,#1093);
#1093=APPLICATION_CONTEXT(
'Core Data for Automotive Mechanical Design Process');
#1094=PRODUCT_CONTEXT('part definition',#1093,'mechanical');
#1095=PRODUCT('my-keyboard 1','my-keyboard','KiCad electronic assembly',
(#1094));
#1096=PRESENTATION_STYLE_ASSIGNMENT((#1097));
#1097=SURFACE_STYLE_USAGE(.BOTH.,#1098);
#1098=SURFACE_SIDE_STYLE('',(#1099));
#1099=SURFACE_STYLE_FILL_AREA(#1100);
#1100=FILL_AREA_STYLE('Stal \X2\2014\X0\ satynowa',(#1101));
#1101=FILL_AREA_STYLE_COLOUR('Stal \X2\2014\X0\ satynowa',#1102);
#1102=COLOUR_RGB('Stal \X2\2014\X0\ satynowa',0.627450980392157,0.627450980392157,
0.627450980392157);
ENDSEC;
END-ISO-10303-21;
