ISO-10303-21;
HEADER;
/* Generated by software containing ST-Developer
 * from STEP Tools, Inc. (www.steptools.com) 
 */

FILE_DESCRIPTION(
/* description */ ('KiCad electronic assembly'),
/* implementation_level */ '2;1');

FILE_NAME(
/* name */ 'top.step',
/* time_stamp */ '2026-08-04T09:34:41+02:00',
/* author */ (''),
/* organization */ (''),
/* preprocessor_version */ 'ST-DEVELOPER v20.1',
/* originating_system */ 'Autodesk Translation Framework v15.8.0.0',
/* authorisation */ '');

FILE_SCHEMA (('AUTOMOTIVE_DESIGN { 1 0 10303 214 3 1 1 }'));
ENDSEC;

DATA;
#10=MECHANICAL_DESIGN_GEOMETRIC_PRESENTATION_REPRESENTATION('',(#13),#1418);
#11=SHAPE_REPRESENTATION_RELATIONSHIP('SRR','None',#1424,#12);
#12=ADVANCED_BREP_SHAPE_REPRESENTATION('',(#14),#1417);
#13=STYLED_ITEM('',(#1433),#14);
#14=MANIFOLD_SOLID_BREP('Lid',#848);
#15=CYLINDRICAL_SURFACE('',#867,2.15);
#16=CYLINDRICAL_SURFACE('',#870,2.15);
#17=CYLINDRICAL_SURFACE('',#872,3.22900000000001);
#18=CYLINDRICAL_SURFACE('',#877,3.22900000000001);
#19=CYLINDRICAL_SURFACE('',#882,3.22900000000001);
#20=CYLINDRICAL_SURFACE('',#887,3.22892476685475);
#21=CYLINDRICAL_SURFACE('',#892,2.15406587470667);
#22=CYLINDRICAL_SURFACE('',#895,2.15406587470667);
#23=CYLINDRICAL_SURFACE('',#898,2.13592829519122);
#24=CYLINDRICAL_SURFACE('',#900,2.14767311148723);
#25=CYLINDRICAL_SURFACE('',#908,2.15);
#26=CYLINDRICAL_SURFACE('',#909,2.15);
#27=FACE_BOUND('',#121,.T.);
#28=FACE_BOUND('',#123,.T.);
#29=FACE_BOUND('',#129,.T.);
#30=FACE_BOUND('',#132,.T.);
#31=FACE_BOUND('',#135,.T.);
#32=FACE_BOUND('',#138,.T.);
#33=FACE_BOUND('',#167,.T.);
#34=FACE_BOUND('',#168,.T.);
#35=FACE_BOUND('',#169,.T.);
#36=FACE_BOUND('',#170,.T.);
#37=FACE_BOUND('',#171,.T.);
#38=CIRCLE('',#853,2.15);
#39=CIRCLE('',#854,2.15406587470667);
#40=CIRCLE('',#855,2.15406587470667);
#41=CIRCLE('',#856,2.14767311148723);
#42=CIRCLE('',#857,2.14767311148723);
#43=CIRCLE('',#858,2.15);
#44=CIRCLE('',#859,2.15);
#45=CIRCLE('',#860,2.13592829519122);
#46=CIRCLE('',#861,2.13592829519122);
#47=CIRCLE('',#863,2.15);
#48=CIRCLE('',#864,2.15);
#49=CIRCLE('',#865,2.15);
#50=CIRCLE('',#866,2.15);
#51=CIRCLE('',#868,2.15);
#52=CIRCLE('',#871,2.15);
#53=CIRCLE('',#873,3.22900000000001);
#54=CIRCLE('',#874,3.22900000000001);
#55=CIRCLE('',#876,2.14767311148723);
#56=CIRCLE('',#878,3.22900000000001);
#57=CIRCLE('',#879,3.22900000000001);
#58=CIRCLE('',#881,2.15406587470667);
#59=CIRCLE('',#883,3.22900000000001);
#60=CIRCLE('',#884,3.22900000000001);
#61=CIRCLE('',#886,2.13592829519122);
#62=CIRCLE('',#888,3.22892476685475);
#63=CIRCLE('',#889,3.22892476685475);
#64=CIRCLE('',#891,2.15406587470667);
#65=CIRCLE('',#893,2.15406587470667);
#66=CIRCLE('',#894,2.15406587470667);
#67=CIRCLE('',#896,2.15406587470667);
#68=CIRCLE('',#897,2.15406587470667);
#69=CIRCLE('',#899,2.13592829519122);
#70=CIRCLE('',#901,2.14767311148723);
#71=CIRCLE('',#904,2.15);
#72=CIRCLE('',#907,2.15);
#73=FACE_OUTER_BOUND('',#118,.T.);
#74=FACE_OUTER_BOUND('',#119,.T.);
#75=FACE_OUTER_BOUND('',#120,.T.);
#76=FACE_OUTER_BOUND('',#122,.T.);
#77=FACE_OUTER_BOUND('',#124,.T.);
#78=FACE_OUTER_BOUND('',#125,.T.);
#79=FACE_OUTER_BOUND('',#126,.T.);
#80=FACE_OUTER_BOUND('',#127,.T.);
#81=FACE_OUTER_BOUND('',#128,.T.);
#82=FACE_OUTER_BOUND('',#130,.T.);
#83=FACE_OUTER_BOUND('',#131,.T.);
#84=FACE_OUTER_BOUND('',#133,.T.);
#85=FACE_OUTER_BOUND('',#134,.T.);
#86=FACE_OUTER_BOUND('',#136,.T.);
#87=FACE_OUTER_BOUND('',#137,.T.);
#88=FACE_OUTER_BOUND('',#139,.T.);
#89=FACE_OUTER_BOUND('',#140,.T.);
#90=FACE_OUTER_BOUND('',#141,.T.);
#91=FACE_OUTER_BOUND('',#142,.T.);
#92=FACE_OUTER_BOUND('',#143,.T.);
#93=FACE_OUTER_BOUND('',#144,.T.);
#94=FACE_OUTER_BOUND('',#145,.T.);
#95=FACE_OUTER_BOUND('',#146,.T.);
#96=FACE_OUTER_BOUND('',#147,.T.);
#97=FACE_OUTER_BOUND('',#148,.T.);
#98=FACE_OUTER_BOUND('',#149,.T.);
#99=FACE_OUTER_BOUND('',#150,.T.);
#100=FACE_OUTER_BOUND('',#151,.T.);
#101=FACE_OUTER_BOUND('',#152,.T.);
#102=FACE_OUTER_BOUND('',#153,.T.);
#103=FACE_OUTER_BOUND('',#154,.T.);
#104=FACE_OUTER_BOUND('',#155,.T.);
#105=FACE_OUTER_BOUND('',#156,.T.);
#106=FACE_OUTER_BOUND('',#157,.T.);
#107=FACE_OUTER_BOUND('',#158,.T.);
#108=FACE_OUTER_BOUND('',#159,.T.);
#109=FACE_OUTER_BOUND('',#160,.T.);
#110=FACE_OUTER_BOUND('',#161,.T.);
#111=FACE_OUTER_BOUND('',#162,.T.);
#112=FACE_OUTER_BOUND('',#163,.T.);
#113=FACE_OUTER_BOUND('',#164,.T.);
#114=FACE_OUTER_BOUND('',#165,.T.);
#115=FACE_OUTER_BOUND('',#166,.T.);
#116=FACE_OUTER_BOUND('',#172,.T.);
#117=FACE_OUTER_BOUND('',#173,.T.);
#118=EDGE_LOOP('',(#534,#535,#536,#537,#538));
#119=EDGE_LOOP('',(#539,#540,#541,#542));
#120=EDGE_LOOP('',(#543,#544,#545,#546));
#121=EDGE_LOOP('',(#547,#548,#549,#550,#551,#552,#553,#554,#555,#556,#557,
#558,#559,#560,#561));
#122=EDGE_LOOP('',(#562,#563,#564,#565,#566,#567,#568,#569,#570,#571));
#123=EDGE_LOOP('',(#572,#573,#574,#575,#576,#577,#578,#579,#580,#581,#582,
#583));
#124=EDGE_LOOP('',(#584,#585,#586,#587,#588));
#125=EDGE_LOOP('',(#589,#590,#591,#592));
#126=EDGE_LOOP('',(#593,#594,#595,#596,#597));
#127=EDGE_LOOP('',(#598,#599,#600,#601));
#128=EDGE_LOOP('',(#602));
#129=EDGE_LOOP('',(#603));
#130=EDGE_LOOP('',(#604,#605,#606,#607));
#131=EDGE_LOOP('',(#608));
#132=EDGE_LOOP('',(#609));
#133=EDGE_LOOP('',(#610,#611,#612,#613));
#134=EDGE_LOOP('',(#614));
#135=EDGE_LOOP('',(#615));
#136=EDGE_LOOP('',(#616,#617,#618,#619));
#137=EDGE_LOOP('',(#620));
#138=EDGE_LOOP('',(#621));
#139=EDGE_LOOP('',(#622,#623,#624,#625,#626,#627));
#140=EDGE_LOOP('',(#628,#629,#630,#631,#632,#633));
#141=EDGE_LOOP('',(#634,#635,#636,#637,#638,#639));
#142=EDGE_LOOP('',(#640,#641,#642,#643,#644,#645));
#143=EDGE_LOOP('',(#646,#647,#648,#649));
#144=EDGE_LOOP('',(#650,#651,#652,#653,#654));
#145=EDGE_LOOP('',(#655,#656,#657));
#146=EDGE_LOOP('',(#658,#659,#660));
#147=EDGE_LOOP('',(#661,#662,#663,#664));
#148=EDGE_LOOP('',(#665,#666,#667,#668,#669));
#149=EDGE_LOOP('',(#670,#671,#672,#673));
#150=EDGE_LOOP('',(#674,#675,#676,#677));
#151=EDGE_LOOP('',(#678,#679,#680,#681));
#152=EDGE_LOOP('',(#682,#683,#684,#685));
#153=EDGE_LOOP('',(#686,#687,#688,#689));
#154=EDGE_LOOP('',(#690,#691,#692,#693));
#155=EDGE_LOOP('',(#694,#695,#696,#697));
#156=EDGE_LOOP('',(#698,#699,#700,#701));
#157=EDGE_LOOP('',(#702,#703,#704,#705));
#158=EDGE_LOOP('',(#706,#707,#708,#709));
#159=EDGE_LOOP('',(#710,#711,#712,#713));
#160=EDGE_LOOP('',(#714,#715,#716,#717));
#161=EDGE_LOOP('',(#718,#719,#720,#721));
#162=EDGE_LOOP('',(#722,#723,#724,#725));
#163=EDGE_LOOP('',(#726,#727,#728,#729));
#164=EDGE_LOOP('',(#730,#731,#732,#733));
#165=EDGE_LOOP('',(#734,#735,#736,#737));
#166=EDGE_LOOP('',(#738,#739,#740,#741));
#167=EDGE_LOOP('',(#742,#743,#744,#745,#746,#747,#748,#749,#750,#751,#752,
#753));
#168=EDGE_LOOP('',(#754));
#169=EDGE_LOOP('',(#755));
#170=EDGE_LOOP('',(#756));
#171=EDGE_LOOP('',(#757));
#172=EDGE_LOOP('',(#758,#759,#760,#761,#762,#763));
#173=EDGE_LOOP('',(#764,#765,#766,#767,#768,#769));
#174=LINE('',#1179,#257);
#175=LINE('',#1181,#258);
#176=LINE('',#1183,#259);
#177=LINE('',#1185,#260);
#178=LINE('',#1186,#261);
#179=LINE('',#1189,#262);
#180=LINE('',#1191,#263);
#181=LINE('',#1192,#264);
#182=LINE('',#1196,#265);
#183=LINE('',#1198,#266);
#184=LINE('',#1200,#267);
#185=LINE('',#1201,#268);
#186=LINE('',#1203,#269);
#187=LINE('',#1209,#270);
#188=LINE('',#1213,#271);
#189=LINE('',#1221,#272);
#190=LINE('',#1231,#273);
#191=LINE('',#1235,#274);
#192=LINE('',#1239,#275);
#193=LINE('',#1242,#276);
#194=LINE('',#1245,#277);
#195=LINE('',#1247,#278);
#196=LINE('',#1249,#279);
#197=LINE('',#1251,#280);
#198=LINE('',#1253,#281);
#199=LINE('',#1255,#282);
#200=LINE('',#1257,#283);
#201=LINE('',#1259,#284);
#202=LINE('',#1261,#285);
#203=LINE('',#1263,#286);
#204=LINE('',#1265,#287);
#205=LINE('',#1266,#288);
#206=LINE('',#1269,#289);
#207=LINE('',#1271,#290);
#208=LINE('',#1274,#291);
#209=LINE('',#1280,#292);
#210=LINE('',#1289,#293);
#211=LINE('',#1298,#294);
#212=LINE('',#1307,#295);
#213=LINE('',#1316,#296);
#214=LINE('',#1321,#297);
#215=LINE('',#1324,#298);
#216=LINE('',#1327,#299);
#217=LINE('',#1329,#300);
#218=LINE('',#1332,#301);
#219=LINE('',#1334,#302);
#220=LINE('',#1339,#303);
#221=LINE('',#1342,#304);
#222=LINE('',#1343,#305);
#223=LINE('',#1345,#306);
#224=LINE('',#1346,#307);
#225=LINE('',#1350,#308);
#226=LINE('',#1352,#309);
#227=LINE('',#1353,#310);
#228=LINE('',#1356,#311);
#229=LINE('',#1357,#312);
#230=LINE('',#1360,#313);
#231=LINE('',#1362,#314);
#232=LINE('',#1363,#315);
#233=LINE('',#1366,#316);
#234=LINE('',#1367,#317);
#235=LINE('',#1370,#318);
#236=LINE('',#1371,#319);
#237=LINE('',#1374,#320);
#238=LINE('',#1376,#321);
#239=LINE('',#1377,#322);
#240=LINE('',#1380,#323);
#241=LINE('',#1381,#324);
#242=LINE('',#1384,#325);
#243=LINE('',#1385,#326);
#244=LINE('',#1388,#327);
#245=LINE('',#1389,#328);
#246=LINE('',#1391,#329);
#247=LINE('',#1393,#330);
#248=LINE('',#1395,#331);
#249=LINE('',#1398,#332);
#250=LINE('',#1400,#333);
#251=LINE('',#1401,#334);
#252=LINE('',#1404,#335);
#253=LINE('',#1405,#336);
#254=LINE('',#1408,#337);
#255=LINE('',#1409,#338);
#256=LINE('',#1411,#339);
#257=VECTOR('',#934,10.);
#258=VECTOR('',#935,10.);
#259=VECTOR('',#936,10.);
#260=VECTOR('',#937,10.);
#261=VECTOR('',#938,10.);
#262=VECTOR('',#941,10.);
#263=VECTOR('',#942,10.);
#264=VECTOR('',#943,10.);
#265=VECTOR('',#946,10.);
#266=VECTOR('',#947,10.);
#267=VECTOR('',#948,10.);
#268=VECTOR('',#949,10.);
#269=VECTOR('',#950,10.);
#270=VECTOR('',#955,10.);
#271=VECTOR('',#958,10.);
#272=VECTOR('',#965,10.);
#273=VECTOR('',#976,10.);
#274=VECTOR('',#979,10.);
#275=VECTOR('',#982,10.);
#276=VECTOR('',#985,10.);
#277=VECTOR('',#986,10.);
#278=VECTOR('',#987,10.);
#279=VECTOR('',#988,10.);
#280=VECTOR('',#989,10.);
#281=VECTOR('',#990,10.);
#282=VECTOR('',#991,10.);
#283=VECTOR('',#992,10.);
#284=VECTOR('',#993,10.);
#285=VECTOR('',#994,10.);
#286=VECTOR('',#995,10.);
#287=VECTOR('',#996,10.);
#288=VECTOR('',#997,10.);
#289=VECTOR('',#1002,10.);
#290=VECTOR('',#1005,10.);
#291=VECTOR('',#1008,10.);
#292=VECTOR('',#1015,3.22900000000001);
#293=VECTOR('',#1026,3.22900000000001);
#294=VECTOR('',#1037,3.22900000000001);
#295=VECTOR('',#1048,3.22892476685475);
#296=VECTOR('',#1061,2.15406587470667);
#297=VECTOR('',#1068,2.15406587470667);
#298=VECTOR('',#1073,2.13592829519122);
#299=VECTOR('',#1078,2.14767311148723);
#300=VECTOR('',#1081,10.);
#301=VECTOR('',#1084,10.);
#302=VECTOR('',#1085,10.);
#303=VECTOR('',#1092,10.);
#304=VECTOR('',#1097,10.);
#305=VECTOR('',#1098,10.);
#306=VECTOR('',#1101,10.);
#307=VECTOR('',#1102,10.);
#308=VECTOR('',#1107,10.);
#309=VECTOR('',#1108,10.);
#310=VECTOR('',#1109,10.);
#311=VECTOR('',#1112,10.);
#312=VECTOR('',#1113,10.);
#313=VECTOR('',#1116,10.);
#314=VECTOR('',#1117,10.);
#315=VECTOR('',#1118,10.);
#316=VECTOR('',#1121,10.);
#317=VECTOR('',#1122,10.);
#318=VECTOR('',#1125,10.);
#319=VECTOR('',#1126,10.);
#320=VECTOR('',#1129,10.);
#321=VECTOR('',#1130,10.);
#322=VECTOR('',#1131,10.);
#323=VECTOR('',#1134,10.);
#324=VECTOR('',#1135,10.);
#325=VECTOR('',#1138,10.);
#326=VECTOR('',#1139,10.);
#327=VECTOR('',#1142,10.);
#328=VECTOR('',#1143,10.);
#329=VECTOR('',#1146,10.);
#330=VECTOR('',#1149,10.);
#331=VECTOR('',#1152,10.);
#332=VECTOR('',#1155,10.);
#333=VECTOR('',#1156,10.);
#334=VECTOR('',#1157,10.);
#335=VECTOR('',#1160,10.);
#336=VECTOR('',#1161,10.);
#337=VECTOR('',#1164,10.);
#338=VECTOR('',#1165,10.);
#339=VECTOR('',#1168,10.);
#340=VERTEX_POINT('',#1177);
#341=VERTEX_POINT('',#1178);
#342=VERTEX_POINT('',#1180);
#343=VERTEX_POINT('',#1182);
#344=VERTEX_POINT('',#1184);
#345=VERTEX_POINT('',#1188);
#346=VERTEX_POINT('',#1190);
#347=VERTEX_POINT('',#1194);
#348=VERTEX_POINT('',#1195);
#349=VERTEX_POINT('',#1197);
#350=VERTEX_POINT('',#1199);
#351=VERTEX_POINT('',#1202);
#352=VERTEX_POINT('',#1204);
#353=VERTEX_POINT('',#1206);
#354=VERTEX_POINT('',#1208);
#355=VERTEX_POINT('',#1210);
#356=VERTEX_POINT('',#1212);
#357=VERTEX_POINT('',#1214);
#358=VERTEX_POINT('',#1216);
#359=VERTEX_POINT('',#1218);
#360=VERTEX_POINT('',#1220);
#361=VERTEX_POINT('',#1222);
#362=VERTEX_POINT('',#1224);
#363=VERTEX_POINT('',#1228);
#364=VERTEX_POINT('',#1230);
#365=VERTEX_POINT('',#1232);
#366=VERTEX_POINT('',#1234);
#367=VERTEX_POINT('',#1236);
#368=VERTEX_POINT('',#1238);
#369=VERTEX_POINT('',#1240);
#370=VERTEX_POINT('',#1243);
#371=VERTEX_POINT('',#1244);
#372=VERTEX_POINT('',#1246);
#373=VERTEX_POINT('',#1248);
#374=VERTEX_POINT('',#1250);
#375=VERTEX_POINT('',#1252);
#376=VERTEX_POINT('',#1254);
#377=VERTEX_POINT('',#1256);
#378=VERTEX_POINT('',#1258);
#379=VERTEX_POINT('',#1260);
#380=VERTEX_POINT('',#1262);
#381=VERTEX_POINT('',#1264);
#382=VERTEX_POINT('',#1273);
#383=VERTEX_POINT('',#1277);
#384=VERTEX_POINT('',#1279);
#385=VERTEX_POINT('',#1283);
#386=VERTEX_POINT('',#1286);
#387=VERTEX_POINT('',#1288);
#388=VERTEX_POINT('',#1292);
#389=VERTEX_POINT('',#1295);
#390=VERTEX_POINT('',#1297);
#391=VERTEX_POINT('',#1301);
#392=VERTEX_POINT('',#1304);
#393=VERTEX_POINT('',#1306);
#394=VERTEX_POINT('',#1310);
#395=VERTEX_POINT('',#1313);
#396=VERTEX_POINT('',#1318);
#397=VERTEX_POINT('',#1331);
#398=VERTEX_POINT('',#1333);
#399=VERTEX_POINT('',#1338);
#400=VERTEX_POINT('',#1349);
#401=VERTEX_POINT('',#1351);
#402=VERTEX_POINT('',#1355);
#403=VERTEX_POINT('',#1359);
#404=VERTEX_POINT('',#1361);
#405=VERTEX_POINT('',#1365);
#406=VERTEX_POINT('',#1369);
#407=VERTEX_POINT('',#1373);
#408=VERTEX_POINT('',#1375);
#409=VERTEX_POINT('',#1379);
#410=VERTEX_POINT('',#1383);
#411=VERTEX_POINT('',#1387);
#412=VERTEX_POINT('',#1397);
#413=VERTEX_POINT('',#1399);
#414=VERTEX_POINT('',#1403);
#415=VERTEX_POINT('',#1407);
#416=EDGE_CURVE('',#340,#341,#174,.T.);
#417=EDGE_CURVE('',#342,#340,#175,.T.);
#418=EDGE_CURVE('',#343,#342,#176,.T.);
#419=EDGE_CURVE('',#343,#344,#177,.T.);
#420=EDGE_CURVE('',#341,#344,#178,.T.);
#421=EDGE_CURVE('',#345,#342,#179,.T.);
#422=EDGE_CURVE('',#345,#346,#180,.T.);
#423=EDGE_CURVE('',#346,#343,#181,.T.);
#424=EDGE_CURVE('',#347,#348,#182,.T.);
#425=EDGE_CURVE('',#349,#347,#183,.T.);
#426=EDGE_CURVE('',#350,#349,#184,.T.);
#427=EDGE_CURVE('',#348,#350,#185,.T.);
#428=EDGE_CURVE('',#351,#346,#186,.T.);
#429=EDGE_CURVE('',#352,#351,#38,.T.);
#430=EDGE_CURVE('',#352,#353,#39,.T.);
#431=EDGE_CURVE('',#354,#353,#187,.T.);
#432=EDGE_CURVE('',#354,#355,#40,.T.);
#433=EDGE_CURVE('',#356,#355,#188,.T.);
#434=EDGE_CURVE('',#356,#357,#41,.T.);
#435=EDGE_CURVE('',#357,#358,#42,.T.);
#436=EDGE_CURVE('',#359,#358,#43,.T.);
#437=EDGE_CURVE('',#360,#359,#189,.T.);
#438=EDGE_CURVE('',#361,#360,#44,.T.);
#439=EDGE_CURVE('',#361,#362,#45,.T.);
#440=EDGE_CURVE('',#362,#344,#46,.T.);
#441=EDGE_CURVE('',#340,#363,#47,.T.);
#442=EDGE_CURVE('',#363,#364,#190,.T.);
#443=EDGE_CURVE('',#364,#365,#48,.T.);
#444=EDGE_CURVE('',#365,#366,#191,.T.);
#445=EDGE_CURVE('',#366,#367,#49,.T.);
#446=EDGE_CURVE('',#367,#368,#192,.T.);
#447=EDGE_CURVE('',#368,#369,#50,.T.);
#448=EDGE_CURVE('',#369,#345,#193,.T.);
#449=EDGE_CURVE('',#370,#371,#194,.T.);
#450=EDGE_CURVE('',#371,#372,#195,.T.);
#451=EDGE_CURVE('',#372,#373,#196,.T.);
#452=EDGE_CURVE('',#373,#374,#197,.T.);
#453=EDGE_CURVE('',#374,#375,#198,.T.);
#454=EDGE_CURVE('',#375,#376,#199,.T.);
#455=EDGE_CURVE('',#376,#377,#200,.T.);
#456=EDGE_CURVE('',#377,#378,#201,.T.);
#457=EDGE_CURVE('',#378,#379,#202,.T.);
#458=EDGE_CURVE('',#379,#380,#203,.T.);
#459=EDGE_CURVE('',#380,#381,#204,.T.);
#460=EDGE_CURVE('',#381,#370,#205,.T.);
#461=EDGE_CURVE('',#341,#361,#51,.T.);
#462=EDGE_CURVE('',#363,#360,#206,.T.);
#463=EDGE_CURVE('',#351,#369,#207,.T.);
#464=EDGE_CURVE('',#382,#368,#208,.T.);
#465=EDGE_CURVE('',#382,#352,#52,.T.);
#466=EDGE_CURVE('',#383,#383,#53,.T.);
#467=EDGE_CURVE('',#383,#384,#209,.T.);
#468=EDGE_CURVE('',#384,#384,#54,.T.);
#469=EDGE_CURVE('',#385,#385,#55,.T.);
#470=EDGE_CURVE('',#386,#386,#56,.T.);
#471=EDGE_CURVE('',#386,#387,#210,.T.);
#472=EDGE_CURVE('',#387,#387,#57,.T.);
#473=EDGE_CURVE('',#388,#388,#58,.T.);
#474=EDGE_CURVE('',#389,#389,#59,.T.);
#475=EDGE_CURVE('',#389,#390,#211,.T.);
#476=EDGE_CURVE('',#390,#390,#60,.T.);
#477=EDGE_CURVE('',#391,#391,#61,.T.);
#478=EDGE_CURVE('',#392,#392,#62,.T.);
#479=EDGE_CURVE('',#392,#393,#212,.T.);
#480=EDGE_CURVE('',#393,#393,#63,.T.);
#481=EDGE_CURVE('',#394,#394,#64,.T.);
#482=EDGE_CURVE('',#353,#395,#65,.T.);
#483=EDGE_CURVE('',#395,#352,#66,.T.);
#484=EDGE_CURVE('',#395,#394,#213,.T.);
#485=EDGE_CURVE('',#355,#396,#67,.T.);
#486=EDGE_CURVE('',#396,#354,#68,.T.);
#487=EDGE_CURVE('',#396,#388,#214,.T.);
#488=EDGE_CURVE('',#344,#361,#69,.T.);
#489=EDGE_CURVE('',#362,#391,#215,.T.);
#490=EDGE_CURVE('',#358,#356,#70,.T.);
#491=EDGE_CURVE('',#357,#385,#216,.T.);
#492=EDGE_CURVE('',#353,#382,#217,.T.);
#493=EDGE_CURVE('',#355,#397,#218,.T.);
#494=EDGE_CURVE('',#398,#354,#219,.T.);
#495=EDGE_CURVE('',#397,#398,#71,.T.);
#496=EDGE_CURVE('',#399,#356,#220,.T.);
#497=EDGE_CURVE('',#358,#399,#72,.T.);
#498=EDGE_CURVE('',#367,#398,#221,.T.);
#499=EDGE_CURVE('',#397,#366,#222,.T.);
#500=EDGE_CURVE('',#365,#399,#223,.T.);
#501=EDGE_CURVE('',#359,#364,#224,.T.);
#502=EDGE_CURVE('',#400,#370,#225,.T.);
#503=EDGE_CURVE('',#401,#400,#226,.T.);
#504=EDGE_CURVE('',#401,#371,#227,.T.);
#505=EDGE_CURVE('',#402,#401,#228,.T.);
#506=EDGE_CURVE('',#372,#402,#229,.T.);
#507=EDGE_CURVE('',#378,#403,#230,.T.);
#508=EDGE_CURVE('',#404,#377,#231,.T.);
#509=EDGE_CURVE('',#403,#404,#232,.T.);
#510=EDGE_CURVE('',#405,#402,#233,.T.);
#511=EDGE_CURVE('',#373,#405,#234,.T.);
#512=EDGE_CURVE('',#406,#403,#235,.T.);
#513=EDGE_CURVE('',#379,#406,#236,.T.);
#514=EDGE_CURVE('',#375,#407,#237,.T.);
#515=EDGE_CURVE('',#374,#408,#238,.T.);
#516=EDGE_CURVE('',#407,#408,#239,.T.);
#517=EDGE_CURVE('',#409,#407,#240,.T.);
#518=EDGE_CURVE('',#376,#409,#241,.T.);
#519=EDGE_CURVE('',#381,#410,#242,.T.);
#520=EDGE_CURVE('',#400,#410,#243,.T.);
#521=EDGE_CURVE('',#410,#411,#244,.T.);
#522=EDGE_CURVE('',#380,#411,#245,.T.);
#523=EDGE_CURVE('',#411,#406,#246,.T.);
#524=EDGE_CURVE('',#404,#409,#247,.T.);
#525=EDGE_CURVE('',#408,#405,#248,.T.);
#526=EDGE_CURVE('',#347,#412,#249,.T.);
#527=EDGE_CURVE('',#413,#412,#250,.T.);
#528=EDGE_CURVE('',#349,#413,#251,.T.);
#529=EDGE_CURVE('',#414,#413,#252,.T.);
#530=EDGE_CURVE('',#350,#414,#253,.T.);
#531=EDGE_CURVE('',#415,#414,#254,.T.);
#532=EDGE_CURVE('',#348,#415,#255,.T.);
#533=EDGE_CURVE('',#412,#415,#256,.T.);
#534=ORIENTED_EDGE('',*,*,#416,.F.);
#535=ORIENTED_EDGE('',*,*,#417,.F.);
#536=ORIENTED_EDGE('',*,*,#418,.F.);
#537=ORIENTED_EDGE('',*,*,#419,.T.);
#538=ORIENTED_EDGE('',*,*,#420,.F.);
#539=ORIENTED_EDGE('',*,*,#418,.T.);
#540=ORIENTED_EDGE('',*,*,#421,.F.);
#541=ORIENTED_EDGE('',*,*,#422,.T.);
#542=ORIENTED_EDGE('',*,*,#423,.T.);
#543=ORIENTED_EDGE('',*,*,#424,.F.);
#544=ORIENTED_EDGE('',*,*,#425,.F.);
#545=ORIENTED_EDGE('',*,*,#426,.F.);
#546=ORIENTED_EDGE('',*,*,#427,.F.);
#547=ORIENTED_EDGE('',*,*,#423,.F.);
#548=ORIENTED_EDGE('',*,*,#428,.F.);
#549=ORIENTED_EDGE('',*,*,#429,.F.);
#550=ORIENTED_EDGE('',*,*,#430,.T.);
#551=ORIENTED_EDGE('',*,*,#431,.F.);
#552=ORIENTED_EDGE('',*,*,#432,.T.);
#553=ORIENTED_EDGE('',*,*,#433,.F.);
#554=ORIENTED_EDGE('',*,*,#434,.T.);
#555=ORIENTED_EDGE('',*,*,#435,.T.);
#556=ORIENTED_EDGE('',*,*,#436,.F.);
#557=ORIENTED_EDGE('',*,*,#437,.F.);
#558=ORIENTED_EDGE('',*,*,#438,.F.);
#559=ORIENTED_EDGE('',*,*,#439,.T.);
#560=ORIENTED_EDGE('',*,*,#440,.T.);
#561=ORIENTED_EDGE('',*,*,#419,.F.);
#562=ORIENTED_EDGE('',*,*,#417,.T.);
#563=ORIENTED_EDGE('',*,*,#441,.T.);
#564=ORIENTED_EDGE('',*,*,#442,.T.);
#565=ORIENTED_EDGE('',*,*,#443,.T.);
#566=ORIENTED_EDGE('',*,*,#444,.T.);
#567=ORIENTED_EDGE('',*,*,#445,.T.);
#568=ORIENTED_EDGE('',*,*,#446,.T.);
#569=ORIENTED_EDGE('',*,*,#447,.T.);
#570=ORIENTED_EDGE('',*,*,#448,.T.);
#571=ORIENTED_EDGE('',*,*,#421,.T.);
#572=ORIENTED_EDGE('',*,*,#449,.T.);
#573=ORIENTED_EDGE('',*,*,#450,.T.);
#574=ORIENTED_EDGE('',*,*,#451,.T.);
#575=ORIENTED_EDGE('',*,*,#452,.T.);
#576=ORIENTED_EDGE('',*,*,#453,.T.);
#577=ORIENTED_EDGE('',*,*,#454,.T.);
#578=ORIENTED_EDGE('',*,*,#455,.T.);
#579=ORIENTED_EDGE('',*,*,#456,.T.);
#580=ORIENTED_EDGE('',*,*,#457,.T.);
#581=ORIENTED_EDGE('',*,*,#458,.T.);
#582=ORIENTED_EDGE('',*,*,#459,.T.);
#583=ORIENTED_EDGE('',*,*,#460,.T.);
#584=ORIENTED_EDGE('',*,*,#416,.T.);
#585=ORIENTED_EDGE('',*,*,#461,.T.);
#586=ORIENTED_EDGE('',*,*,#438,.T.);
#587=ORIENTED_EDGE('',*,*,#462,.F.);
#588=ORIENTED_EDGE('',*,*,#441,.F.);
#589=ORIENTED_EDGE('',*,*,#463,.F.);
#590=ORIENTED_EDGE('',*,*,#428,.T.);
#591=ORIENTED_EDGE('',*,*,#422,.F.);
#592=ORIENTED_EDGE('',*,*,#448,.F.);
#593=ORIENTED_EDGE('',*,*,#463,.T.);
#594=ORIENTED_EDGE('',*,*,#447,.F.);
#595=ORIENTED_EDGE('',*,*,#464,.F.);
#596=ORIENTED_EDGE('',*,*,#465,.T.);
#597=ORIENTED_EDGE('',*,*,#429,.T.);
#598=ORIENTED_EDGE('',*,*,#466,.F.);
#599=ORIENTED_EDGE('',*,*,#467,.T.);
#600=ORIENTED_EDGE('',*,*,#468,.T.);
#601=ORIENTED_EDGE('',*,*,#467,.F.);
#602=ORIENTED_EDGE('',*,*,#468,.F.);
#603=ORIENTED_EDGE('',*,*,#469,.F.);
#604=ORIENTED_EDGE('',*,*,#470,.F.);
#605=ORIENTED_EDGE('',*,*,#471,.T.);
#606=ORIENTED_EDGE('',*,*,#472,.T.);
#607=ORIENTED_EDGE('',*,*,#471,.F.);
#608=ORIENTED_EDGE('',*,*,#472,.F.);
#609=ORIENTED_EDGE('',*,*,#473,.F.);
#610=ORIENTED_EDGE('',*,*,#474,.F.);
#611=ORIENTED_EDGE('',*,*,#475,.T.);
#612=ORIENTED_EDGE('',*,*,#476,.T.);
#613=ORIENTED_EDGE('',*,*,#475,.F.);
#614=ORIENTED_EDGE('',*,*,#476,.F.);
#615=ORIENTED_EDGE('',*,*,#477,.F.);
#616=ORIENTED_EDGE('',*,*,#478,.F.);
#617=ORIENTED_EDGE('',*,*,#479,.T.);
#618=ORIENTED_EDGE('',*,*,#480,.T.);
#619=ORIENTED_EDGE('',*,*,#479,.F.);
#620=ORIENTED_EDGE('',*,*,#480,.F.);
#621=ORIENTED_EDGE('',*,*,#481,.F.);
#622=ORIENTED_EDGE('',*,*,#482,.F.);
#623=ORIENTED_EDGE('',*,*,#430,.F.);
#624=ORIENTED_EDGE('',*,*,#483,.F.);
#625=ORIENTED_EDGE('',*,*,#484,.T.);
#626=ORIENTED_EDGE('',*,*,#481,.T.);
#627=ORIENTED_EDGE('',*,*,#484,.F.);
#628=ORIENTED_EDGE('',*,*,#485,.F.);
#629=ORIENTED_EDGE('',*,*,#432,.F.);
#630=ORIENTED_EDGE('',*,*,#486,.F.);
#631=ORIENTED_EDGE('',*,*,#487,.T.);
#632=ORIENTED_EDGE('',*,*,#473,.T.);
#633=ORIENTED_EDGE('',*,*,#487,.F.);
#634=ORIENTED_EDGE('',*,*,#439,.F.);
#635=ORIENTED_EDGE('',*,*,#488,.F.);
#636=ORIENTED_EDGE('',*,*,#440,.F.);
#637=ORIENTED_EDGE('',*,*,#489,.T.);
#638=ORIENTED_EDGE('',*,*,#477,.T.);
#639=ORIENTED_EDGE('',*,*,#489,.F.);
#640=ORIENTED_EDGE('',*,*,#434,.F.);
#641=ORIENTED_EDGE('',*,*,#490,.F.);
#642=ORIENTED_EDGE('',*,*,#435,.F.);
#643=ORIENTED_EDGE('',*,*,#491,.T.);
#644=ORIENTED_EDGE('',*,*,#469,.T.);
#645=ORIENTED_EDGE('',*,*,#491,.F.);
#646=ORIENTED_EDGE('',*,*,#465,.F.);
#647=ORIENTED_EDGE('',*,*,#492,.F.);
#648=ORIENTED_EDGE('',*,*,#482,.T.);
#649=ORIENTED_EDGE('',*,*,#483,.T.);
#650=ORIENTED_EDGE('',*,*,#493,.F.);
#651=ORIENTED_EDGE('',*,*,#485,.T.);
#652=ORIENTED_EDGE('',*,*,#486,.T.);
#653=ORIENTED_EDGE('',*,*,#494,.F.);
#654=ORIENTED_EDGE('',*,*,#495,.F.);
#655=ORIENTED_EDGE('',*,*,#420,.T.);
#656=ORIENTED_EDGE('',*,*,#488,.T.);
#657=ORIENTED_EDGE('',*,*,#461,.F.);
#658=ORIENTED_EDGE('',*,*,#496,.F.);
#659=ORIENTED_EDGE('',*,*,#497,.F.);
#660=ORIENTED_EDGE('',*,*,#490,.T.);
#661=ORIENTED_EDGE('',*,*,#495,.T.);
#662=ORIENTED_EDGE('',*,*,#498,.F.);
#663=ORIENTED_EDGE('',*,*,#445,.F.);
#664=ORIENTED_EDGE('',*,*,#499,.F.);
#665=ORIENTED_EDGE('',*,*,#436,.T.);
#666=ORIENTED_EDGE('',*,*,#497,.T.);
#667=ORIENTED_EDGE('',*,*,#500,.F.);
#668=ORIENTED_EDGE('',*,*,#443,.F.);
#669=ORIENTED_EDGE('',*,*,#501,.F.);
#670=ORIENTED_EDGE('',*,*,#462,.T.);
#671=ORIENTED_EDGE('',*,*,#437,.T.);
#672=ORIENTED_EDGE('',*,*,#501,.T.);
#673=ORIENTED_EDGE('',*,*,#442,.F.);
#674=ORIENTED_EDGE('',*,*,#502,.F.);
#675=ORIENTED_EDGE('',*,*,#503,.F.);
#676=ORIENTED_EDGE('',*,*,#504,.T.);
#677=ORIENTED_EDGE('',*,*,#449,.F.);
#678=ORIENTED_EDGE('',*,*,#450,.F.);
#679=ORIENTED_EDGE('',*,*,#504,.F.);
#680=ORIENTED_EDGE('',*,*,#505,.F.);
#681=ORIENTED_EDGE('',*,*,#506,.F.);
#682=ORIENTED_EDGE('',*,*,#507,.F.);
#683=ORIENTED_EDGE('',*,*,#456,.F.);
#684=ORIENTED_EDGE('',*,*,#508,.F.);
#685=ORIENTED_EDGE('',*,*,#509,.F.);
#686=ORIENTED_EDGE('',*,*,#506,.T.);
#687=ORIENTED_EDGE('',*,*,#510,.F.);
#688=ORIENTED_EDGE('',*,*,#511,.F.);
#689=ORIENTED_EDGE('',*,*,#451,.F.);
#690=ORIENTED_EDGE('',*,*,#507,.T.);
#691=ORIENTED_EDGE('',*,*,#512,.F.);
#692=ORIENTED_EDGE('',*,*,#513,.F.);
#693=ORIENTED_EDGE('',*,*,#457,.F.);
#694=ORIENTED_EDGE('',*,*,#514,.F.);
#695=ORIENTED_EDGE('',*,*,#453,.F.);
#696=ORIENTED_EDGE('',*,*,#515,.T.);
#697=ORIENTED_EDGE('',*,*,#516,.F.);
#698=ORIENTED_EDGE('',*,*,#514,.T.);
#699=ORIENTED_EDGE('',*,*,#517,.F.);
#700=ORIENTED_EDGE('',*,*,#518,.F.);
#701=ORIENTED_EDGE('',*,*,#454,.F.);
#702=ORIENTED_EDGE('',*,*,#502,.T.);
#703=ORIENTED_EDGE('',*,*,#460,.F.);
#704=ORIENTED_EDGE('',*,*,#519,.T.);
#705=ORIENTED_EDGE('',*,*,#520,.F.);
#706=ORIENTED_EDGE('',*,*,#521,.F.);
#707=ORIENTED_EDGE('',*,*,#519,.F.);
#708=ORIENTED_EDGE('',*,*,#459,.F.);
#709=ORIENTED_EDGE('',*,*,#522,.T.);
#710=ORIENTED_EDGE('',*,*,#523,.F.);
#711=ORIENTED_EDGE('',*,*,#522,.F.);
#712=ORIENTED_EDGE('',*,*,#458,.F.);
#713=ORIENTED_EDGE('',*,*,#513,.T.);
#714=ORIENTED_EDGE('',*,*,#508,.T.);
#715=ORIENTED_EDGE('',*,*,#455,.F.);
#716=ORIENTED_EDGE('',*,*,#518,.T.);
#717=ORIENTED_EDGE('',*,*,#524,.F.);
#718=ORIENTED_EDGE('',*,*,#525,.F.);
#719=ORIENTED_EDGE('',*,*,#515,.F.);
#720=ORIENTED_EDGE('',*,*,#452,.F.);
#721=ORIENTED_EDGE('',*,*,#511,.T.);
#722=ORIENTED_EDGE('',*,*,#425,.T.);
#723=ORIENTED_EDGE('',*,*,#526,.T.);
#724=ORIENTED_EDGE('',*,*,#527,.F.);
#725=ORIENTED_EDGE('',*,*,#528,.F.);
#726=ORIENTED_EDGE('',*,*,#426,.T.);
#727=ORIENTED_EDGE('',*,*,#528,.T.);
#728=ORIENTED_EDGE('',*,*,#529,.F.);
#729=ORIENTED_EDGE('',*,*,#530,.F.);
#730=ORIENTED_EDGE('',*,*,#427,.T.);
#731=ORIENTED_EDGE('',*,*,#530,.T.);
#732=ORIENTED_EDGE('',*,*,#531,.F.);
#733=ORIENTED_EDGE('',*,*,#532,.F.);
#734=ORIENTED_EDGE('',*,*,#424,.T.);
#735=ORIENTED_EDGE('',*,*,#532,.T.);
#736=ORIENTED_EDGE('',*,*,#533,.F.);
#737=ORIENTED_EDGE('',*,*,#526,.F.);
#738=ORIENTED_EDGE('',*,*,#533,.T.);
#739=ORIENTED_EDGE('',*,*,#531,.T.);
#740=ORIENTED_EDGE('',*,*,#529,.T.);
#741=ORIENTED_EDGE('',*,*,#527,.T.);
#742=ORIENTED_EDGE('',*,*,#503,.T.);
#743=ORIENTED_EDGE('',*,*,#520,.T.);
#744=ORIENTED_EDGE('',*,*,#521,.T.);
#745=ORIENTED_EDGE('',*,*,#523,.T.);
#746=ORIENTED_EDGE('',*,*,#512,.T.);
#747=ORIENTED_EDGE('',*,*,#509,.T.);
#748=ORIENTED_EDGE('',*,*,#524,.T.);
#749=ORIENTED_EDGE('',*,*,#517,.T.);
#750=ORIENTED_EDGE('',*,*,#516,.T.);
#751=ORIENTED_EDGE('',*,*,#525,.T.);
#752=ORIENTED_EDGE('',*,*,#510,.T.);
#753=ORIENTED_EDGE('',*,*,#505,.T.);
#754=ORIENTED_EDGE('',*,*,#478,.T.);
#755=ORIENTED_EDGE('',*,*,#474,.T.);
#756=ORIENTED_EDGE('',*,*,#470,.T.);
#757=ORIENTED_EDGE('',*,*,#466,.T.);
#758=ORIENTED_EDGE('',*,*,#464,.T.);
#759=ORIENTED_EDGE('',*,*,#446,.F.);
#760=ORIENTED_EDGE('',*,*,#498,.T.);
#761=ORIENTED_EDGE('',*,*,#494,.T.);
#762=ORIENTED_EDGE('',*,*,#431,.T.);
#763=ORIENTED_EDGE('',*,*,#492,.T.);
#764=ORIENTED_EDGE('',*,*,#499,.T.);
#765=ORIENTED_EDGE('',*,*,#444,.F.);
#766=ORIENTED_EDGE('',*,*,#500,.T.);
#767=ORIENTED_EDGE('',*,*,#496,.T.);
#768=ORIENTED_EDGE('',*,*,#433,.T.);
#769=ORIENTED_EDGE('',*,*,#493,.T.);
#770=PLANE('',#850);
#771=PLANE('',#851);
#772=PLANE('',#852);
#773=PLANE('',#862);
#774=PLANE('',#869);
#775=PLANE('',#875);
#776=PLANE('',#880);
#777=PLANE('',#885);
#778=PLANE('',#890);
#779=PLANE('',#902);
#780=PLANE('',#903);
#781=PLANE('',#905);
#782=PLANE('',#906);
#783=PLANE('',#910);
#784=PLANE('',#911);
#785=PLANE('',#912);
#786=PLANE('',#913);
#787=PLANE('',#914);
#788=PLANE('',#915);
#789=PLANE('',#916);
#790=PLANE('',#917);
#791=PLANE('',#918);
#792=PLANE('',#919);
#793=PLANE('',#920);
#794=PLANE('',#921);
#795=PLANE('',#922);
#796=PLANE('',#923);
#797=PLANE('',#924);
#798=PLANE('',#925);
#799=PLANE('',#926);
#800=PLANE('',#927);
#801=PLANE('',#928);
#802=PLANE('',#929);
#803=ADVANCED_FACE('',(#73),#770,.F.);
#804=ADVANCED_FACE('',(#74),#771,.T.);
#805=ADVANCED_FACE('',(#75,#27),#772,.F.);
#806=ADVANCED_FACE('',(#76,#28),#773,.T.);
#807=ADVANCED_FACE('',(#77),#15,.F.);
#808=ADVANCED_FACE('',(#78),#774,.F.);
#809=ADVANCED_FACE('',(#79),#16,.F.);
#810=ADVANCED_FACE('',(#80),#17,.F.);
#811=ADVANCED_FACE('',(#81,#29),#775,.T.);
#812=ADVANCED_FACE('',(#82),#18,.F.);
#813=ADVANCED_FACE('',(#83,#30),#776,.T.);
#814=ADVANCED_FACE('',(#84),#19,.F.);
#815=ADVANCED_FACE('',(#85,#31),#777,.T.);
#816=ADVANCED_FACE('',(#86),#20,.F.);
#817=ADVANCED_FACE('',(#87,#32),#778,.T.);
#818=ADVANCED_FACE('',(#88),#21,.F.);
#819=ADVANCED_FACE('',(#89),#22,.F.);
#820=ADVANCED_FACE('',(#90),#23,.F.);
#821=ADVANCED_FACE('',(#91),#24,.F.);
#822=ADVANCED_FACE('',(#92),#779,.T.);
#823=ADVANCED_FACE('',(#93),#780,.T.);
#824=ADVANCED_FACE('',(#94),#781,.T.);
#825=ADVANCED_FACE('',(#95),#782,.T.);
#826=ADVANCED_FACE('',(#96),#25,.F.);
#827=ADVANCED_FACE('',(#97),#26,.F.);
#828=ADVANCED_FACE('',(#98),#783,.T.);
#829=ADVANCED_FACE('',(#99),#784,.F.);
#830=ADVANCED_FACE('',(#100),#785,.F.);
#831=ADVANCED_FACE('',(#101),#786,.F.);
#832=ADVANCED_FACE('',(#102),#787,.F.);
#833=ADVANCED_FACE('',(#103),#788,.F.);
#834=ADVANCED_FACE('',(#104),#789,.F.);
#835=ADVANCED_FACE('',(#105),#790,.F.);
#836=ADVANCED_FACE('',(#106),#791,.F.);
#837=ADVANCED_FACE('',(#107),#792,.F.);
#838=ADVANCED_FACE('',(#108),#793,.F.);
#839=ADVANCED_FACE('',(#109),#794,.F.);
#840=ADVANCED_FACE('',(#110),#795,.F.);
#841=ADVANCED_FACE('',(#111),#796,.T.);
#842=ADVANCED_FACE('',(#112),#797,.T.);
#843=ADVANCED_FACE('',(#113),#798,.T.);
#844=ADVANCED_FACE('',(#114),#799,.T.);
#845=ADVANCED_FACE('',(#115,#33,#34,#35,#36,#37),#800,.T.);
#846=ADVANCED_FACE('',(#116),#801,.T.);
#847=ADVANCED_FACE('',(#117),#802,.T.);
#848=CLOSED_SHELL('',(#803,#804,#805,#806,#807,#808,#809,#810,#811,#812,
#813,#814,#815,#816,#817,#818,#819,#820,#821,#822,#823,#824,#825,#826,#827,
#828,#829,#830,#831,#832,#833,#834,#835,#836,#837,#838,#839,#840,#841,#842,
#843,#844,#845,#846,#847));
#849=AXIS2_PLACEMENT_3D('',#1175,#930,#931);
#850=AXIS2_PLACEMENT_3D('',#1176,#932,#933);
#851=AXIS2_PLACEMENT_3D('',#1187,#939,#940);
#852=AXIS2_PLACEMENT_3D('',#1193,#944,#945);
#853=AXIS2_PLACEMENT_3D('',#1205,#951,#952);
#854=AXIS2_PLACEMENT_3D('',#1207,#953,#954);
#855=AXIS2_PLACEMENT_3D('',#1211,#956,#957);
#856=AXIS2_PLACEMENT_3D('',#1215,#959,#960);
#857=AXIS2_PLACEMENT_3D('',#1217,#961,#962);
#858=AXIS2_PLACEMENT_3D('',#1219,#963,#964);
#859=AXIS2_PLACEMENT_3D('',#1223,#966,#967);
#860=AXIS2_PLACEMENT_3D('',#1225,#968,#969);
#861=AXIS2_PLACEMENT_3D('',#1226,#970,#971);
#862=AXIS2_PLACEMENT_3D('',#1227,#972,#973);
#863=AXIS2_PLACEMENT_3D('',#1229,#974,#975);
#864=AXIS2_PLACEMENT_3D('',#1233,#977,#978);
#865=AXIS2_PLACEMENT_3D('',#1237,#980,#981);
#866=AXIS2_PLACEMENT_3D('',#1241,#983,#984);
#867=AXIS2_PLACEMENT_3D('',#1267,#998,#999);
#868=AXIS2_PLACEMENT_3D('',#1268,#1000,#1001);
#869=AXIS2_PLACEMENT_3D('',#1270,#1003,#1004);
#870=AXIS2_PLACEMENT_3D('',#1272,#1006,#1007);
#871=AXIS2_PLACEMENT_3D('',#1275,#1009,#1010);
#872=AXIS2_PLACEMENT_3D('',#1276,#1011,#1012);
#873=AXIS2_PLACEMENT_3D('',#1278,#1013,#1014);
#874=AXIS2_PLACEMENT_3D('',#1281,#1016,#1017);
#875=AXIS2_PLACEMENT_3D('',#1282,#1018,#1019);
#876=AXIS2_PLACEMENT_3D('',#1284,#1020,#1021);
#877=AXIS2_PLACEMENT_3D('',#1285,#1022,#1023);
#878=AXIS2_PLACEMENT_3D('',#1287,#1024,#1025);
#879=AXIS2_PLACEMENT_3D('',#1290,#1027,#1028);
#880=AXIS2_PLACEMENT_3D('',#1291,#1029,#1030);
#881=AXIS2_PLACEMENT_3D('',#1293,#1031,#1032);
#882=AXIS2_PLACEMENT_3D('',#1294,#1033,#1034);
#883=AXIS2_PLACEMENT_3D('',#1296,#1035,#1036);
#884=AXIS2_PLACEMENT_3D('',#1299,#1038,#1039);
#885=AXIS2_PLACEMENT_3D('',#1300,#1040,#1041);
#886=AXIS2_PLACEMENT_3D('',#1302,#1042,#1043);
#887=AXIS2_PLACEMENT_3D('',#1303,#1044,#1045);
#888=AXIS2_PLACEMENT_3D('',#1305,#1046,#1047);
#889=AXIS2_PLACEMENT_3D('',#1308,#1049,#1050);
#890=AXIS2_PLACEMENT_3D('',#1309,#1051,#1052);
#891=AXIS2_PLACEMENT_3D('',#1311,#1053,#1054);
#892=AXIS2_PLACEMENT_3D('',#1312,#1055,#1056);
#893=AXIS2_PLACEMENT_3D('',#1314,#1057,#1058);
#894=AXIS2_PLACEMENT_3D('',#1315,#1059,#1060);
#895=AXIS2_PLACEMENT_3D('',#1317,#1062,#1063);
#896=AXIS2_PLACEMENT_3D('',#1319,#1064,#1065);
#897=AXIS2_PLACEMENT_3D('',#1320,#1066,#1067);
#898=AXIS2_PLACEMENT_3D('',#1322,#1069,#1070);
#899=AXIS2_PLACEMENT_3D('',#1323,#1071,#1072);
#900=AXIS2_PLACEMENT_3D('',#1325,#1074,#1075);
#901=AXIS2_PLACEMENT_3D('',#1326,#1076,#1077);
#902=AXIS2_PLACEMENT_3D('',#1328,#1079,#1080);
#903=AXIS2_PLACEMENT_3D('',#1330,#1082,#1083);
#904=AXIS2_PLACEMENT_3D('',#1335,#1086,#1087);
#905=AXIS2_PLACEMENT_3D('',#1336,#1088,#1089);
#906=AXIS2_PLACEMENT_3D('',#1337,#1090,#1091);
#907=AXIS2_PLACEMENT_3D('',#1340,#1093,#1094);
#908=AXIS2_PLACEMENT_3D('',#1341,#1095,#1096);
#909=AXIS2_PLACEMENT_3D('',#1344,#1099,#1100);
#910=AXIS2_PLACEMENT_3D('',#1347,#1103,#1104);
#911=AXIS2_PLACEMENT_3D('',#1348,#1105,#1106);
#912=AXIS2_PLACEMENT_3D('',#1354,#1110,#1111);
#913=AXIS2_PLACEMENT_3D('',#1358,#1114,#1115);
#914=AXIS2_PLACEMENT_3D('',#1364,#1119,#1120);
#915=AXIS2_PLACEMENT_3D('',#1368,#1123,#1124);
#916=AXIS2_PLACEMENT_3D('',#1372,#1127,#1128);
#917=AXIS2_PLACEMENT_3D('',#1378,#1132,#1133);
#918=AXIS2_PLACEMENT_3D('',#1382,#1136,#1137);
#919=AXIS2_PLACEMENT_3D('',#1386,#1140,#1141);
#920=AXIS2_PLACEMENT_3D('',#1390,#1144,#1145);
#921=AXIS2_PLACEMENT_3D('',#1392,#1147,#1148);
#922=AXIS2_PLACEMENT_3D('',#1394,#1150,#1151);
#923=AXIS2_PLACEMENT_3D('',#1396,#1153,#1154);
#924=AXIS2_PLACEMENT_3D('',#1402,#1158,#1159);
#925=AXIS2_PLACEMENT_3D('',#1406,#1162,#1163);
#926=AXIS2_PLACEMENT_3D('',#1410,#1166,#1167);
#927=AXIS2_PLACEMENT_3D('',#1412,#1169,#1170);
#928=AXIS2_PLACEMENT_3D('',#1413,#1171,#1172);
#929=AXIS2_PLACEMENT_3D('',#1414,#1173,#1174);
#930=DIRECTION('axis',(0.,0.,1.));
#931=DIRECTION('refdir',(1.,0.,0.));
#932=DIRECTION('center_axis',(-1.,0.,0.));
#933=DIRECTION('ref_axis',(0.,-1.,0.));
#934=DIRECTION('',(0.,0.,1.));
#935=DIRECTION('',(0.,-1.,0.));
#936=DIRECTION('',(0.,0.,-1.));
#937=DIRECTION('',(0.,-1.,0.));
#938=DIRECTION('',(0.,1.,0.));
#939=DIRECTION('center_axis',(0.,1.,0.));
#940=DIRECTION('ref_axis',(1.,0.,0.));
#941=DIRECTION('',(1.,0.,0.));
#942=DIRECTION('',(0.,0.,1.));
#943=DIRECTION('',(1.,0.,0.));
#944=DIRECTION('center_axis',(0.,0.,1.));
#945=DIRECTION('ref_axis',(1.,0.,0.));
#946=DIRECTION('',(0.,1.,0.));
#947=DIRECTION('',(1.,0.,0.));
#948=DIRECTION('',(0.,-1.,0.));
#949=DIRECTION('',(-1.,0.,0.));
#950=DIRECTION('',(0.,1.,0.));
#951=DIRECTION('center_axis',(0.,0.,1.));
#952=DIRECTION('ref_axis',(-1.,0.,0.));
#953=DIRECTION('center_axis',(0.,0.,1.));
#954=DIRECTION('ref_axis',(-1.,0.,0.));
#955=DIRECTION('',(0.,1.,0.));
#956=DIRECTION('center_axis',(0.,0.,1.));
#957=DIRECTION('ref_axis',(-1.,0.,0.));
#958=DIRECTION('',(-1.,0.,0.));
#959=DIRECTION('center_axis',(0.,0.,1.));
#960=DIRECTION('ref_axis',(-1.,0.,0.));
#961=DIRECTION('center_axis',(0.,0.,1.));
#962=DIRECTION('ref_axis',(-1.,0.,0.));
#963=DIRECTION('center_axis',(0.,0.,1.));
#964=DIRECTION('ref_axis',(-1.,0.,0.));
#965=DIRECTION('',(0.,-1.,0.));
#966=DIRECTION('center_axis',(0.,0.,1.));
#967=DIRECTION('ref_axis',(-1.,0.,0.));
#968=DIRECTION('center_axis',(0.,0.,1.));
#969=DIRECTION('ref_axis',(-1.,0.,0.));
#970=DIRECTION('center_axis',(0.,0.,1.));
#971=DIRECTION('ref_axis',(-1.,0.,0.));
#972=DIRECTION('center_axis',(0.,0.,-1.));
#973=DIRECTION('ref_axis',(-1.,0.,0.));
#974=DIRECTION('center_axis',(0.,0.,1.));
#975=DIRECTION('ref_axis',(-1.,0.,0.));
#976=DIRECTION('',(0.,-1.,0.));
#977=DIRECTION('center_axis',(0.,0.,1.));
#978=DIRECTION('ref_axis',(-1.,0.,0.));
#979=DIRECTION('',(-1.,0.,0.));
#980=DIRECTION('center_axis',(0.,0.,1.));
#981=DIRECTION('ref_axis',(-1.,0.,0.));
#982=DIRECTION('',(0.,1.,0.));
#983=DIRECTION('center_axis',(0.,0.,1.));
#984=DIRECTION('ref_axis',(-1.,0.,0.));
#985=DIRECTION('',(0.,1.,0.));
#986=DIRECTION('',(-1.,0.,0.));
#987=DIRECTION('',(0.,-1.,0.));
#988=DIRECTION('',(-1.,0.,0.));
#989=DIRECTION('',(0.,-1.,0.));
#990=DIRECTION('',(1.,0.,0.));
#991=DIRECTION('',(0.,1.,0.));
#992=DIRECTION('',(-1.,0.,0.));
#993=DIRECTION('',(0.,1.,0.));
#994=DIRECTION('',(1.,0.,0.));
#995=DIRECTION('',(0.,1.,0.));
#996=DIRECTION('',(-1.,0.,0.));
#997=DIRECTION('',(0.,-1.,0.));
#998=DIRECTION('center_axis',(0.,0.,-1.));
#999=DIRECTION('ref_axis',(-1.,0.,0.));
#1000=DIRECTION('center_axis',(0.,0.,1.));
#1001=DIRECTION('ref_axis',(-1.,0.,0.));
#1002=DIRECTION('',(0.,0.,1.));
#1003=DIRECTION('center_axis',(1.,0.,0.));
#1004=DIRECTION('ref_axis',(0.,1.,0.));
#1005=DIRECTION('',(0.,0.,-1.));
#1006=DIRECTION('center_axis',(0.,0.,-1.));
#1007=DIRECTION('ref_axis',(0.733491375321829,-0.679698758516221,0.));
#1008=DIRECTION('',(0.,0.,-1.));
#1009=DIRECTION('center_axis',(0.,0.,1.));
#1010=DIRECTION('ref_axis',(-1.,0.,0.));
#1011=DIRECTION('center_axis',(0.,0.,-1.));
#1012=DIRECTION('ref_axis',(-1.,0.,0.));
#1013=DIRECTION('center_axis',(0.,0.,-1.));
#1014=DIRECTION('ref_axis',(-1.,0.,0.));
#1015=DIRECTION('',(0.,0.,-1.));
#1016=DIRECTION('center_axis',(0.,0.,-1.));
#1017=DIRECTION('ref_axis',(-1.,0.,0.));
#1018=DIRECTION('center_axis',(0.,0.,1.));
#1019=DIRECTION('ref_axis',(-1.,0.,0.));
#1020=DIRECTION('center_axis',(0.,0.,1.));
#1021=DIRECTION('ref_axis',(-1.,0.,0.));
#1022=DIRECTION('center_axis',(0.,0.,-1.));
#1023=DIRECTION('ref_axis',(-1.,0.,0.));
#1024=DIRECTION('center_axis',(0.,0.,-1.));
#1025=DIRECTION('ref_axis',(-1.,0.,0.));
#1026=DIRECTION('',(0.,0.,-1.));
#1027=DIRECTION('center_axis',(0.,0.,-1.));
#1028=DIRECTION('ref_axis',(-1.,0.,0.));
#1029=DIRECTION('center_axis',(0.,0.,1.));
#1030=DIRECTION('ref_axis',(-1.,0.,0.));
#1031=DIRECTION('center_axis',(0.,0.,1.));
#1032=DIRECTION('ref_axis',(-1.,0.,0.));
#1033=DIRECTION('center_axis',(0.,0.,-1.));
#1034=DIRECTION('ref_axis',(-1.,0.,0.));
#1035=DIRECTION('center_axis',(0.,0.,-1.));
#1036=DIRECTION('ref_axis',(-1.,0.,0.));
#1037=DIRECTION('',(0.,0.,-1.));
#1038=DIRECTION('center_axis',(0.,0.,-1.));
#1039=DIRECTION('ref_axis',(-1.,0.,0.));
#1040=DIRECTION('center_axis',(0.,0.,1.));
#1041=DIRECTION('ref_axis',(-1.,0.,0.));
#1042=DIRECTION('center_axis',(0.,0.,1.));
#1043=DIRECTION('ref_axis',(-1.,0.,0.));
#1044=DIRECTION('center_axis',(0.,0.,-1.));
#1045=DIRECTION('ref_axis',(-1.,0.,0.));
#1046=DIRECTION('center_axis',(0.,0.,-1.));
#1047=DIRECTION('ref_axis',(-1.,0.,0.));
#1048=DIRECTION('',(0.,0.,-1.));
#1049=DIRECTION('center_axis',(0.,0.,-1.));
#1050=DIRECTION('ref_axis',(-1.,0.,0.));
#1051=DIRECTION('center_axis',(0.,0.,1.));
#1052=DIRECTION('ref_axis',(-1.,0.,0.));
#1053=DIRECTION('center_axis',(0.,0.,1.));
#1054=DIRECTION('ref_axis',(-1.,0.,0.));
#1055=DIRECTION('center_axis',(0.,0.,1.));
#1056=DIRECTION('ref_axis',(-1.,0.,0.));
#1057=DIRECTION('center_axis',(0.,0.,1.));
#1058=DIRECTION('ref_axis',(-1.,0.,0.));
#1059=DIRECTION('center_axis',(0.,0.,1.));
#1060=DIRECTION('ref_axis',(-1.,0.,0.));
#1061=DIRECTION('',(0.,0.,1.));
#1062=DIRECTION('center_axis',(0.,0.,1.));
#1063=DIRECTION('ref_axis',(-1.,0.,0.));
#1064=DIRECTION('center_axis',(0.,0.,1.));
#1065=DIRECTION('ref_axis',(-1.,0.,0.));
#1066=DIRECTION('center_axis',(0.,0.,1.));
#1067=DIRECTION('ref_axis',(-1.,0.,0.));
#1068=DIRECTION('',(0.,0.,1.));
#1069=DIRECTION('center_axis',(0.,0.,1.));
#1070=DIRECTION('ref_axis',(-1.,0.,0.));
#1071=DIRECTION('center_axis',(0.,0.,1.));
#1072=DIRECTION('ref_axis',(-1.,0.,0.));
#1073=DIRECTION('',(0.,0.,1.));
#1074=DIRECTION('center_axis',(0.,0.,1.));
#1075=DIRECTION('ref_axis',(-1.,0.,0.));
#1076=DIRECTION('center_axis',(0.,0.,1.));
#1077=DIRECTION('ref_axis',(-1.,0.,0.));
#1078=DIRECTION('',(0.,0.,1.));
#1079=DIRECTION('center_axis',(0.,0.,1.));
#1080=DIRECTION('ref_axis',(-1.,0.,0.));
#1081=DIRECTION('',(0.,1.,0.));
#1082=DIRECTION('center_axis',(0.,0.,1.));
#1083=DIRECTION('ref_axis',(-1.,0.,0.));
#1084=DIRECTION('',(-1.,0.,0.));
#1085=DIRECTION('',(0.,1.,0.));
#1086=DIRECTION('center_axis',(0.,0.,1.));
#1087=DIRECTION('ref_axis',(-1.,0.,0.));
#1088=DIRECTION('center_axis',(0.,0.,1.));
#1089=DIRECTION('ref_axis',(-1.,0.,0.));
#1090=DIRECTION('center_axis',(0.,0.,1.));
#1091=DIRECTION('ref_axis',(-1.,0.,0.));
#1092=DIRECTION('',(-1.,0.,0.));
#1093=DIRECTION('center_axis',(0.,0.,1.));
#1094=DIRECTION('ref_axis',(-1.,0.,0.));
#1095=DIRECTION('center_axis',(0.,0.,-1.));
#1096=DIRECTION('ref_axis',(0.707104284023044,0.707109278341232,0.));
#1097=DIRECTION('',(0.,0.,1.));
#1098=DIRECTION('',(0.,0.,-1.));
#1099=DIRECTION('center_axis',(0.,0.,-1.));
#1100=DIRECTION('ref_axis',(-1.,0.,0.));
#1101=DIRECTION('',(0.,0.,1.));
#1102=DIRECTION('',(0.,0.,-1.));
#1103=DIRECTION('center_axis',(1.,0.,0.));
#1104=DIRECTION('ref_axis',(0.,-1.,0.));
#1105=DIRECTION('center_axis',(0.,1.,0.));
#1106=DIRECTION('ref_axis',(1.,0.,0.));
#1107=DIRECTION('',(0.,0.,-1.));
#1108=DIRECTION('',(1.,0.,0.));
#1109=DIRECTION('',(0.,0.,-1.));
#1110=DIRECTION('center_axis',(-1.,0.,0.));
#1111=DIRECTION('ref_axis',(0.,1.,0.));
#1112=DIRECTION('',(0.,1.,0.));
#1113=DIRECTION('',(0.,0.,1.));
#1114=DIRECTION('center_axis',(1.,0.,0.));
#1115=DIRECTION('ref_axis',(0.,-1.,0.));
#1116=DIRECTION('',(0.,0.,1.));
#1117=DIRECTION('',(0.,0.,-1.));
#1118=DIRECTION('',(0.,-1.,0.));
#1119=DIRECTION('center_axis',(0.,1.,0.));
#1120=DIRECTION('ref_axis',(-1.,0.,0.));
#1121=DIRECTION('',(1.,0.,0.));
#1122=DIRECTION('',(0.,0.,1.));
#1123=DIRECTION('center_axis',(0.,-1.,0.));
#1124=DIRECTION('ref_axis',(1.,0.,0.));
#1125=DIRECTION('',(-1.,0.,0.));
#1126=DIRECTION('',(0.,0.,1.));
#1127=DIRECTION('center_axis',(0.,-1.,0.));
#1128=DIRECTION('ref_axis',(1.,0.,0.));
#1129=DIRECTION('',(0.,0.,1.));
#1130=DIRECTION('',(0.,0.,1.));
#1131=DIRECTION('',(-1.,0.,0.));
#1132=DIRECTION('center_axis',(1.,0.,0.));
#1133=DIRECTION('ref_axis',(0.,1.,0.));
#1134=DIRECTION('',(0.,-1.,0.));
#1135=DIRECTION('',(0.,0.,1.));
#1136=DIRECTION('center_axis',(-1.,0.,0.));
#1137=DIRECTION('ref_axis',(0.,-1.,0.));
#1138=DIRECTION('',(0.,0.,1.));
#1139=DIRECTION('',(0.,1.,0.));
#1140=DIRECTION('center_axis',(0.,1.,0.));
#1141=DIRECTION('ref_axis',(-1.,0.,0.));
#1142=DIRECTION('',(1.,0.,0.));
#1143=DIRECTION('',(0.,0.,1.));
#1144=DIRECTION('center_axis',(1.,0.,0.));
#1145=DIRECTION('ref_axis',(0.,1.,0.));
#1146=DIRECTION('',(0.,-1.,0.));
#1147=DIRECTION('center_axis',(0.,1.,0.));
#1148=DIRECTION('ref_axis',(-1.,0.,0.));
#1149=DIRECTION('',(1.,0.,0.));
#1150=DIRECTION('center_axis',(-1.,0.,0.));
#1151=DIRECTION('ref_axis',(0.,-1.,0.));
#1152=DIRECTION('',(0.,1.,0.));
#1153=DIRECTION('center_axis',(0.,-1.,0.));
#1154=DIRECTION('ref_axis',(1.,0.,0.));
#1155=DIRECTION('',(0.,0.,1.));
#1156=DIRECTION('',(1.,0.,0.));
#1157=DIRECTION('',(0.,0.,1.));
#1158=DIRECTION('center_axis',(-1.,0.,0.));
#1159=DIRECTION('ref_axis',(0.,-1.,0.));
#1160=DIRECTION('',(0.,-1.,0.));
#1161=DIRECTION('',(0.,0.,1.));
#1162=DIRECTION('center_axis',(0.,1.,0.));
#1163=DIRECTION('ref_axis',(-1.,0.,0.));
#1164=DIRECTION('',(-1.,0.,0.));
#1165=DIRECTION('',(0.,0.,1.));
#1166=DIRECTION('center_axis',(1.,0.,0.));
#1167=DIRECTION('ref_axis',(0.,1.,0.));
#1168=DIRECTION('',(0.,1.,0.));
#1169=DIRECTION('center_axis',(0.,0.,1.));
#1170=DIRECTION('ref_axis',(1.,0.,0.));
#1171=DIRECTION('center_axis',(-1.,0.,0.));
#1172=DIRECTION('ref_axis',(0.,1.,0.));
#1173=DIRECTION('center_axis',(0.,-1.,0.));
#1174=DIRECTION('ref_axis',(-1.,0.,0.));
#1175=CARTESIAN_POINT('',(0.,0.,0.));
#1176=CARTESIAN_POINT('Origin',(190.899995733052,-55.3999987617135,11.));
#1177=CARTESIAN_POINT('',(190.899995733052,-55.4466228959272,11.));
#1178=CARTESIAN_POINT('',(190.899995733052,-55.4466228959272,12.));
#1179=CARTESIAN_POINT('',(190.899995733052,-55.4466228959272,11.));
#1180=CARTESIAN_POINT('',(190.899995733052,-55.3999987617135,11.));
#1181=CARTESIAN_POINT('',(190.899995733052,-72.8249993808568,11.));
#1182=CARTESIAN_POINT('',(190.899995733052,-55.3999987617135,12.));
#1183=CARTESIAN_POINT('',(190.899995733052,-55.4,11.5));
#1184=CARTESIAN_POINT('',(190.899995733052,-55.4406014595518,12.));
#1185=CARTESIAN_POINT('',(190.899995733052,-56.9058649405915,12.));
#1186=CARTESIAN_POINT('',(190.899995733052,-56.4856274879215,12.));
#1187=CARTESIAN_POINT('Origin',(93.4,-55.4,12.));
#1188=CARTESIAN_POINT('',(95.7999978587031,-55.3999987617135,11.));
#1189=CARTESIAN_POINT('',(93.4,-55.4,11.));
#1190=CARTESIAN_POINT('',(95.7999978587031,-55.3999987617135,12.));
#1191=CARTESIAN_POINT('',(95.7999978587031,-55.4,11.5));
#1192=CARTESIAN_POINT('',(93.4,-55.4,12.));
#1193=CARTESIAN_POINT('Origin',(143.25,-90.25,12.));
#1194=CARTESIAN_POINT('',(195.5,-127.5,12.));
#1195=CARTESIAN_POINT('',(195.5,-53.,12.));
#1196=CARTESIAN_POINT('',(195.5,-53.,12.));
#1197=CARTESIAN_POINT('',(91.,-127.5,12.));
#1198=CARTESIAN_POINT('',(195.5,-127.5,12.));
#1199=CARTESIAN_POINT('',(91.,-53.,12.));
#1200=CARTESIAN_POINT('',(91.,-127.5,12.));
#1201=CARTESIAN_POINT('',(91.,-53.,12.));
#1202=CARTESIAN_POINT('',(95.7999978587031,-55.4615489593908,12.));
#1203=CARTESIAN_POINT('',(95.7999978587031,-57.1295456072514,12.));
#1204=CARTESIAN_POINT('',(97.4445040042806,-56.6732324699145,12.));
#1205=CARTESIAN_POINT('Origin',(95.5000014230609,-57.590516347258,12.));
#1206=CARTESIAN_POINT('',(93.4,-58.0795909954789,12.));
#1207=CARTESIAN_POINT('Origin',(95.4999978654087,-57.5999987125397,12.));
#1208=CARTESIAN_POINT('',(93.4,-122.520404967796,12.));
#1209=CARTESIAN_POINT('',(93.4,-125.1,12.));
#1210=CARTESIAN_POINT('',(95.9795687628351,-125.1,12.));
#1211=CARTESIAN_POINT('Origin',(95.4999978654087,-122.999997250736,12.));
#1212=CARTESIAN_POINT('',(190.600008788903,-125.1,12.));
#1213=CARTESIAN_POINT('',(193.1,-125.1,12.));
#1214=CARTESIAN_POINT('',(193.197668841187,-122.999997250736,12.));
#1215=CARTESIAN_POINT('Origin',(191.0499957297,-122.999997250736,12.));
#1216=CARTESIAN_POINT('',(190.637600226375,-120.892290026607,12.));
#1217=CARTESIAN_POINT('Origin',(191.0499957297,-122.999997250736,12.));
#1218=CARTESIAN_POINT('',(193.1,-122.315350426176,12.));
#1219=CARTESIAN_POINT('Origin',(191.061924326393,-123.000001832843,12.));
#1220=CARTESIAN_POINT('',(193.1,-58.2751677539245,12.));
#1221=CARTESIAN_POINT('',(193.1,-55.4,12.));
#1222=CARTESIAN_POINT('',(188.927335292154,-57.3335539863814,12.));
#1223=CARTESIAN_POINT('Origin',(191.061924326393,-57.590516347258,12.));
#1224=CARTESIAN_POINT('',(193.185924024891,-57.5712562141295,12.));
#1225=CARTESIAN_POINT('Origin',(191.0499957297,-57.5712562141295,12.));
#1226=CARTESIAN_POINT('Origin',(191.0499957297,-57.5712562141295,12.));
#1227=CARTESIAN_POINT('Origin',(143.25,-90.25,11.));
#1228=CARTESIAN_POINT('',(193.1,-58.2751677539245,11.));
#1229=CARTESIAN_POINT('Origin',(191.061924326393,-57.590516347258,11.));
#1230=CARTESIAN_POINT('',(193.1,-122.315350426176,11.));
#1231=CARTESIAN_POINT('',(193.1,-55.4,11.));
#1232=CARTESIAN_POINT('',(190.600938754019,-125.1,11.));
#1233=CARTESIAN_POINT('Origin',(191.061924326393,-123.000001832843,11.));
#1234=CARTESIAN_POINT('',(95.9609869954343,-125.1,11.));
#1235=CARTESIAN_POINT('',(193.1,-125.1,11.));
#1236=CARTESIAN_POINT('',(93.4,-122.539031092836,11.));
#1237=CARTESIAN_POINT('Origin',(95.5000014230609,-123.000001832843,11.));
#1238=CARTESIAN_POINT('',(93.4,-58.0514870872646,11.));
#1239=CARTESIAN_POINT('',(93.4,-125.1,11.));
#1240=CARTESIAN_POINT('',(95.7999978587031,-55.4615489593908,11.));
#1241=CARTESIAN_POINT('Origin',(95.5000014230609,-57.590516347258,11.));
#1242=CARTESIAN_POINT('',(95.7999978587031,-73.6897728036257,11.));
#1243=CARTESIAN_POINT('',(133.000001981854,-79.0000011771917,11.));
#1244=CARTESIAN_POINT('',(125.000001862645,-79.0000011771917,11.));
#1245=CARTESIAN_POINT('',(134.125000931323,-79.0000011771917,11.));
#1246=CARTESIAN_POINT('',(125.000001862645,-99.1067554355972,11.));
#1247=CARTESIAN_POINT('',(125.000001862645,-94.6783777177986,11.));
#1248=CARTESIAN_POINT('',(104.162242587668,-99.1067554355972,11.));
#1249=CARTESIAN_POINT('',(135.125000946224,-99.1067554355972,11.));
#1250=CARTESIAN_POINT('',(104.162242587668,-117.106755703818,11.));
#1251=CARTESIAN_POINT('',(104.162242587668,-94.6783777177986,11.));
#1252=CARTESIAN_POINT('',(188.000002801418,-117.106755703818,11.));
#1253=CARTESIAN_POINT('',(123.706121293834,-117.106755703818,11.));
#1254=CARTESIAN_POINT('',(188.000002801418,-99.1067554355972,11.));
#1255=CARTESIAN_POINT('',(188.000002801418,-103.625000871718,11.));
#1256=CARTESIAN_POINT('',(170.074308115026,-99.1067554355972,11.));
#1257=CARTESIAN_POINT('',(165.625001400709,-99.1067554355972,11.));
#1258=CARTESIAN_POINT('',(170.074308115026,-80.0000011920929,11.));
#1259=CARTESIAN_POINT('',(170.074308115026,-84.6250005885959,11.));
#1260=CARTESIAN_POINT('',(184.000002741814,-80.0000011920929,11.));
#1261=CARTESIAN_POINT('',(155.125001244247,-80.0000011920929,11.));
#1262=CARTESIAN_POINT('',(184.000002741814,-62.000000923872,11.));
#1263=CARTESIAN_POINT('',(184.000002741814,-85.1250005960464,11.));
#1264=CARTESIAN_POINT('',(133.000001981854,-62.000000923872,11.));
#1265=CARTESIAN_POINT('',(163.625001370907,-62.000000923872,11.));
#1266=CARTESIAN_POINT('',(133.000001981854,-76.125000461936,11.));
#1267=CARTESIAN_POINT('Origin',(191.061924326393,-57.590516347258,11.));
#1268=CARTESIAN_POINT('Origin',(191.061924326393,-57.590516347258,12.));
#1269=CARTESIAN_POINT('',(193.1,-58.2751677539245,11.));
#1270=CARTESIAN_POINT('Origin',(95.7999978587031,-57.1295456072514,11.));
#1271=CARTESIAN_POINT('',(95.7999978587031,-55.4615489593908,11.));
#1272=CARTESIAN_POINT('Origin',(95.5000014230609,-57.590516347258,11.));
#1273=CARTESIAN_POINT('',(93.4,-58.0514870872646,12.));
#1274=CARTESIAN_POINT('',(93.4,-58.0514870872646,11.));
#1275=CARTESIAN_POINT('Origin',(95.5000014230609,-57.590516347258,12.));
#1276=CARTESIAN_POINT('Origin',(191.0499957297,-122.999997250736,14.));
#1277=CARTESIAN_POINT('',(194.2789957297,-122.999997250736,14.));
#1278=CARTESIAN_POINT('Origin',(191.0499957297,-122.999997250736,14.));
#1279=CARTESIAN_POINT('',(194.2789957297,-122.999997250736,13.));
#1280=CARTESIAN_POINT('',(194.2789957297,-122.999997250736,14.));
#1281=CARTESIAN_POINT('Origin',(191.0499957297,-122.999997250736,13.));
#1282=CARTESIAN_POINT('Origin',(191.0499957297,-122.999997250736,13.));
#1283=CARTESIAN_POINT('',(193.197668841187,-122.999997250736,13.));
#1284=CARTESIAN_POINT('Origin',(191.0499957297,-122.999997250736,13.));
#1285=CARTESIAN_POINT('Origin',(95.4999978654087,-122.999997250736,14.));
#1286=CARTESIAN_POINT('',(98.7289978654087,-122.999997250736,14.));
#1287=CARTESIAN_POINT('Origin',(95.4999978654087,-122.999997250736,14.));
#1288=CARTESIAN_POINT('',(98.7289978654087,-122.999997250736,13.));
#1289=CARTESIAN_POINT('',(98.7289978654087,-122.999997250736,14.));
#1290=CARTESIAN_POINT('Origin',(95.4999978654087,-122.999997250736,13.));
#1291=CARTESIAN_POINT('Origin',(95.4999978654087,-122.999997250736,13.));
#1292=CARTESIAN_POINT('',(97.6540637401153,-122.999997250736,13.));
#1293=CARTESIAN_POINT('Origin',(95.4999978654087,-122.999997250736,13.));
#1294=CARTESIAN_POINT('Origin',(191.0499957297,-57.5712562141295,14.));
#1295=CARTESIAN_POINT('',(194.2789957297,-57.5712562141295,14.));
#1296=CARTESIAN_POINT('Origin',(191.0499957297,-57.5712562141295,14.));
#1297=CARTESIAN_POINT('',(194.2789957297,-57.5712562141295,13.));
#1298=CARTESIAN_POINT('',(194.2789957297,-57.5712562141295,14.));
#1299=CARTESIAN_POINT('Origin',(191.0499957297,-57.5712562141295,13.));
#1300=CARTESIAN_POINT('Origin',(191.0499957297,-57.5712562141295,13.));
#1301=CARTESIAN_POINT('',(193.185924024891,-57.5712562141295,13.));
#1302=CARTESIAN_POINT('Origin',(191.0499957297,-57.5712562141295,13.));
#1303=CARTESIAN_POINT('Origin',(95.4999978654087,-57.5999987125397,14.));
#1304=CARTESIAN_POINT('',(98.7289226322634,-57.5999987125397,14.));
#1305=CARTESIAN_POINT('Origin',(95.4999978654087,-57.5999987125397,14.));
#1306=CARTESIAN_POINT('',(98.7289226322634,-57.5999987125397,13.));
#1307=CARTESIAN_POINT('',(98.7289226322634,-57.5999987125397,14.));
#1308=CARTESIAN_POINT('Origin',(95.4999978654087,-57.5999987125397,13.));
#1309=CARTESIAN_POINT('Origin',(95.4999978654087,-57.5999987125397,13.));
#1310=CARTESIAN_POINT('',(97.6540637401153,-57.5999987125397,13.));
#1311=CARTESIAN_POINT('Origin',(95.4999978654087,-57.5999987125397,13.));
#1312=CARTESIAN_POINT('Origin',(95.4999978654087,-57.5999987125397,12.));
#1313=CARTESIAN_POINT('',(97.6540637401153,-57.5999987125397,12.));
#1314=CARTESIAN_POINT('Origin',(95.4999978654087,-57.5999987125397,12.));
#1315=CARTESIAN_POINT('Origin',(95.4999978654087,-57.5999987125397,12.));
#1316=CARTESIAN_POINT('',(97.6540637401153,-57.5999987125397,12.));
#1317=CARTESIAN_POINT('Origin',(95.4999978654087,-122.999997250736,12.));
#1318=CARTESIAN_POINT('',(97.6540637401153,-122.999997250736,12.));
#1319=CARTESIAN_POINT('Origin',(95.4999978654087,-122.999997250736,12.));
#1320=CARTESIAN_POINT('Origin',(95.4999978654087,-122.999997250736,12.));
#1321=CARTESIAN_POINT('',(97.6540637401153,-122.999997250736,12.));
#1322=CARTESIAN_POINT('Origin',(191.0499957297,-57.5712562141295,12.));
#1323=CARTESIAN_POINT('Origin',(191.0499957297,-57.5712562141295,12.));
#1324=CARTESIAN_POINT('',(193.185924024891,-57.5712562141295,12.));
#1325=CARTESIAN_POINT('Origin',(191.0499957297,-122.999997250736,12.));
#1326=CARTESIAN_POINT('Origin',(191.0499957297,-122.999997250736,12.));
#1327=CARTESIAN_POINT('',(193.197668841187,-122.999997250736,12.));
#1328=CARTESIAN_POINT('Origin',(95.4999978654087,-57.5999987125397,12.));
#1329=CARTESIAN_POINT('',(93.4,-125.1,12.));
#1330=CARTESIAN_POINT('Origin',(95.4999978654087,-122.999997250736,12.));
#1331=CARTESIAN_POINT('',(95.9609869954343,-125.1,12.));
#1332=CARTESIAN_POINT('',(193.1,-125.1,12.));
#1333=CARTESIAN_POINT('',(93.4,-122.539031092836,12.));
#1334=CARTESIAN_POINT('',(93.4,-125.1,12.));
#1335=CARTESIAN_POINT('Origin',(95.5000014230609,-123.000001832843,12.));
#1336=CARTESIAN_POINT('Origin',(191.0499957297,-57.5712562141295,12.));
#1337=CARTESIAN_POINT('Origin',(191.0499957297,-122.999997250736,12.));
#1338=CARTESIAN_POINT('',(190.600938754019,-125.1,12.));
#1339=CARTESIAN_POINT('',(193.1,-125.1,12.));
#1340=CARTESIAN_POINT('Origin',(191.061924326393,-123.000001832843,12.));
#1341=CARTESIAN_POINT('Origin',(95.5000014230609,-123.000001832843,11.));
#1342=CARTESIAN_POINT('',(93.4,-122.539031092836,11.));
#1343=CARTESIAN_POINT('',(95.9609869954343,-125.1,11.));
#1344=CARTESIAN_POINT('Origin',(191.061924326393,-123.000001832843,11.));
#1345=CARTESIAN_POINT('',(190.600938754019,-125.1,11.));
#1346=CARTESIAN_POINT('',(193.1,-122.315350426176,11.));
#1347=CARTESIAN_POINT('Origin',(193.1,-55.4,12.));
#1348=CARTESIAN_POINT('Origin',(125.000001862645,-79.0000011771917,14.));
#1349=CARTESIAN_POINT('',(133.000001981854,-79.0000011771917,14.));
#1350=CARTESIAN_POINT('',(133.000001981854,-79.0000011771917,11.255));
#1351=CARTESIAN_POINT('',(125.000001862645,-79.0000011771917,14.));
#1352=CARTESIAN_POINT('',(134.125000931323,-79.0000011771917,14.));
#1353=CARTESIAN_POINT('',(125.000001862645,-79.0000011771917,14.));
#1354=CARTESIAN_POINT('Origin',(125.000001862645,-99.1067554355972,14.));
#1355=CARTESIAN_POINT('',(125.000001862645,-99.1067554355972,14.));
#1356=CARTESIAN_POINT('',(125.000001862645,-94.6783777177986,14.));
#1357=CARTESIAN_POINT('',(125.000001862645,-99.1067554355972,11.255));
#1358=CARTESIAN_POINT('Origin',(170.074308115026,-79.0000011771917,14.));
#1359=CARTESIAN_POINT('',(170.074308115026,-80.0000011920929,14.));
#1360=CARTESIAN_POINT('',(170.074308115026,-80.0000011920929,11.255));
#1361=CARTESIAN_POINT('',(170.074308115026,-99.1067554355972,14.));
#1362=CARTESIAN_POINT('',(170.074308115026,-99.1067554355972,11.255));
#1363=CARTESIAN_POINT('',(170.074308115026,-84.6250005885959,14.));
#1364=CARTESIAN_POINT('Origin',(127.000001892447,-99.1067554355972,8.51));
#1365=CARTESIAN_POINT('',(104.162242587668,-99.1067554355972,14.));
#1366=CARTESIAN_POINT('',(135.125000946224,-99.1067554355972,14.));
#1367=CARTESIAN_POINT('',(104.162242587668,-99.1067554355972,8.51));
#1368=CARTESIAN_POINT('Origin',(167.000002488494,-80.0000011920929,8.51));
#1369=CARTESIAN_POINT('',(184.000002741814,-80.0000011920929,14.));
#1370=CARTESIAN_POINT('',(155.125001244247,-80.0000011920929,14.));
#1371=CARTESIAN_POINT('',(184.000002741814,-80.0000011920929,8.51));
#1372=CARTESIAN_POINT('Origin',(104.162242587668,-117.106755703818,8.51));
#1373=CARTESIAN_POINT('',(188.000002801418,-117.106755703818,14.));
#1374=CARTESIAN_POINT('',(188.000002801418,-117.106755703818,8.51));
#1375=CARTESIAN_POINT('',(104.162242587668,-117.106755703818,14.));
#1376=CARTESIAN_POINT('',(104.162242587668,-117.106755703818,8.51));
#1377=CARTESIAN_POINT('',(123.706121293834,-117.106755703818,14.));
#1378=CARTESIAN_POINT('Origin',(188.000002801418,-117.000001743436,8.51));
#1379=CARTESIAN_POINT('',(188.000002801418,-99.1067554355972,14.));
#1380=CARTESIAN_POINT('',(188.000002801418,-103.625000871718,14.));
#1381=CARTESIAN_POINT('',(188.000002801418,-99.1067554355972,8.51));
#1382=CARTESIAN_POINT('Origin',(133.000001981854,-62.000000923872,8.51));
#1383=CARTESIAN_POINT('',(133.000001981854,-62.000000923872,14.));
#1384=CARTESIAN_POINT('',(133.000001981854,-62.000000923872,8.51));
#1385=CARTESIAN_POINT('',(133.000001981854,-76.125000461936,14.));
#1386=CARTESIAN_POINT('Origin',(184.000002741814,-62.000000923872,8.51));
#1387=CARTESIAN_POINT('',(184.000002741814,-62.000000923872,14.));
#1388=CARTESIAN_POINT('',(163.625001370907,-62.000000923872,14.));
#1389=CARTESIAN_POINT('',(184.000002741814,-62.000000923872,8.51));
#1390=CARTESIAN_POINT('Origin',(184.000002741814,-80.0000011920929,8.51));
#1391=CARTESIAN_POINT('',(184.000002741814,-85.1250005960464,14.));
#1392=CARTESIAN_POINT('Origin',(188.000002801418,-99.1067554355972,8.51));
#1393=CARTESIAN_POINT('',(165.625001400709,-99.1067554355972,14.));
#1394=CARTESIAN_POINT('Origin',(104.162242587668,-99.1067554355972,8.51));
#1395=CARTESIAN_POINT('',(104.162242587668,-94.6783777177986,14.));
#1396=CARTESIAN_POINT('Origin',(91.,-127.5,12.));
#1397=CARTESIAN_POINT('',(195.5,-127.5,14.));
#1398=CARTESIAN_POINT('',(195.5,-127.5,12.));
#1399=CARTESIAN_POINT('',(91.,-127.5,14.));
#1400=CARTESIAN_POINT('',(195.5,-127.5,14.));
#1401=CARTESIAN_POINT('',(91.,-127.5,12.));
#1402=CARTESIAN_POINT('Origin',(91.,-53.,12.));
#1403=CARTESIAN_POINT('',(91.,-53.,14.));
#1404=CARTESIAN_POINT('',(91.,-127.5,14.));
#1405=CARTESIAN_POINT('',(91.,-53.,12.));
#1406=CARTESIAN_POINT('Origin',(195.5,-53.,12.));
#1407=CARTESIAN_POINT('',(195.5,-53.,14.));
#1408=CARTESIAN_POINT('',(91.,-53.,14.));
#1409=CARTESIAN_POINT('',(195.5,-53.,12.));
#1410=CARTESIAN_POINT('Origin',(195.5,-127.5,12.));
#1411=CARTESIAN_POINT('',(195.5,-53.,14.));
#1412=CARTESIAN_POINT('Origin',(143.25,-90.25,14.));
#1413=CARTESIAN_POINT('Origin',(93.4,-125.1,12.));
#1414=CARTESIAN_POINT('Origin',(193.1,-125.1,12.));
#1415=UNCERTAINTY_MEASURE_WITH_UNIT(LENGTH_MEASURE(0.01),#1419,
'DISTANCE_ACCURACY_VALUE',
'Maximum model space distance between geometric entities at asserted c
onnectivities');
#1416=UNCERTAINTY_MEASURE_WITH_UNIT(LENGTH_MEASURE(0.01),#1419,
'DISTANCE_ACCURACY_VALUE',
'Maximum model space distance between geometric entities at asserted c
onnectivities');
#1417=(
GEOMETRIC_REPRESENTATION_CONTEXT(3)
GLOBAL_UNCERTAINTY_ASSIGNED_CONTEXT((#1415))
GLOBAL_UNIT_ASSIGNED_CONTEXT((#1419,#1420,#1421))
REPRESENTATION_CONTEXT('','3D')
);
#1418=(
GEOMETRIC_REPRESENTATION_CONTEXT(3)
GLOBAL_UNCERTAINTY_ASSIGNED_CONTEXT((#1416))
GLOBAL_UNIT_ASSIGNED_CONTEXT((#1419,#1420,#1421))
REPRESENTATION_CONTEXT('','3D')
);
#1419=(
LENGTH_UNIT()
NAMED_UNIT(*)
SI_UNIT(.MILLI.,.METRE.)
);
#1420=(
NAMED_UNIT(*)
PLANE_ANGLE_UNIT()
SI_UNIT($,.RADIAN.)
);
#1421=(
NAMED_UNIT(*)
SI_UNIT($,.STERADIAN.)
SOLID_ANGLE_UNIT()
);
#1422=SHAPE_DEFINITION_REPRESENTATION(#1423,#1424);
#1423=PRODUCT_DEFINITION_SHAPE('',$,#1426);
#1424=SHAPE_REPRESENTATION('',(#849),#1417);
#1425=PRODUCT_DEFINITION_CONTEXT('part definition',#1430,'design');
#1426=PRODUCT_DEFINITION('my-keyboard 1','my-keyboard',#1427,#1425);
#1427=PRODUCT_DEFINITION_FORMATION('',$,#1432);
#1428=PRODUCT_RELATED_PRODUCT_CATEGORY('my-keyboard','my-keyboard',(#1432));
#1429=APPLICATION_PROTOCOL_DEFINITION('international standard',
'automotive_design',2009,#1430);
#1430=APPLICATION_CONTEXT(
'Core Data for Automotive Mechanical Design Process');
#1431=PRODUCT_CONTEXT('part definition',#1430,'mechanical');
#1432=PRODUCT('my-keyboard 1','my-keyboard','KiCad electronic assembly',
(#1431));
#1433=PRESENTATION_STYLE_ASSIGNMENT((#1434));
#1434=SURFACE_STYLE_USAGE(.BOTH.,#1435);
#1435=SURFACE_SIDE_STYLE('',(#1436));
#1436=SURFACE_STYLE_FILL_AREA(#1437);
#1437=FILL_AREA_STYLE('Stal \X2\2014\X0\ satynowa',(#1438));
#1438=FILL_AREA_STYLE_COLOUR('Stal \X2\2014\X0\ satynowa',#1439);
#1439=COLOUR_RGB('Stal \X2\2014\X0\ satynowa',0.627450980392157,0.627450980392157,
0.627450980392157);
ENDSEC;
END-ISO-10303-21;
